<?xml version="1.0" encoding="UTF-8" standalone="no"?>
<!-- Uploaded to: SVG Repo, www.svgrepo.com, Generator: SVG Repo Mixer Tools -->

<svg
   width="64"
   height="64"
   viewBox="-3 0 64 64"
   preserveAspectRatio="xMidYMid"
   version="1.1"
   id="svg4"
   sodipodi:docname="google.svg"
   inkscape:version="1.4 (e7c3feb100, 2024-10-09)"
   xmlns:inkscape="http://www.inkscape.org/namespaces/inkscape"
   xmlns:sodipodi="http://sodipodi.sourceforge.net/DTD/sodipodi-0.dtd"
   xmlns="http://www.w3.org/2000/svg"
   xmlns:svg="http://www.w3.org/2000/svg">
  <defs
     id="defs4" />
  <sodipodi:namedview
     id="namedview4"
     pagecolor="#ffffff"
     bordercolor="#000000"
     borderopacity="0.25"
     inkscape:showpageshadow="2"
     inkscape:pageopacity="0.0"
     inkscape:pagecheckerboard="0"
     inkscape:deskcolor="#d1d1d1"
     inkscape:zoom="14.705238"
     inkscape:cx="31.655386"
     inkscape:cy="38.897704"
     inkscape:window-width="1910"
     inkscape:window-height="996"
     inkscape:window-x="0"
     inkscape:window-y="0"
     inkscape:window-maximized="1"
     inkscape:current-layer="svg4" />
  <path
     id="path1"
     d="M 29.64009,-8.5000003e-8 C 17.124424,-8.5000003e-8 6.3154645,7.1821717 1.0532965,17.635423 c -2.1687937,4.337833 -3.4132877,9.208959 -3.4132877,14.364501 0,5.155542 1.244494,10.02651 3.4132877,14.364342 C 6.3154644,56.817521 17.124424,64 29.64009,64 c 8.63988,0 15.893119,-2.84465 21.191077,-7.751154 6.044332,-5.58229 9.528824,-13.79556 9.528824,-23.537728 0,-2.631086 -0.213405,-4.551079 -0.675444,-6.542163 H 29.64009 v 11.875326 h 17.635422 c -0.35542,2.951203 -2.27557,7.395722 -6.542318,10.382226 -2.702168,1.884458 -6.328769,3.200055 -11.093104,3.200055 -8.462168,0 -15.644479,-5.582168 -18.204724,-13.29771 -0.675541,-1.991084 -1.066476,-4.124592 -1.066476,-6.328928 0,-2.20458 0.391042,-4.337688 1.031042,-6.328772 2.595787,-7.715542 9.77799,-13.297867 18.240158,-13.297867 6.008794,0 10.061919,2.595453 12.373125,4.764491 L 51.044397,8.3199864 C 45.497893,3.1644444 38.27997,-8.5000003e-8 29.64009,-8.5000003e-8 Z"
     style="stroke-width:0.245117" />
</svg>
