<?xml version="1.0" encoding="UTF-8" standalone="no"?>
<!-- Uploaded to: SVG Repo, www.svgrepo.com, Generator: SVG Repo Mixer Tools -->
<svg xmlns:inkscape="http://www.inkscape.org/namespaces/inkscape" xmlns:sodipodi="http://sodipodi.sourceforge.net/DTD/sodipodi-0.dtd" xmlns="http://www.w3.org/2000/svg" xmlns:svg="http://www.w3.org/2000/svg" width="24" height="24" viewBox="-3 0 24 24" preserveAspectRatio="xMidYMid" version="1.1" id="svg4" sodipodi:docname="google.svg" inkscape:version="1.4 (e7c3feb100, 2024-10-09)">
   <defs id="defs4"/>
   <sodipodi:namedview id="namedview4" pagecolor="#ffffff" bordercolor="#000000" borderopacity="0.25" inkscape:showpageshadow="2" inkscape:pageopacity="0.0" inkscape:pagecheckerboard="0" inkscape:deskcolor="#d1d1d1" inkscape:zoom="19.599021" inkscape:cx="16.352857" inkscape:cy="10.408683" inkscape:window-width="1906" inkscape:window-height="986" inkscape:window-x="0" inkscape:window-y="0" inkscape:window-maximized="1" inkscape:current-layer="svg4"/>
   <path id="path1" d="M 9.2400342,0 C 4.5466591,0 0.49329914,2.6933145 -1.4800139,6.6132839 c -0.8132977,1.6266874 -1.279983,3.4533601 -1.279983,5.3866871 0,1.933329 0.4666853,3.759942 1.279983,5.386629 C 0.4932991,21.306572 4.5466591,24 9.2400342,24 c 3.2399538,0 5.9599198,-1.066742 7.9466548,-2.906682 2.266622,-2.093359 3.573308,-5.173335 3.573308,-8.826649 0,-0.986657 -0.08002,-1.706655 -0.253291,-2.4533101 H 9.2400342 v 4.4532461 h 6.6132838 c -0.133283,1.106702 -0.853338,2.773397 -2.453369,3.893335 -1.013314,0.706671 -2.37329,1.200021 -4.1599148,1.200021 -3.1733132,0 -5.86668,-2.093313 -6.8267718,-4.986642 -0.253328,-0.746655 -0.3999286,-1.546721 -0.3999286,-2.373348 0,-0.826717 0.1466408,-1.626631 0.3866408,-2.3732885 0.9734202,-2.8933284 3.6667464,-4.9867004 6.8400596,-4.9867004 2.2532968,0 3.7732188,0.973295 4.6399208,1.7866842 L 17.26665,3.119995 C 15.186711,1.1866667 12.479988,0 9.2400342,0 Z" style="stroke-width:0.0919188" fill="currentColor"/>
</svg>
