<?xml version="1.0" encoding="UTF-8" standalone="no"?>
<!-- Uploaded to: SVG Repo, www.svgrepo.com, Generator: SVG Repo Mixer Tools -->

<svg
   width="800px"
   height="800px"
   viewBox="-3 0 262 262"
   preserveAspectRatio="xMidYMid"
   version="1.1"
   id="svg4"
   sodipodi:docname="google-icon-logo.svg"
   inkscape:version="1.4 (e7c3feb100, 2024-10-09)"
   xmlns:inkscape="http://www.inkscape.org/namespaces/inkscape"
   xmlns:sodipodi="http://sodipodi.sourceforge.net/DTD/sodipodi-0.dtd"
   xmlns="http://www.w3.org/2000/svg"
   xmlns:svg="http://www.w3.org/2000/svg">
  <defs
     id="defs4" />
  <sodipodi:namedview
     id="namedview4"
     pagecolor="#ffffff"
     bordercolor="#000000"
     borderopacity="0.25"
     inkscape:showpageshadow="2"
     inkscape:pageopacity="0.0"
     inkscape:pagecheckerboard="0"
     inkscape:deskcolor="#d1d1d1"
     inkscape:zoom="0.81669435"
     inkscape:cx="425.49578"
     inkscape:cy="426.108"
     inkscape:window-width="1910"
     inkscape:window-height="996"
     inkscape:window-x="0"
     inkscape:window-y="0"
     inkscape:window-maximized="1"
     inkscape:current-layer="svg4" />
  <path
     id="path1"
     d="M 130.55028 0 C 79.490278 0 35.393098 29.301017 13.925098 71.947017 C 5.0770977 89.644017 -4.8828125e-05 109.51669 -4.8828125e-05 130.54969 C -4.8828125e-05 151.58269 5.0770977 171.45472 13.925098 189.15172 C 35.393098 231.79772 79.490278 261.10001 130.55028 261.10001 C 165.79828 261.10001 195.38924 249.49471 217.00324 229.47771 C 241.66224 206.70371 255.87788 173.19613 255.87788 133.45113 C 255.87788 122.71713 255.00727 114.88416 253.12227 106.76116 L 130.55028 106.76116 L 130.55028 155.20877 L 202.49729 155.20877 C 201.04729 167.24877 193.21368 185.38101 175.80668 197.56501 C 164.78268 205.25301 149.98728 210.62024 130.55028 210.62024 C 96.027278 210.62024 66.725698 187.84674 56.280698 156.36974 C 53.524698 148.24674 51.92981 139.54269 51.92981 130.54969 C 51.92981 121.55569 53.525138 112.85328 56.136138 104.73028 C 66.726138 73.253278 96.027278 50.479136 130.55028 50.479136 C 155.06428 50.479136 171.59977 61.067772 181.02877 69.916772 L 217.87316 33.942944 C 195.24516 12.909944 165.79828 -3.1027033e-15 130.55028 0 z " />
</svg>
