<?xml version="1.0" encoding="UTF-8" standalone="no"?>
<!-- Created with Inkscape (http://www.inkscape.org/) -->

<svg
   width="24"
   height="24"
   viewBox="0 0 24 24"
   version="1.1"
   id="svg1"
   inkscape:version="1.4 (e7c3feb100, 2024-10-09)"
   sodipodi:docname="logo-2.svg"
   inkscape:export-filename="logo-2.png"
   inkscape:export-xdpi="2048"
   inkscape:export-ydpi="2048"
   xmlns:inkscape="http://www.inkscape.org/namespaces/inkscape"
   xmlns:sodipodi="http://sodipodi.sourceforge.net/DTD/sodipodi-0.dtd"
   xmlns="http://www.w3.org/2000/svg"
   xmlns:svg="http://www.w3.org/2000/svg">
  <sodipodi:namedview
     id="namedview1"
     pagecolor="#ffffff"
     bordercolor="#000000"
     borderopacity="0.25"
     inkscape:showpageshadow="2"
     inkscape:pageopacity="0.0"
     inkscape:pagecheckerboard="0"
     inkscape:deskcolor="#d1d1d1"
     inkscape:document-units="px"
     inkscape:zoom="22.578528"
     inkscape:cx="10.031655"
     inkscape:cy="11.249626"
     inkscape:window-width="1906"
     inkscape:window-height="990"
     inkscape:window-x="0"
     inkscape:window-y="0"
     inkscape:window-maximized="1"
     inkscape:current-layer="layer1" />
  <defs
     id="defs1">
    <clipPath
       clipPathUnits="userSpaceOnUse"
       id="clipPath2">
      <rect
         style="fill:#e0cb12;fill-opacity:1"
         id="rect3"
         width="14.754224"
         height="14.754224"
         x="1.7763568e-15"
         y="16.970562"
         transform="matrix(-0.96592583,-0.25881904,-0.25881904,0.96592583,0,0)" />
    </clipPath>
  </defs>
  <g
     inkscape:label="Layer 1"
     inkscape:groupmode="layer"
     id="layer1">
    <path
       d="M 19.666667,0 C 22.059867,0 24,1.9400934 24,4.3333333 V 19.666667 C 24,22.059867 22.059867,24 19.666667,24 H 4.3333333 C 1.9400934,24 0,22.059867 0,19.666667 V 4.3333333 C 0,1.9400934 1.9400934,0 4.3333333,0 Z M 22,4.3333333 C 22,3.0446666 20.955333,2 19.666667,2 H 4.3333333 C 3.0446666,2 2,3.0446666 2,4.3333333 V 19.666667 C 2,20.955333 3.0446666,22 4.3333333,22 H 19.666667 C 20.955333,22 22,20.955333 22,19.666667 Z"
       fill="#000000"
       id="path1"
       style="stroke-width:1.33334"
       sodipodi:nodetypes="ssssssssssssssssss" />
    <rect
       style="display:none;fill:#3979eb;fill-opacity:1;stroke-width:1.26006"
       id="rect13"
       width="10"
       height="10"
       x="2"
       y="2" />
    <rect
       style="fill:#e012ba;fill-opacity:1;stroke-width:1.03564"
       id="rect14"
       width="8.218914"
       height="8.218914"
       x="2.890543"
       y="2.890543"
       ry="2.328732"
       rx="2.328732" />
    <rect
       style="fill:#e0cb12;fill-opacity:1;stroke-width:1.03564"
       id="rect21"
       width="8.218914"
       height="8.218914"
       x="12.890543"
       y="2.890543"
       ry="2.328732"
       rx="2.328732" />
    <rect
       style="fill:#3979eb;fill-opacity:1;stroke-width:1.03564"
       id="rect23"
       width="8.218914"
       height="8.218914"
       x="12.890543"
       y="12.890543"
       ry="2.328732"
       rx="2.328732" />
    <rect
       style="fill:#e06f12;fill-opacity:1;stroke-width:1.03564"
       id="rect25"
       width="8.218914"
       height="8.218914"
       x="2.890543"
       y="12.890543"
       ry="2.328732"
       rx="2.328732" />
  </g>
</svg>
