<?xml version="1.0" encoding="UTF-8" standalone="no"?>
<!-- Created with Inkscape (http://www.inkscape.org/) -->

<svg
   width="24"
   height="24"
   viewBox="0 0 24 24"
   version="1.1"
   id="svg1"
   inkscape:version="1.4 (e7c3feb100, 2024-10-09)"
   sodipodi:docname="logo.svg"
   xmlns:inkscape="http://www.inkscape.org/namespaces/inkscape"
   xmlns:sodipodi="http://sodipodi.sourceforge.net/DTD/sodipodi-0.dtd"
   xmlns="http://www.w3.org/2000/svg"
   xmlns:svg="http://www.w3.org/2000/svg">
  <sodipodi:namedview
     id="namedview1"
     pagecolor="#ffffff"
     bordercolor="#000000"
     borderopacity="0.25"
     inkscape:showpageshadow="2"
     inkscape:pageopacity="0.0"
     inkscape:pagecheckerboard="0"
     inkscape:deskcolor="#d1d1d1"
     inkscape:document-units="px"
     inkscape:zoom="20.669482"
     inkscape:cx="23.101691"
     inkscape:cy="11.175897"
     inkscape:window-width="1910"
     inkscape:window-height="996"
     inkscape:window-x="0"
     inkscape:window-y="0"
     inkscape:window-maximized="1"
     inkscape:current-layer="g99"
     showguides="false" />
  <defs
     id="defs1">
    <inkscape:path-effect
       effect="fillet_chamfer"
       id="path-effect102"
       is_visible="true"
       lpeversion="1"
       nodesatellites_param="F,0,0,1,0,0,0,1 @ F,0,0,1,0,0,0,1 @ F,0,0,1,0,0,0,1 @ F,0,0,1,0,0,0,1 @ F,0,0,1,0,0,0,1 @ F,0,0,1,0,1,0,1 @ F,0,0,1,0,0,0,1 @ F,0,0,1,0,0,0,1 @ F,0,0,1,0,0,0,1 @ F,0,0,1,0,0,0,1 @ F,0,0,1,0,0,0,1 @ F,0,0,1,0,0,0,1 @ F,0,0,1,0,0,0,1 @ F,0,0,1,0,0,0,1 @ F,0,0,1,0,0,0,1 @ F,0,0,1,0,0,0,1 @ F,0,0,1,0,0,0,1 @ F,0,0,1,0,0,0,1 @ F,0,0,1,0,0,0,1 @ F,0,0,1,0,0,0,1 @ F,0,0,1,0,0,0,1 @ F,0,0,1,0,0,0,1 @ F,0,0,1,0,0,0,1 @ F,0,0,1,0,0,0,1 @ F,0,0,1,0,0,0,1 @ F,0,0,1,0,0,0,1 @ F,0,0,1,0,0,0,1 @ F,0,0,1,0,0,0,1 @ F,0,0,1,0,0,0,1 @ F,0,0,1,0,0,0,1 @ F,0,0,1,0,0,0,1 @ F,0,0,1,0,0,0,1 @ F,0,0,1,0,1.3132952,0,1 @ F,0,0,1,0,0,0,1 @ F,0,0,1,0,0,0,1 @ F,0,0,1,0,0,0,1 @ F,0,0,1,0,0,0,1 @ F,0,0,1,0,0,0,1 @ F,0,0,1,0,0,0,1 @ F,0,0,1,0,0,0,1 @ F,0,0,1,0,0,0,1 @ F,0,0,1,0,0,0,1 @ F,0,0,1,0,0,0,1 @ F,0,0,1,0,0,0,1 @ F,0,0,1,0,1,0,1 @ F,0,0,1,0,0,0,1 @ F,0,0,1,0,0,0,1 @ F,0,0,1,0,0,0,1 @ F,0,0,1,0,1,0,1 @ F,0,0,1,0,0,0,1 @ F,0,0,1,0,0,0,1 @ F,0,0,1,0,0,0,1 | F,0,0,1,0,1,0,1 @ F,0,0,1,0,1,0,1 @ F,0,0,1,0,0,0,1 @ F,0,0,1,0,0,0,1 @ F,0,0,1,0,0,0,1 @ F,0,0,1,0,0,0,1 @ F,0,0,1,0,0,0,1 @ F,0,0,1,0,0,0,1 @ F,0,0,1,0,0,0,1 @ F,0,0,1,0,0,0,1 @ F,0,0,1,0,0,0,1 @ F,0,0,1,0,0,0,1 @ F,0,0,1,0,0,0,1 @ F,0,0,1,0,1,0,1 | F,0,0,1,0,0,0,1 @ F,0,0,1,0,0,0,1 @ F,0,0,1,0,0,0,1 @ F,0,0,1,0,0,0,1 @ F,0,0,1,0,0,0,1 @ F,0,0,1,0,0,0,1 @ F,0,0,1,0,0,0,1 | F,0,0,1,0,0,0,1 @ F,0,0,1,0,0,0,1 @ F,0,0,1,0,0,0,1 @ F,0,0,1,0,0,0,1 | F,0,0,1,0,0,0,1 @ F,0,0,1,0,0,0,1 @ F,0,0,1,0,0,0,1 @ F,0,0,1,0,0,0,1 @ F,0,0,1,0,0,0,1 @ F,0,0,1,0,0,0,1 | F,0,0,1,0,0,0,1 @ F,0,0,1,0,0,0,1 @ F,0,0,1,0,1,0,1 @ F,0,0,1,0,1,0,1 @ F,0,0,1,0,0,0,1 @ F,0,0,1,0,0,0,1 @ F,0,0,1,0,0,0,1 @ F,0,0,1,0,0,0,1 @ F,0,0,1,0,0,0,1 | F,0,0,1,0,0,0,1 @ F,0,0,1,0,0,0,1 @ F,0,0,1,0,0,0,1 @ F,0,0,1,0,0,0,1 @ F,0,0,1,0,0,0,1 @ F,0,0,1,0,0,0,1 @ F,0,0,1,0,0,0,1 | F,0,0,1,0,0,0,1 @ F,0,0,1,0,0,0,1 @ F,0,0,1,0,0,0,1 @ F,0,0,1,0,0,0,1 @ F,0,0,1,0,0,0,1"
       radius="1"
       unit="px"
       method="auto"
       mode="F"
       chamfer_steps="1"
       flexible="false"
       use_knot_distance="true"
       apply_no_radius="true"
       apply_with_radius="true"
       only_selected="false"
       hide_knots="false" />
    <clipPath
       clipPathUnits="userSpaceOnUse"
       id="clipPath9">
      <g
         inkscape:label="Clip"
         id="use9" />
    </clipPath>
    <clipPath
       clipPathUnits="userSpaceOnUse"
       id="clipPath13">
      <path
         d="m 4.96875,2.3845177 7.75,7.7499993 7.072266,-7.072265 C 19.577501,0.56341034 14.333993,-7.8628665 11.527225,-7.8628665 c -2.4697502,0 -6.8640676,6.8059779 -6.558475,10.2473842 z"
         style="display:inline;fill:#f70000;fill-opacity:1;stroke-width:1.71697"
         id="path13"
         sodipodi:nodetypes="cccsc" />
    </clipPath>
    <clipPath
       clipPathUnits="userSpaceOnUse"
       id="clipPath14">
      <path
         d="m 7.7220485,-5.6007278 c 0.2928834,-0.2928836 0.767769,-0.2928903 1.0606594,0 l 2.2308231,2.2308229 2.1e-5,-3.0172034 c 7e-6,-0.4142161 0.335741,-0.7499504 0.749957,-0.7499575 0.414224,0 0.750007,0.3357838 0.75,0.7499999 l 2.1e-5,4.5171608 2.102809,2.10280833 2.102794,-2.10279423 -1.4e-5,-4.5171537 c 0,-0.4142231 0.335805,-0.7500281 0.750028,-0.7500281 0.414216,-7.1e-6 0.75,0.3357767 0.75,0.7499998 l -2.8e-5,3.0171964 2.230851,-2.2308512 c 0.292884,-0.2928839 0.767776,-0.2928836 1.06066,0 0.292883,0.2928836 0.292884,0.7677763 0,1.0606602 l -2.230851,2.2308512 3.017224,0 c 0.414223,0 0.749958,0.3357343 0.749958,0.7499574 0,0.4142232 -0.335805,0.75002823 -0.750028,0.75002823 l -4.51714,0 -2.102794,2.10279407 2.102794,2.1027942 4.51714,0 c 0.414223,0 0.750028,0.335805 0.750028,0.7500281 0,0.4142232 -0.335735,0.7499575 -0.749958,0.7499575 h -3.017224 l 2.230851,2.2308512 c 0.292884,0.2928839 0.292883,0.7677765 0,1.0606601 -0.292884,0.2928837 -0.767776,0.292884 -1.06066,0 l -2.230851,-2.2308511 2.8e-5,3.0171958 c 0,0.414224 -0.335784,0.750007 -0.75,0.75 -0.414223,0 -0.750028,-0.335805 -0.750028,-0.750028 l 1.4e-5,-4.5171535 -2.102794,-2.1027941 -2.436905,2.4369048 -2.1e-5,4.5171608 c 7e-6,0.414216 -0.335776,0.7499999 -0.75,0.7499999 -0.414216,-7e-6 -0.74995,-0.3357419 -0.749957,-0.7499579 L 10.679435,6.291128 8.4486109,8.5219509 c -0.2928903,0.2928902 -0.7677755,0.2928832 -1.0606589,0 -0.292884,-0.2928836 -0.2928909,-0.7677692 0,-1.0606601 l 2.2308229,-2.2308229 -3.0171755,7e-6 c -0.4142161,-7e-6 -0.7499999,-0.3357908 -0.7499999,-0.7499998 0,-0.4142232 0.3357838,-0.750007 0.7499999,-0.7499999 l 4.5171746,-7.1e-6 2.436905,-2.4369048 -2.102809,-2.10280827 -4.5171741,-7e-6 c -0.4142161,7e-6 -0.7499999,-0.33577683 -0.7499999,-0.74999993 0,-0.414209 0.3357838,-0.7499928 0.7499999,-0.7499999 l 3.017175,7.1e-6 -2.2308224,-2.2308229 c -0.2928909,-0.2928909 -0.292884,-0.7677766 0,-1.0606602 z"
         fill="currentColor"
         id="path14"
         sodipodi:nodetypes="sscccccccccccssscssscccssscssscccccccccccsssccscccccsccss" />
    </clipPath>
    <clipPath
       clipPathUnits="userSpaceOnUse"
       id="clipPath15">
      <path
         d="m 9.4633265,12.597396 c 0.292884,0.292883 0.2928909,0.767769 0,1.06066 l -1.0606598,1.06066 c -0.2928902,0.292891 -0.7677766,0.292884 -1.0606602,0 -0.2928836,-0.292883 -0.2928903,-0.767769 0,-1.06066 l 1.0606602,-1.06066 c 0.2928909,-0.29289 0.7677768,-0.292884 1.0606598,0 z M -1.1432744,23.203997 c 1.95260466,1.952605 5.1184625,1.952605 7.0710671,10e-7 1.9526191,-1.952619 1.9526049,-5.118464 2e-7,-7.071068 -1.9526188,-1.952619 -5.11844904,-1.952619 -7.071068,0 -1.9526046,1.952605 -1.9526181,5.118448 7e-7,7.071067 z m 1.06066016,-1.06066 c -1.36683736,-1.366838 -1.36683806,-3.582909 -7e-7,-4.949747 1.36683744,-1.366837 3.58291034,-1.366837 4.94974774,0 1.3668374,1.366837 1.3668372,3.58291 -2e-7,4.949748 -1.3668374,1.366837 -3.5829094,1.366836 -4.94974684,-1e-6 z m 8.48528074,4.596195 c 0.292883,0.292883 0.767776,0.292883 1.06066,0 0.292884,-0.292884 0.2928828,-0.767776 0,-1.06066 l -1.06066,-1.060661 c -0.2928837,-0.292883 -0.7677766,-0.292883 -1.0606602,0 -0.2928836,0.292884 -0.292884,0.767778 0,1.060661 z M -2.5574879,24.618211 c 0.2928836,0.292883 0.292884,0.767777 0,1.06066 l -1.0606602,1.06066 c -0.2928833,0.292884 -0.7677765,0.292884 -1.0606602,0 -0.2928836,-0.292884 -0.2928832,-0.767776 0,-1.06066 l 1.0606602,-1.06066 c 0.2928839,-0.292883 0.7677765,-0.292884 1.0606602,0 z M -3.618149,14.718716 c 0.2928902,0.292891 0.7677767,0.292884 1.0606604,0 0.2928836,-0.292883 0.29289,-0.767769 -2e-7,-1.06066 l -1.0606602,-1.06066 c -0.2928911,-0.292891 -0.7677765,-0.292884 -1.0606601,0 -0.2928837,0.292884 -0.292891,0.76777 0,1.06066 z M 2.3919973,8.6656765 c 0.414209,0 0.75,0.335791 0.75,0.75 l 0,2.1213205 c -7.1e-6,0.414216 -0.3357909,0.75 -0.7499999,0.75 -0.4142161,7e-6 -0.7500069,-0.335784 -0.7499999,-0.75 l -1e-7,-2.1213205 c -10e-8,-0.414209 0.3357838,-0.749993 0.7499999,-0.75 z M -7.8610504,20.418725 c -0.4142161,7e-6 -0.7500071,-0.335784 -0.75,-0.75 7e-6,-0.414216 0.335812,-0.750021 0.7500281,-0.750029 l 2.1213205,1e-6 c 0.4142161,-7e-6 0.750007,0.335783 0.7499999,0.75 -7.1e-6,0.414216 -0.3358121,0.750021 -0.7500282,0.750028 z M 13.395025,19.668704 c -7e-6,-0.414216 -0.335742,-0.74995 -0.749958,-0.749957 h -2.12132 c -0.414223,0 -0.7500075,0.335783 -0.7500005,0.75 0,0.414223 0.3357345,0.749957 0.7499585,0.749957 h 2.12132 c 0.414216,7e-6 0.75,-0.335777 0.75,-0.75 z M 1.6420192,29.921794 c 0,0.414223 0.3357343,0.749958 0.7499575,0.749958 0.4142231,0 0.7500282,-0.335805 0.7500282,-0.750028 l 0,-2.121321 c 0,-0.414223 -0.3357343,-0.749957 -0.7499575,-0.749957 -0.4142231,0 -0.7500282,0.335805 -0.7500282,0.750028 z"
         fill="currentColor"
         id="path15"
         sodipodi:nodetypes="sssssssssssssssssssssssssssssssssssssscscccsccsccsccccscsccsssssss" />
    </clipPath>
    <clipPath
       clipPathUnits="userSpaceOnUse"
       id="clipPath16">
      <path
         d="m 24.809396,2.7440254 c -0.229789,0.3446227 -0.136606,0.8103373 0.207988,1.0400551 0.344665,0.2298027 0.810316,0.1366838 1.040091,-0.2079672 0.511047,-0.7665391 0.547222,-1.6949985 0.204863,-2.5507604 -0.338754,-0.84678157 -1.042042,-1.62544756 -2.033795,-2.2207254 -0.355173,-0.2131998 -0.815895,-0.098112 -1.02906,0.25704039 -0.213171,0.35515852 -0.09805,0.81590223 0.257055,1.02903128 0.775746,0.46565103 1.221506,1.01281023 1.413125,1.49181143 0.188012,0.470021 0.135912,0.8673301 -0.06027,1.1615148 z M 31.17946,4.9761859 C 30.257273,3.9381602 28.922439,3.2711888 27.43207,3.2329909 28.378108,1.5238149 28.304159,-0.66179564 27.039322,-2.336472 25.605953,-4.2342829 23.568615,-5.586957 21.26327,-6.1714161 L 20.598229,-6.340054 c -0.02461,-0.00622 -0.04958,-0.011229 -0.07472,-0.014941 l -2.349472,-0.3470013 c -2.118032,-0.3128595 -4.009393,1.3523692 -3.967462,3.4929936 0.0049,0.2476995 -0.197283,0.4498614 -0.445053,0.445053 -2.140554,-0.042002 -3.8057899,1.84936705 -3.492966,3.9674348 L 10.6156,3.5529138 c 0.0037,0.025173 0.0087,0.050134 0.01492,0.074741 l 0.168645,0.6650339 c 0.584423,2.3053803 1.937119,4.3426963 3.834923,5.7760723 2.361764,1.783776 5.739642,1.199027 7.364389,-1.2748989 l 1.066317,-1.6236582 0.0017,-0.00264 c 0.529941,0.5729333 1.038656,1.2536148 1.376992,1.9303728 0.409174,0.818307 0.493306,1.4720833 0.308801,1.9201553 -0.157741,0.383054 0.0249,0.82139 0.407909,0.97911 0.383011,0.157727 0.821347,-0.02492 0.979094,-0.407965 0.43422,-1.054522 0.120604,-2.2127073 -0.354182,-3.1621037 -0.02215,-0.044357 -0.04487,-0.088565 -0.06805,-0.1326816 0.497965,0.1588374 1.028628,0.2445883 1.579167,0.2445741 1.545078,3.54e-5 2.933305,-0.6758102 3.883353,-1.7455567 0.461048,-0.5191295 0.460977,-1.2982339 -1.56e-4,-1.8172786 z m -1.20165,0.9087383 c -0.673887,0.7117313 -1.625624,1.1541256 -2.681582,1.1541326 -1.055725,0 -2.007314,-0.4421892 -2.681158,-1.1536518 0.124733,-0.1318047 0.259013,-0.2543463 0.401707,-0.3664934 l 0.526597,-0.3458318 c 0.521661,-0.2820225 1.11865,-0.4418215 1.753292,-0.4418215 1.055725,0 2.007285,0.4422034 2.681144,1.1536659 z M 24.941011,3.7741185 24.768279,3.8875668 C 24.550497,4.0091962 24.342402,4.1460284 24.145452,4.2965927 L 23.317295,4.8404921 C 22.717549,5.2343718 22.204896,5.7470242 21.811017,6.346771 L 20.7447,7.9704289 C 19.596027,9.7194791 17.207879,10.132889 15.538054,8.8717711 13.912415,7.6439506 12.75375,5.8988111 12.253119,3.9240033 L 12.093949,3.2960217 11.752487,0.9842775 c -0.177338,-1.2003802 0.766437,-2.2722833 1.979615,-2.2485988 1.099127,0.021637 1.995739,-0.874974 1.974172,-1.9741714 -0.02374,-1.2131223 1.048184,-2.156919 2.248592,-1.9796091 l 2.311752,0.3414548 0.627974,0.1591768 c 1.974765,0.500674 3.719905,1.6593392 4.947718,3.2849847 1.261153,1.6697903 0.847743,4.0579374 -0.901299,5.206604 z"
         fill="currentColor"
         id="path16"
         sodipodi:nodetypes="scsccsccssccsccccccccccccccccsccccscccccccsccccccccccccccccsc" />
    </clipPath>
    <clipPath
       clipPathUnits="userSpaceOnUse"
       id="clipPath22">
      <path
         d="M 31.228087,5.0610975 C 30.3059,4.0230719 28.971066,3.3561005 27.480697,3.3179026 28.426735,1.6087265 28.352786,-0.57688402 27.087949,-2.2515604 25.65458,-4.1493713 23.617235,-5.5020525 21.311883,-6.0865193 l -0.665044,-0.1686401 c -0.02461,-0.00622 -0.04958,-0.011229 -0.07472,-0.014941 l -2.349477,-0.3470083 c -2.118033,-0.3128594 -4.009395,1.35237 -3.967463,3.4929944 0.0049,0.2476995 -0.197283,0.4498613 -0.445054,0.445053 -2.140552,-0.042003 -3.805789,1.84936674 -3.492965,3.9674344 l 0.34705,2.3494355 c 0.0037,0.025173 0.0087,0.050134 0.01492,0.074741 l 0.168647,0.6650361 c 0.584432,2.305388 1.937134,4.3427111 3.834938,5.7760873 2.361765,1.783776 5.739642,1.199027 7.36439,-1.2748994 l 1.066317,-1.6236583 0.0017,-0.00264 c 0.529941,0.5729332 1.038655,1.2536154 1.376992,1.9303725 0.409175,0.8183072 0.493306,1.4720822 0.308801,1.9201552 -0.157742,0.383054 0.0249,0.821389 0.407908,0.97911 0.383012,0.157727 0.821347,-0.02492 0.979096,-0.407966 0.434219,-1.054522 0.120603,-2.2127055 -0.354183,-3.1621024 -0.02215,-0.044357 -0.04487,-0.088565 -0.06805,-0.1326815 0.497965,0.1588374 1.028628,0.2445882 1.579167,0.244574 1.545078,3.54e-5 2.933305,-0.6758102 3.883353,-1.7455567 0.461047,-0.5191295 0.460977,-1.2982339 -1.56e-4,-1.8172786 z m -1.20165,0.9087383 c -0.673887,0.7117313 -1.625624,1.1541256 -2.681582,1.1541326 -1.055725,0 -2.007314,-0.4421892 -2.681158,-1.1536517 C 24.78843,5.838512 24.92271,5.7159704 25.065404,5.6038232 l 0.526597,-0.3458318 c 0.521661,-0.2820224 1.11865,-0.4418215 1.753292,-0.4418215 1.055725,0 2.007285,0.4422034 2.681144,1.1536659 z M 24.989638,3.8590302 24.816906,3.9724784 C 24.599124,4.0941078 24.391029,4.23094 24.194079,4.3815043 l -0.828157,0.5438995 c -0.599746,0.3938796 -1.112399,0.9065321 -1.506278,1.5062781 l -1.066317,1.623659 C 19.644653,9.8043903 17.256506,10.2178 15.58668,8.9566828 13.961042,7.7288626 12.802371,5.9837174 12.301733,4.0089032 L 12.142561,3.3809196 11.801094,1.0691701 c -0.177342,-1.20038437 0.766433,-2.2722875 1.979617,-2.2485999 1.099127,0.021639 1.995738,-0.8749722 1.97417,-1.9741708 -0.02374,-1.2131264 1.04818,-2.156923 2.248593,-1.9796091 l 2.311756,0.3414601 0.627977,0.159179 c 1.974772,0.5006804 3.719917,1.6593512 4.94773,3.2849968 1.261153,1.66979019 0.847743,4.0579373 -0.901299,5.206604 z"
         fill="currentColor"
         id="path22"
         sodipodi:nodetypes="ccsccccccccccccccccsccccscccccccsccccccccccccccccsc" />
    </clipPath>
    <pattern
       patternUnits="userSpaceOnUse"
       width="10.559416"
       height="15.228486"
       patternTransform="translate(1.3437641,4.7386521)"
       preserveAspectRatio="xMidYMid"
       id="pattern62">
      <rect
         style="display:inline;fill-opacity:1"
         id="rect55"
         width="18.232449"
         height="17.864117"
         x="-1.3250014"
         y="-1.0805292"
         transform="matrix(0.55221365,0.55221365,-0.55221365,0.55221365,0.62620967,-1.1714222)"
         clip-path="url(#clipPath14)" />
    </pattern>
  </defs>
  <g
     inkscape:label="Layer 1"
     inkscape:groupmode="layer"
     id="layer1">
    <circle
       style="display:none;fill:#000000;fill-opacity:1;stroke-width:1.57813"
       id="path4"
       cx="12"
       cy="12"
       r="10.187856" />
    <path
       id="path7"
       style="display:none;fill:#ffffff;stroke-width:1.86786"
       d="M 4.1621094,4.1621094 C 2.16254,6.1616787 0.91601563,9.1721817 0.91601562,12 c 0,2.827817 1.24652438,5.838322 3.24609378,7.837891 1.9995694,1.99957 5.0100726,3.246093 7.8378906,3.246093 2.827818,0 5.838322,-1.246523 7.837891,-3.246093 1.99957,-1.999569 3.246093,-5.010074 3.246093,-7.837891 0,-2.8278183 -1.246523,-5.8383213 -3.246093,-7.8378906 L 12,12 Z"
       inkscape:label="Mask" />
    <path
       d="m 4.96875,3.4414063 7.75,7.7499997 7.072266,-7.0722654 C 17.791462,2.1456046 14.806768,0.91601563 12,0.91601563 c -2.4697501,0 -5.0780282,0.95240897 -7.03125,2.52539067 z"
       style="display:none;fill:#f70000;fill-opacity:1;stroke-width:1.71697"
       id="path12"
       inkscape:label="New masek" />
    <g
       id="g17"
       inkscape:label="Circle Save"
       style="display:none">
      <path
         id="path17"
         style="display:inline;stroke-width:1.71697"
         d="m 0.9158325,12 c 0,-2.8278183 1.2469082,-5.8381205 3.2464776,-7.8376898 1.9995694,-1.9995694 5.0098719,-3.24647755 7.8376909,-3.24647755 2.827818,0 5.83812,1.24690815 7.837688,3.24647755 1.99957,1.9995693 3.246478,5.0098715 3.246478,7.8376898 0,2.827817 -1.246908,5.83812 -3.246478,7.837689 -1.999569,1.99957 -5.009871,3.246478 -7.837689,3.246478 -2.827818,0 -5.8381205,-1.246908 -7.8376899,-3.246478 C 2.1627407,17.83812 0.9158325,14.827817 0.9158325,12 Z"
         sodipodi:nodetypes="aaaaaaaaa" />
      <ellipse
         style="fill:#ffffff;fill-opacity:1;stroke-width:3.37795"
         id="ellipse17"
         cx="12"
         cy="12"
         rx="9.468996"
         ry="9.4689951" />
    </g>
    <rect
       style="display:none;fill:#000000;fill-opacity:1;stroke-width:1.89495"
       id="rect25"
       width="20.750528"
       height="20.593994"
       x="16.955259"
       y="0.015303372"
       transform="rotate(45)"
       clip-path="url(#clipPath22)"
       inkscape:label="Apple save" />
    <g
       id="g26"
       style="display:none"
       inkscape:label="Logo-all">
      <path
         d="M 12,0.91601563 C 9.172181,0.91601563 6.1616788,2.16254 4.1621094,4.1621094 2.16254,6.1616787 0.91601563,9.1721817 0.91601563,12 c 0,2.827817 1.24652437,5.838322 3.24609377,7.837891 1.9995694,1.99957 5.0100726,3.246093 7.8378906,3.246093 2.827818,0 5.838322,-1.246523 7.837891,-3.246093 1.99957,-1.999569 3.246093,-5.010074 3.246093,-7.837891 0,-2.8278183 -1.246523,-5.8383213 -3.246093,-7.8378906 C 17.838323,2.16254 14.827818,0.91601563 12,0.91601563 Z M 12,2.53125 A 9.468996,9.4689951 0 0 1 21.46875,12 9.468996,9.4689951 0 0 1 12,21.46875 9.468996,9.4689951 0 0 1 2.53125,12 9.468996,9.4689951 0 0 1 12,2.53125 Z"
         style="display:inline;stroke-width:1.71697"
         id="path18" />
      <rect
         style="fill:#ffffff;fill-opacity:1;stroke-width:1.18549"
         id="rect18"
         width="10.625712"
         height="4.1076674"
         x="6.5449553"
         y="0.82153362" />
      <path
         d="m 13.375029,10.134432 0.0018,-5.7916981 c 1.41e-4,-0.414223 -0.335593,-0.750099 -0.749816,-0.75024 -0.414223,-1.42e-4 -0.750028,0.335522 -0.75017,0.749745 l -0.0018,5.7925471 C 10.726766,9.9777444 9.618588,9.4578804 8.735836,8.5751272 6.588494,6.4277866 6.5884727,2.9462397 8.735885,0.79882794 l 3.711392,-3.71139104 c 0.09758,-0.09758 0.255923,-0.09763 0.353553,0 l 3.711349,3.71134904 c 2.147413,2.14741296 2.147342,5.62899366 0,7.77633426 -0.882257,0.8822572 -1.989586,1.4019812 -3.13715,1.5593118 z M 5.988013,2.4585479 c -0.29519,1.1674749 -0.3751418,2.4105095 -0.226622,3.605531 0.064756,0.5210409 0.2402404,1.0332394 0.480614,1.5000343 0.4598659,0.8930395 0.9375,1.6657072 1.802033,2.4152932 l 1.247428,0.8639926 c 0.810458,0.439141 1.689356,0.706604 2.583083,0.802262 l -9.62e-4,3.294382 c -1.34e-4,0.414216 0.335572,0.75012 0.749802,0.750254 0.414152,7.1e-5 0.750078,-0.335571 0.750212,-0.749787 l 9.33e-4,-3.29492 c 1.533432,-0.164473 3.022882,-0.834386 4.198305,-2.0098096 2.733109,-2.7331078 2.73318,-7.1644755 0,-9.89765549 L 13.86149,-3.9732241 c -0.683418,-0.683418 -1.791455,-0.683418 -2.474873,0 L 7.675225,-0.26183209 C 7.262628,0.15076493 6.92057,0.59541348 6.624351,1.0802849 6.3605445,1.5121015 6.1120547,1.9679635 5.988013,2.4585479 Z"
         fill="currentColor"
         id="path1"
         sodipodi:nodetypes="ccsccsssssscaaacccccccsssssaa"
         clip-path="url(#clipPath13)"
         transform="translate(-0.71875,0.808594)" />
      <rect
         style="display:inline;fill:#ffffff;fill-opacity:1;stroke-width:1.15392"
         id="rect24"
         width="12.551985"
         height="12.209293"
         x="3.6322937"
         y="0.74999988"
         transform="rotate(45)" />
      <rect
         style="display:inline;fill:#000000;fill-opacity:1"
         id="rect13"
         width="18.232449"
         height="17.864117"
         x="-1.3250014"
         y="-1.0805292"
         transform="rotate(45,-1.3358716,-0.46407814)"
         clip-path="url(#clipPath14)" />
      <rect
         style="fill:#ffffff;fill-opacity:1;stroke-width:1.15392"
         id="rect23"
         width="12.635929"
         height="12.540608"
         x="17.682575"
         y="-13.300282"
         transform="rotate(45)" />
      <rect
         style="fill:#000000;fill-opacity:1"
         id="rect14"
         width="32.825222"
         height="25.395018"
         x="1.7763568e-15"
         y="16.970562"
         transform="rotate(-45)"
         clip-path="url(#clipPath15)" />
      <rect
         style="fill:#ffffff;fill-opacity:1;stroke-width:1.15392"
         id="rect21"
         width="12.635929"
         height="12.540608"
         x="16.955259"
         y="0.015303372"
         transform="rotate(45)" />
      <rect
         style="fill:#000000;fill-opacity:1;stroke-width:1.07225"
         id="rect19"
         width="1.4999998"
         height="20.624601"
         x="-0.74999988"
         y="-27.246578"
         transform="rotate(135)" />
      <rect
         style="fill:#000000;fill-opacity:1;stroke-width:1.07225"
         id="rect20"
         width="1.4999998"
         height="20.624601"
         x="16.184278"
         y="-10.312301"
         transform="rotate(45)" />
      <rect
         style="fill:#000000;fill-opacity:1;stroke-width:1.89495"
         id="rect22"
         width="20.750528"
         height="20.593994"
         x="16.955259"
         y="0.015303372"
         transform="rotate(45)"
         clip-path="url(#clipPath22)" />
    </g>
    <g
       id="g34"
       style="display:none"
       inkscape:label="Logo-condensed">
      <path
         id="path49"
         style="display:inline;stroke-width:1.71697"
         d="m 11.90625,-3.6757812 c -0.447798,0 -0.896572,0.1700097 -1.238281,0.5117187 L 6.9570312,0.546875 C 6.5444343,0.95947202 6.202469,1.4038005 5.90625,1.8886719 5.6562414,2.2979031 5.4206597,2.7298351 5.2910156,3.1914062 4.8879399,3.4903092 4.5098017,3.814417 4.1621094,4.1621094 3.9861306,4.3380882 3.8182739,4.5240183 3.6542969,4.7148438 L 10.248047,11.308594 H 7.7089844 L 4.5136719,8.1152344 c -0.29289,-0.2929 -0.7676468,-0.2929 -1.0605469,0 -0.29289,0.29289 -0.2928901,0.7676469 0,1.0605468 L 5.5859375,11.308594 H 2.4316406 c -0.4142103,0 -0.7500003,0.3358 -0.75,0.75 -3e-7,0.4142 0.3357907,0.75 0.75,0.75 H 5.5859375 L 3.453125,14.941406 c -0.29289,0.292899 -0.2928899,0.767647 0,1.060547 0.2929006,0.292901 0.7676569,0.2929 1.0605469,0 l 3.1953125,-3.193359 h 2.3710936 l -6.4492186,6.449218 c 0.1722493,0.150487 0.3996763,0.478353 0.4960937,0.59375 1.1414692,1.575939 3.1359596,2.439862 5.1835938,2.015626 l 1.9023441,-0.392579 0.0039,-0.002 c -0.0304,0.77985 -0.151326,1.622064 -0.390625,2.339844 -0.2893,0.867961 -0.693325,1.389801 -1.1406251,1.576172 -0.3824006,0.15932 -0.5635989,0.598116 -0.4042969,0.980469 0.1593005,0.38236 0.6000215,0.563607 0.982422,0.404297 1.052698,-0.438622 1.648775,-1.479279 1.984375,-2.486329 0.0157,-0.04703 0.03209,-0.09499 0.04687,-0.142578 0.239799,0.464429 0.554059,0.899784 0.943359,1.289063 1.09251,1.092561 2.552258,1.596357 3.980469,1.511718 0.693089,-0.04107 1.242253,-0.592065 1.283203,-1.285156 0.08191,-1.386079 -0.389176,-2.801952 -1.416015,-3.882812 1.102195,-0.316783 2.06865,-1.000388 2.740234,-1.929688 0.185393,-0.237762 0.273269,-0.347806 0.425781,-0.671875 l -1.044922,-1.042969 -0.0059,0.0078 -1.470703,-1.470703 c 1.61911,-0.827532 2.728515,-2.510101 2.728515,-4.453125 0,-2.073837 -1.265585,-3.8473681 -3.064453,-4.6035158 C 18.061403,6.9459632 16.844482,8.1633338 20.320312,4.6875 20.163854,4.5067573 20.00518,4.329399 19.837891,4.1621094 19.414731,3.7389492 18.944392,3.3522507 18.441406,3.0019531 18.100625,2.107624 17.574223,1.2675826 16.853516,0.546875 l -3.710938,-3.7109375 c -0.341709,-0.341709 -0.78853,-0.5117187 -1.236328,-0.5117187 z m -0.002,1.5 c 0.06398,-6.6e-6 0.128919,0.023451 0.177734,0.072266 l 3.710938,3.7109375 c 1.071278,1.0712786 1.606986,2.4748392 1.609375,3.8789062 l -4.746094,4.7460939 0.002,-5.0820314 c 1.41e-4,-0.414223 -0.335777,-0.749859 -0.75,-0.75 -0.414223,-1.42e-4 -0.749858,0.335777 -0.75,0.75 l -0.002,4.9453124 -4.7441406,-4.7441405 c 0.00916,-0.3506059 0.051429,-0.7008437 0.1269531,-1.0449219 0.0019,-0.00136 0.00396,-0.00255 0.00586,-0.00391 V 4.2832031 C 6.7648079,3.3025378 7.2543333,2.3706665 8.0175781,1.6074219 l 3.7109379,-3.7109375 c 0.04879,-0.04879 0.111803,-0.072259 0.175781,-0.072266 z m 10.804687,6.3925781 c -0.191925,10e-8 -0.3848,0.072305 -0.53125,0.21875 l -1.5,1.5 c -0.2929,0.2928999 -0.292901,0.7676563 0,1.0605469 0.292899,0.2928999 0.767646,0.2929004 1.060547,0 l 1.5,-1.5 c 0.2929,-0.2928902 0.2929,-0.767647 0,-1.0605469 -0.14645,-0.146445 -0.337371,-0.2187502 -0.529297,-0.21875 z m -6.5,4.5820312 c 1.572114,0.343693 2.75,1.7427459 2.75,3.4179689 0,1.5386 -0.994763,2.838669 -2.375,3.306641 l -3.548828,-3.548829 c 1.065414,-1.064154 2.936121,-2.9374375 3.173828,-3.1757809 z m 6.960938,2.6679689 c -0.396266,0.02009 -0.710938,0.348745 -0.710938,0.75 0,0.414201 0.335799,0.75 0.75,0.75 h 1.5 c 0.414199,0 0.75,-0.3358 0.75,-0.75 0,-0.414201 -0.335801,-0.75 -0.75,-0.75 h -1.5 c -0.01294,0 -0.02628,-6.48e-4 -0.03906,0 z m -11.195313,1.568359 6.316407,6.316406 c -0.831055,0.868197 -2.076083,1.310736 -3.34961,1.046876 l -0.203125,-0.04102 c -0.24,-0.06799 -0.482785,-0.119545 -0.728515,-0.152344 l -0.970704,-0.199219 c -0.702598,-0.145569 -1.426307,-0.14557 -2.128906,0 L 9.0078125,20.398438 C 7.7339162,20.662375 6.4890299,20.220425 5.6582031,19.351562 Z"
         inkscape:label="Logo" />
    </g>
    <g
       id="g61"
       style="display:none"
       inkscape:label="Logo-condensed-small"
       transform="matrix(0.78094803,0,0,0.78094803,2.5318038,2.935694)">
      <path
         id="path93"
         style="display:inline;stroke-width:1.71697"
         d="m 11.906393,-3.6766094 c -0.447509,0 -0.896269,0.1709892 -1.237978,0.5126982 L 6.9569802,0.54752331 C 6.5443832,0.96012033 6.2027932,1.40317 5.9065742,1.8880414 5.7309102,2.1755803 5.5641688,2.4739421 5.4338915,2.7858885 5.024503,3.0883971 4.6387024,3.4160137 4.2859477,3.7687684 4.115035,3.9396811 3.9503263,4.1215354 3.7907563,4.3064762 L 10.375802,10.891521 H 8.992767 L 5.8915684,7.7052899 c -0.2928899,-0.2929 -0.7675099,-0.2929 -1.0604099,0 -0.2928899,0.2928901 -0.2928899,0.7700109 0,1.0629109 L 6.8719473,10.891521 H 3.5706713 L 0.37443586,7.6952861 C 0.22799086,7.5488361 0.03861043,7.475201 -0.15326811,7.475201 c -0.1918785,0 -0.38375493,0.073635 -0.53020493,0.2200851 -0.29289,0.2928901 -0.29289,0.7700108 0,1.0629108 L 1.4498515,10.891521 h -3.1562199 c -0.414211,0 -0.74779,0.33609 -0.747789,0.75029 0,0.4142 0.333579,0.74779 0.747789,0.74779 h 3.1562199 l -2.13332454,2.133324 c -0.29289,0.2929 -0.29289,0.770011 0,1.062911 0.292901,0.2929 0.76501894,0.292899 1.0579089,0 L 3.5706713,12.389601 h 3.301276 L 4.8261565,14.43289 c -0.29289,0.2929 -0.29289,0.770011 0,1.062911 0.292901,0.2929 0.76752,0.292899 1.0604099,0 l 3.1062006,-3.1062 h 1.265489 l -6.4900084,6.490008 c 0.00667,0.467165 0.248971,0.814021 0.3576383,0.972876 1.0983842,1.605667 3.1373507,2.439916 5.1845039,2.015779 l 1.9032352,-0.395152 h 0.0025 c -0.0304,0.779849 -0.150851,1.620623 -0.39015,2.338403 -0.2893,0.867961 -0.693141,1.389239 -1.1404412,1.575609 -0.3824012,0.159321 -0.5619576,0.598026 -0.4026556,0.980379 0.1593012,0.38236 0.5979784,0.564465 0.9803788,0.405157 1.052698,-0.438621 1.650168,-1.478911 1.985768,-2.485961 0.0157,-0.04703 0.03022,-0.09497 0.04502,-0.142555 0.239799,0.464429 0.553565,0.90122 0.942864,1.290499 1.092511,1.092561 2.553328,1.595223 3.981539,1.510584 0.693089,-0.04107 1.244547,-0.592406 1.285497,-1.285497 0.08191,-1.386079 -0.391208,-2.800641 -1.418048,-3.881501 1.10237,-0.316833 2.085809,-0.989626 2.74106,-1.930746 0.207579,-0.298141 0.44743,-0.664543 0.652752,-0.967874 l -2.35341,-2.35341 c 1.478682,-0.867855 2.473456,-2.470688 2.473456,-4.309165 0,-2.17787 -1.395259,-4.02624 -3.33879,-4.7118214 L 20.457198,4.3089772 C 20.296917,4.1230822 20.133742,3.9405036 19.962007,3.7687684 19.423856,3.2306178 18.808225,2.7518913 18.146305,2.3332135 17.820141,1.6900091 17.391041,1.085259 16.853305,0.54752331 L 13.141871,-3.1639112 c -0.341709,-0.341709 -0.787968,-0.5126982 -1.235478,-0.5126982 z m -0.0025,1.50058 c 0.06376,-6.3e-6 0.128754,0.023713 0.177569,0.072528 l 3.711434,3.7114346 c 1.012525,1.0125242 1.54069,2.3205781 1.598118,3.6464094 l -4.73433,4.7368309 0.0025,-4.8393705 c 1.41e-4,-0.414223 -0.336067,-0.750149 -0.75029,-0.75029 -0.414223,-1.42e-4 -0.750148,0.336067 -0.75029,0.75029 L 11.156103,9.5510033 6.4492839,4.846685 v -0.0025 C 6.4842391,4.5465517 6.5434726,4.2509577 6.6268526,3.9613428 v -0.0025 C 6.8751226,3.0978958 7.3383084,2.2870147 8.01739,1.6079332 l 3.711435,-3.7114346 c 0.04879,-0.04879 0.111308,-0.072522 0.175068,-0.072528 z m 11.328086,6.0086277 c -0.191925,2e-7 -0.383755,0.07364 -0.530205,0.2200851 l -1.881935,1.8844231 c -0.2929,0.2928999 -0.292901,0.7675192 0,1.0604099 0.2929,0.2928998 0.767509,0.2928993 1.06041,0 l 1.884436,-1.8844231 c 0.2929,-0.29289 0.2929,-0.76751 0,-1.0604099 -0.14645,-0.146445 -0.340781,-0.2200852 -0.532706,-0.2200851 z m -7.208994,4.9105928 c 1.733032,0.209327 3.076189,1.6842629 3.076189,3.4738429 0,1.429414 -0.857717,2.653985 -2.085806,3.196235 l -3.82898,-3.831481 z m 7.287817,2.7235529 c -0.396135,0.02011 -0.710273,0.349035 -0.710274,0.75029 1e-6,0.414201 0.333589,0.75029 0.747789,0.75029 h 2.603505 c 0.414199,0 0.750289,-0.33609 0.75029,-0.75029 0,-0.4142 -0.33609,-0.75029 -0.75029,-0.75029 h -2.603505 c -0.01294,0 -0.02474,-6.49e-4 -0.03751,0 z m -11.189325,1.175454 6.422483,6.422483 c -0.816529,1.057633 -2.192658,1.627391 -3.601392,1.335516 l -0.202579,-0.04252 c -0.24,-0.06799 -0.484552,-0.11976 -0.730282,-0.152559 l -0.970375,-0.200077 c -0.702599,-0.145569 -1.428224,-0.14557 -2.130823,0 L 9.0077728,20.400197 C 7.6731923,20.676706 6.3671209,20.179702 5.5389321,19.227243 Z m 9.228567,4.574268 c -0.191924,0 -0.383755,0.07363 -0.530205,0.220085 -0.2929,0.2929 -0.2929,0.76751 0,1.06041 l 2.056009,2.059441 c 0.292655,0.293144 0.770011,0.2929 1.062911,0 0.2929,-0.2929 0.2929,-0.76751 0,-1.06041 l -2.05851,-2.059441 c -0.146416,-0.146483 -0.33828,-0.220085 -0.530205,-0.220085 z m -8.130642,4.444218 c 0.1814,-0.005 0.36251,0.0034 0.542709,0.02501 l 0.615238,0.127549 c 0.56829,0.16945 1.104341,0.479099 1.553101,0.927859 0.74651,0.74651 1.107007,1.731477 1.080417,2.711047 -0.97978,0.02676 -1.966869,-0.331246 -2.713549,-1.077916 -0.746509,-0.746511 -1.104516,-1.73399 -1.077916,-2.713549 z"
         sodipodi:nodetypes="sssscsccccsccccssccsssccccccccccccscccccsccccsccsccsccscsssssscccsccccccsssscccscsscsccccssssssccsccccccccscccsscscccscccc" />
    </g>
    <g
       id="g99"
       style="display:inline"
       inkscape:label="Logo-color"
       transform="matrix(0.78094803,0,0,0.78094803,2.5318038,2.935694)">
      <path
         id="path104"
         style="display:none;fill:#000000;fill-opacity:1;stroke-width:3.16312"
         d="m 7.7662021,5.9671181 a 5.6395216,5.6395216 0 0 0 -5.6396798,5.6396799 5.6395216,5.6395216 0 0 0 5.6396798,5.63968 5.6395216,5.6395216 0 0 0 5.6396799,-5.63968 5.6395216,5.6395216 0 0 0 -5.6396799,-5.6396799 z m 0,1.4955781 A 4.1447082,4.1447082 0 0 1 11.910304,11.606798 4.1447082,4.1447082 0 0 1 7.7662021,15.7509 4.1447082,4.1447082 0 0 1 3.6221003,11.606798 4.1447082,4.1447082 0 0 1 7.7662021,7.4626962 Z" />
      <path
         id="rect103"
         style="display:inline;fill:#1263e0;stroke-width:1.28049"
         d="M 4.5419484,11.363177 C 5.3790349,9.2717143 6.8016266,8.195127 8.8097237,8.1334158 L 11.590522,11.874541 7.1906737,15.881673 C 5.2733728,14.961013 4.390464,13.454848 4.5419484,11.363177 Z"
         sodipodi:nodetypes="ccccc" />
      <path
         id="path103"
         style="display:inline;fill:#000000;fill-opacity:1;stroke-width:1.71697"
         d="m 12.672006,12.029274 -5.5409401,5.289631 c 0,0 -0.5804699,-0.482981 -1.0094103,-0.792706 -1.478682,-0.867855 -2.473456,-2.470688 -2.473456,-4.309165 0,-2.17787 1.395259,-4.02624 3.33879,-4.7118214 C 9.3512796,6.4915996 9.765471,7.0417385 9.765471,7.0417385 Z M 8.2249696,8.7431911 c -1.733032,0.209327 -3.076189,1.6842629 -3.076189,3.4738429 0,1.429414 0.857717,2.653985 2.085806,3.196235 l 3.8289804,-3.831481 z"
         sodipodi:nodetypes="cccccccsssss" />
      <path
         id="rect99"
         style="fill:#e06f12"
         d="m -7.8444656,17.542325 7.27132286,-0.0014 0,7.093166 C -0.90157258,25.708434 -2.4823568,24.925818 -5.3155782,22.286141 -8.1539979,19.983108 -8.9970029,18.40182 -7.8444656,17.542325 Z"
         sodipodi:nodetypes="ccccc"
         transform="matrix(0.90544665,-0.90544665,0.90544665,0.90544665,-3.241962,-3.7591413)" />
      <path
         id="rect100"
         style="fill:#12de52;fill-opacity:1"
         d="m 12.427982,19.500076 2.892733,0.862625 0.801877,2.745943 -2.686189,-0.498136 z"
         sodipodi:nodetypes="ccccc"
         transform="matrix(1.2804949,0,0,1.2804949,-3.241962,-3.7591413)" />
      <path
         id="rect101"
         style="fill:#12e0ac;stroke-width:1.28049"
         d="M 5.4789524,4.3799714 C 10.213467,-2.2624317 11.35512,-2.4034655 12.462356,-2.4822218 l 6.099727,7.3873635 -7.116006,6.1991793 z"
         sodipodi:nodetypes="ccccc" />
      <path
         id="rect102"
         style="fill:#e0cb12"
         d="m 11.641582,11.931413 3.888579,-2.9466239 c 1.827462,1.3136509 2.304743,2.8523319 2.608487,4.4199369 l -2.125435,2.27035 z"
         sodipodi:nodetypes="ccccc"
         transform="matrix(1.2804949,0,0,1.2804949,-3.241962,-3.7591413)" />
      <path
         id="path99"
         style="display:none;stroke-width:1.71697"
         d="m 11.906393,-3.6766094 c -0.447509,0 -0.896269,0.1709892 -1.237978,0.5126982 L 6.9569802,0.54752331 C 6.5443832,0.96012033 6.2027932,1.40317 5.9065742,1.8880414 5.7309102,2.1755803 5.5641688,2.4739421 5.4338915,2.7858885 5.0458674,3.0726103 4.8846157,3.1977142 4.6300907,3.4385084 4.2295219,3.8174678 4.2082503,4.7239702 4.5987746,5.1144944 L 10.375802,10.891521 H 8.992767 L 5.9757183,7.8090891 c -0.2897387,-0.2960177 -0.7675099,-0.2929 -1.0604099,0 -0.2928899,0.2928901 -0.2928899,0.7700109 0,1.0629109 l 1.9566389,2.019521 H 3.5706713 L 0.37443586,7.6952861 C 0.22799086,7.5488361 0.03861043,7.475201 -0.15326811,7.475201 c -0.1918785,0 -0.38375493,0.073635 -0.53020493,0.2200851 -0.29289,0.2928901 -0.29289,0.7700108 0,1.0629108 L 1.4498515,10.891521 h -3.1562199 c -0.414211,0 -0.74779,0.33609 -0.747789,0.75029 0,0.4142 0.333579,0.74779 0.747789,0.74779 h 3.1562199 l -2.13332454,2.133324 c -0.29289,0.2929 -0.29289,0.770011 0,1.062911 0.292901,0.2929 0.76501894,0.292899 1.0579089,0 L 3.5706713,12.389601 h 3.301276 l -2.5906154,2.589445 c -0.29289,0.2929 -0.29289,0.770011 0,1.062911 0.292901,0.2929 0.76752,0.292899 1.0604099,0 L 8.992767,12.389601 h 1.265489 l -5.9247346,5.924734 c -0.5128737,0.512874 -0.460861,1.211883 -0.029244,1.781297 0.8518524,1.123811 2.6736673,2.255877 5.006112,1.772632 l 1.9032356,-0.395152 c 0.0066,0.796893 -0.191661,1.570685 -0.38765,2.338403 -0.2893,0.867961 -0.693141,1.389239 -1.1404416,1.575609 -0.3824012,0.159321 -0.5619576,0.598026 -0.4026556,0.980379 0.1593012,0.38236 0.5979784,0.564465 0.9803792,0.405157 1.096074,-0.456694 1.699028,-1.561841 2.030788,-2.628516 0.239799,0.464429 0.553565,0.90122 0.942864,1.290499 1.092511,1.092561 2.553328,1.595223 3.981539,1.510584 0.693089,-0.04107 1.244547,-0.592406 1.285497,-1.285497 0.08191,-1.386079 -0.391208,-2.800641 -1.418048,-3.881501 1.252367,-0.325114 1.976516,-0.918671 2.672901,-1.892048 0.398268,-0.556682 0.241297,-1.486185 -0.149228,-1.87671 l -1.483271,-1.483272 c 1.478682,-0.867855 2.473456,-2.470688 2.473456,-4.309165 0,-2.17787 -1.395259,-4.02624 -3.33879,-4.7118214 L 19.750091,5.0160842 C 20.140616,4.6255598 20.090441,3.8861675 19.689397,3.5067941 19.307819,3.1458356 18.8603,2.7848298 18.146305,2.3332135 17.820141,1.6900091 17.391041,1.085259 16.853305,0.54752331 L 13.141871,-3.1639112 c -0.341709,-0.341709 -0.787968,-0.5126982 -1.235478,-0.5126982 z m 0.175069,1.573108 3.711434,3.7114346 c 1.012525,1.0125242 1.54069,2.3205781 1.598118,3.6464094 l -4.73433,4.7368309 0.0025,-4.8393705 c 1.41e-4,-0.414223 -0.336067,-0.750149 -0.75029,-0.75029 -0.414223,-1.42e-4 -0.750148,0.336067 -0.75029,0.75029 L 11.156103,9.5510033 6.4492839,4.846685 v -0.0025 C 6.4842391,4.5465517 6.6268125,3.9588428 6.6268125,3.9588428 6.8750825,3.0978958 7.3383084,2.2870147 8.01739,1.6079332 l 3.004328,-3.0043279 c 0.390524,-0.3905242 0.777518,-0.7796245 0.882175,-0.7796347 z m 11.150517,5.9360997 c -0.191925,2e-7 -0.383755,0.07364 -0.530205,0.2200851 l -1.881935,1.8844231 c -0.2929,0.2928999 -0.292901,0.7675192 0,1.0604099 0.2929,0.2928998 0.767509,0.2928993 1.06041,0 l 1.884436,-1.8844231 c 0.2929,-0.29289 0.2929,-0.76751 0,-1.0604099 -0.14645,-0.146445 -0.340781,-0.2200852 -0.532706,-0.2200851 z m -7.208994,4.9105928 c 1.733032,0.209327 3.076189,1.6842629 3.076189,3.4738429 0,1.429414 -0.857717,2.653985 -2.085806,3.196235 l -3.82898,-3.831481 z m 6.577543,3.4738429 c 1e-6,0.414201 0.333589,0.75029 0.747789,0.75029 h 2.603505 c 0.414199,0 0.750289,-0.33609 0.75029,-0.75029 0,-0.4142 -0.33609,-0.75029 -0.75029,-0.75029 h -2.603505 c -0.352859,0 -0.747788,0.279787 -0.747789,0.75029 z m -10.479051,0.425164 6.422483,6.422483 c -0.62192,0.80556 -1.56848,1.328088 -2.606822,1.402436 -0.549122,0.03932 -1.085267,-0.08596 -1.197149,-0.10944 l -0.730282,-0.152559 -0.970375,-0.200077 c -0.702599,-0.145569 -1.428224,-0.14557 -2.130823,0 L 9.0077728,20.400197 C 7.6731923,20.676706 6.3671209,20.179702 5.5389321,19.227243 Z m 9.228567,4.574268 c -0.191924,0 -0.383755,0.07363 -0.530205,0.220085 -0.2929,0.2929 -0.2929,0.76751 0,1.06041 l 2.056009,2.059441 c 0.292655,0.293144 0.770011,0.2929 1.062911,0 0.2929,-0.2929 0.2929,-0.76751 0,-1.06041 l -2.05851,-2.059441 c -0.146416,-0.146483 -0.33828,-0.220085 -0.530205,-0.220085 z m -8.130642,4.444218 c 0.544031,0.03502 1.030922,0.103075 1.157947,0.152559 0.56192,0.2189 1.161957,0.468862 1.553101,0.927859 0.630966,0.740421 1.107007,1.731477 1.080417,2.711047 -0.97978,0.02676 -1.966869,-0.331246 -2.713549,-1.077916 -0.746509,-0.746511 -1.104516,-1.73399 -1.077916,-2.713549 z"
         sodipodi:nodetypes="cssscccccsccccssccsssccccccccccccccccscccsccccscccsssssscccscccccsssscccccsscsccssssscssscccsccccscccsccsccaacccsccc" />
      <path
         id="path105"
         style="display:none;stroke-width:1.71697"
         d="m 11.906393,-3.6766094 c -0.447509,0 -0.896269,0.1709892 -1.237978,0.5126982 L 6.9569802,0.54752331 C 6.5443832,0.96012033 6.2027932,1.40317 5.9065742,1.8880414 5.7309102,2.1755803 5.5641688,2.4739421 5.4338915,2.7858885 5.0458674,3.0726103 4.8846157,3.1977142 4.6300907,3.4385084 4.2295219,3.8174678 4.2082503,4.7239702 4.5987746,5.1144944 L 10.375802,10.891521 H 8.992767 6.8719473 3.5706713 L 0.37443586,7.6952861 C 0.22799086,7.5488361 0.03861043,7.475201 -0.15326811,7.475201 c -0.1918785,0 -0.38375493,0.073635 -0.53020493,0.2200851 -0.29289,0.2928901 -0.29289,0.7700108 0,1.0629108 L 1.4498515,10.891521 h -3.1562199 c -0.414211,0 -0.74779,0.33609 -0.747789,0.75029 0,0.4142 0.333579,0.74779 0.747789,0.74779 h 3.1562199 l -2.13332454,2.133324 c -0.29289,0.2929 -0.29289,0.770011 0,1.062911 0.292901,0.2929 0.76501894,0.292899 1.0579089,0 L 3.5706713,12.389601 h 3.301276 2.1208197 1.265489 l -5.9247346,5.924734 c -0.5128737,0.512874 -0.460861,1.211883 -0.029244,1.781297 0.8518524,1.123811 2.6736673,2.255877 5.006112,1.772632 l 1.9032356,-0.395152 c 0.0066,0.796893 -0.191661,1.570685 -0.38765,2.338403 -0.2893,0.867961 -0.693141,1.389239 -1.1404416,1.575609 -0.3824012,0.159321 -0.5619576,0.598026 -0.4026556,0.980379 0.1593012,0.38236 0.5979784,0.564465 0.9803792,0.405157 1.096074,-0.456694 1.699028,-1.561841 2.030788,-2.628516 0.239799,0.464429 0.553565,0.90122 0.942864,1.290499 1.092511,1.092561 2.553328,1.595223 3.981539,1.510584 0.693089,-0.04107 1.244547,-0.592406 1.285497,-1.285497 0.08191,-1.386079 -0.391208,-2.800641 -1.418048,-3.881501 1.252367,-0.325114 1.976516,-0.918671 2.672901,-1.892048 0.398268,-0.556682 0.241297,-1.486185 -0.149228,-1.87671 l -1.483271,-1.483272 c 1.478682,-0.867855 2.473456,-2.470688 2.473456,-4.309165 0,-2.17787 -1.395259,-4.02624 -3.33879,-4.7118214 L 19.750091,5.0160842 C 20.140616,4.6255598 20.090441,3.8861675 19.689397,3.5067941 19.307819,3.1458356 18.8603,2.7848298 18.146305,2.3332135 17.820141,1.6900091 17.391041,1.085259 16.853305,0.54752331 L 13.141871,-3.1639112 c -0.341709,-0.341709 -0.787968,-0.5126982 -1.235478,-0.5126982 z m 0.175069,1.573108 3.711434,3.7114346 c 1.012525,1.0125242 1.54069,2.3205781 1.598118,3.6464094 l -4.73433,4.7368309 0.0025,-4.8393705 c 1.41e-4,-0.414223 -0.336067,-0.750149 -0.75029,-0.75029 -0.414223,-1.42e-4 -0.750148,0.336067 -0.75029,0.75029 L 11.156103,9.5510033 6.4492839,4.846685 v -0.0025 C 6.4842391,4.5465517 6.6268125,3.9588428 6.6268125,3.9588428 6.8750825,3.0978958 7.3383084,2.2870147 8.01739,1.6079332 l 3.004328,-3.0043279 c 0.390524,-0.3905242 0.777518,-0.7796245 0.882175,-0.7796347 z m 11.150517,5.9360997 c -0.191925,2e-7 -0.383755,0.07364 -0.530205,0.2200851 l -1.881935,1.8844231 c -0.2929,0.2928999 -0.292901,0.7675192 0,1.0604099 0.2929,0.2928998 0.767509,0.2928993 1.06041,0 l 1.884436,-1.8844231 c 0.2929,-0.29289 0.2929,-0.76751 0,-1.0604099 -0.14645,-0.146445 -0.340781,-0.2200852 -0.532706,-0.2200851 z m -7.208994,4.9105928 c 1.733032,0.209327 3.076189,1.6842629 3.076189,3.4738429 0,1.429414 -0.857717,2.653985 -2.085806,3.196235 l -3.82898,-3.831481 z m 6.577543,3.4738429 c 1e-6,0.414201 0.333589,0.75029 0.747789,0.75029 h 2.603505 c 0.414199,0 0.750289,-0.33609 0.75029,-0.75029 0,-0.4142 -0.33609,-0.75029 -0.75029,-0.75029 h -2.603505 c -0.352859,0 -0.747788,0.279787 -0.747789,0.75029 z m -10.479051,0.425164 6.422483,6.422483 c -0.62192,0.80556 -1.56848,1.328088 -2.606822,1.402436 -0.549122,0.03932 -1.085267,-0.08596 -1.197149,-0.10944 l -0.730282,-0.152559 -0.970375,-0.200077 c -0.702599,-0.145569 -1.428224,-0.14557 -2.130823,0 L 9.0077728,20.400197 C 7.6731923,20.676706 6.3671209,20.179702 5.5389321,19.227243 Z m 9.228567,4.574268 c -0.191924,0 -0.383755,0.07363 -0.530205,0.220085 -0.2929,0.2929 -0.2929,0.76751 0,1.06041 l 2.056009,2.059441 c 0.292655,0.293144 0.770011,0.2929 1.062911,0 0.2929,-0.2929 0.2929,-0.76751 0,-1.06041 l -2.05851,-2.059441 c -0.146416,-0.146483 -0.33828,-0.220085 -0.530205,-0.220085 z m -8.130642,4.444218 c 0.544031,0.03502 1.030922,0.103075 1.157947,0.152559 0.56192,0.2189 1.161957,0.468862 1.553101,0.927859 0.630966,0.740421 1.107007,1.731477 1.080417,2.711047 -0.97978,0.02676 -1.966869,-0.331246 -2.713549,-1.077916 -0.746509,-0.746511 -1.104516,-1.73399 -1.077916,-2.713549 z"
         sodipodi:nodetypes="cssscccccccssccssscccccccccccccscccsccccscccsssssscccscccccsssscccccsscsccssssscssscccsccccscccsccsccaacccsccc" />
      <path
         id="path106"
         style="display:inline;stroke-width:1.71697"
         d="m 11.906393,-3.6766094 c -0.447509,0 -0.896269,0.1709892 -1.237978,0.5126982 L 6.9569802,0.54752331 C 6.5443832,0.96012033 6.2027932,1.40317 5.9065742,1.8880414 5.7309102,2.1755803 5.5641688,2.4739421 5.4338915,2.7858885 5.0458674,3.0726103 4.8856061,3.1978466 4.6310811,3.4386408 4.2305123,3.8176002 4.2080443,4.7237643 4.5985686,5.1142885 L 6.9869918,7.5052126 C 6.6722628,7.6162334 6.3715217,7.7569081 6.0891447,7.925375 L 5.9766012,7.8103305 c -0.2897387,-0.2960177 -0.7675098,-0.2929 -1.0604098,0 -0.2928899,0.2928901 -0.2926388,0.7702721 0,1.0629109 l 0.010004,0.010004 c -0.51,0.5672919 -0.8897883,1.2516706 -1.0979244,2.0082756 H 3.5706713 L 0.37443586,7.6952861 C 0.22799086,7.5488361 0.03861044,7.475201 -0.15326811,7.475201 c -0.1918785,0 -0.38375493,0.073635 -0.53020493,0.2200851 -0.29289,0.2928901 -0.29289,0.7700108 0,1.0629108 L 1.4498515,10.891521 h -3.1562199 c -0.414211,0 -0.74779,0.33609 -0.747789,0.75029 0,0.4142 0.333579,0.74779 0.747789,0.74779 h 3.1562199 l -2.13332454,2.133324 c -0.29289,0.2929 -0.29289,0.770011 0,1.062911 0.292901,0.2929 0.76501895,0.292899 1.0579089,0 L 3.5706713,12.389601 h 0.085033 c 0.030797,0.903619 0.3008503,1.74413 0.75029,2.463452 L 4.280946,14.978101 c -0.29289,0.2929 -0.29289,0.770011 0,1.062911 0.292901,0.2929 0.76752,0.292899 1.0604099,0 l 0.045017,-0.04252 c 0.2282897,0.196545 0.4739426,0.37432 0.7352842,0.527704 l -1.7881912,1.788192 c -0.5128737,0.512874 -0.4616286,1.211274 -0.030012,1.780688 0.8518524,1.123811 2.6744906,2.25643 5.0069353,1.773185 l 1.9032348,-0.395152 c 0.0066,0.796893 -0.19166,1.570685 -0.387649,2.338403 -0.2893,0.867961 -0.693141,1.389239 -1.1404408,1.575609 -0.3824012,0.159321 -0.5619576,0.598026 -0.4026556,0.980379 0.1593012,0.38236 0.5979782,0.564465 0.9803784,0.405157 1.096074,-0.456694 1.699025,-1.561841 2.030785,-2.628516 0.239799,0.464429 0.553565,0.90122 0.942864,1.290499 1.092511,1.092561 2.553328,1.595223 3.981539,1.510584 0.693089,-0.04107 1.244547,-0.592406 1.285497,-1.285497 0.08191,-1.386079 -0.391208,-2.800641 -1.418048,-3.881501 1.252367,-0.325114 1.977149,-0.919854 2.673534,-1.893231 0.398268,-0.556682 0.240467,-1.4852 -0.150058,-1.875725 l -1.483074,-1.483074 c 1.478682,-0.867855 2.473456,-2.470688 2.473456,-4.309165 0,-2.17787 -1.395259,-4.02624 -3.33879,-4.7118214 L 19.749425,5.0167508 C 20.13995,4.6262264 20.090446,3.8855403 19.689402,3.5061669 19.307824,3.1452084 18.8603,2.7848298 18.146305,2.3332135 17.820141,1.6900091 17.391041,1.085259 16.853305,0.54752331 L 13.141871,-3.1639112 c -0.341709,-0.341709 -0.787968,-0.5126982 -1.235478,-0.5126982 z m -0.0025,1.50058 0.177569,0.072528 3.711434,3.7114346 c 1.012525,1.0125242 1.54069,2.3205781 1.598118,3.6464094 l -4.73433,4.7368309 0.0025,-4.8393705 c 1.41e-4,-0.414223 -0.336067,-0.750149 -0.75029,-0.75029 -0.414223,-1.42e-4 -0.750148,0.336067 -0.75029,0.75029 L 11.156103,9.5510033 6.4492839,4.846685 v -0.0025 C 6.4842391,4.5465508 6.6268526,3.9588419 6.6268526,3.9588419 6.8751226,3.0978949 7.3383084,2.2870147 8.01739,1.6079332 l 3.003661,-3.003661 c 0.390524,-0.3905242 0.778184,-0.7802914 0.882841,-0.7803016 z M 23.23077,3.8337935 c -0.191925,2e-7 -0.383755,0.07364 -0.530205,0.2200851 l -1.880727,1.8832279 c -0.2929,0.2928999 -0.292901,0.7675192 0,1.0604099 0.2929,0.2928998 0.767509,0.2928993 1.06041,0 l 1.883228,-1.8832279 c 0.2929,-0.29289 0.2929,-0.76751 0,-1.0604099 -0.14645,-0.146445 -0.340781,-0.2200852 -0.532706,-0.2200851 z m -15.0057997,4.9093976 0.0025,0.0025 2.1458297,2.1458289 0.687765,0.687766 -0.810313,0.810314 h 0.005 L 7.2345875,15.413269 C 6.9505424,15.287852 6.6794911,15.135931 6.4492839,14.933084 6.071932,14.600581 5.731052,14.20512 5.5064195,13.755128 5.2965453,13.3347 5.1756238,12.859103 5.1562842,12.389601 5.1354363,11.883482 5.2348709,11.36632 5.4113828,10.891521 5.5372774,10.552877 5.7303176,10.232572 5.9715993,9.9636629 6.3104456,9.5860172 6.7284897,9.2681835 7.1820672,9.0408061 7.5052458,8.8787973 7.8563146,8.7877198 8.2249703,8.7431911 Z m 7.7980137,0 c 1.733032,0.209327 3.076189,1.6842629 3.076189,3.4738429 0,1.429414 -0.857717,2.653985 -2.085806,3.196235 l -3.82898,-3.831481 z m 7.325332,2.7235529 c -0.352859,0 -0.747788,0.279787 -0.747789,0.75029 1e-6,0.414201 0.333589,0.75029 0.747789,0.75029 h 2.603506 c 0.414199,0 0.750289,-0.33609 0.75029,-0.75029 0,-0.4142 -0.33609,-0.75029 -0.75029,-0.75029 z m -11.22684,1.175454 6.422483,6.422483 c -0.62192,0.80556 -1.567666,1.328694 -2.606008,1.403042 -0.549122,0.03932 -1.086081,-0.08656 -1.197963,-0.110043 l -0.730282,-0.152559 -0.970375,-0.200077 c -0.702599,-0.145569 -1.428224,-0.14557 -2.130823,0 L 9.0077728,20.400197 C 7.6731923,20.676706 6.3671209,20.179702 5.5389321,19.227243 Z m 9.228567,4.574268 c -0.191924,0 -0.383755,0.07363 -0.530205,0.220085 -0.2929,0.2929 -0.2929,0.76751 0,1.06041 l 2.055795,2.058296 c 0.292655,0.293144 0.770011,0.2929 1.062911,0 0.2929,-0.2929 0.2929,-0.76751 0,-1.06041 l -2.058296,-2.058296 c -0.146416,-0.146483 -0.33828,-0.220085 -0.530205,-0.220085 z m -8.130642,4.444218 c 0.544031,0.03502 1.030922,0.103075 1.157947,0.152559 0.56192,0.2189 1.161957,0.468862 1.553101,0.927859 0.630966,0.740421 1.107007,1.731477 1.080417,2.711047 -0.97978,0.02676 -1.966869,-0.331246 -2.713549,-1.077916 -0.746509,-0.746511 -1.104516,-1.73399 -1.077916,-2.713549 z"
         sodipodi:nodetypes="sssscsccccssccccssccssscccccccsccccssccccscccsccsscscsscsssscscccscccccsscscccccsscccccccaaaacaacscccscssssscsscccccccscccsscscsscccs" />
    </g>
  </g>
</svg>
