<?xml version="1.0" encoding="UTF-8" standalone="no"?>
<svg
   width="32"
   height="32"
   viewBox="0 0 32 32"
   fill="none"
   version="1.1"
   id="svg5"
   sodipodi:docname="audio-off.svg"
   inkscape:version="1.4 (e7c3feb100, 2024-10-09)"
   xmlns:inkscape="http://www.inkscape.org/namespaces/inkscape"
   xmlns:sodipodi="http://sodipodi.sourceforge.net/DTD/sodipodi-0.dtd"
   xmlns="http://www.w3.org/2000/svg"
   xmlns:svg="http://www.w3.org/2000/svg">
  <sodipodi:namedview
     id="namedview5"
     pagecolor="#ffffff"
     bordercolor="#000000"
     borderopacity="0.25"
     inkscape:showpageshadow="2"
     inkscape:pageopacity="0.0"
     inkscape:pagecheckerboard="0"
     inkscape:deskcolor="#d1d1d1"
     inkscape:zoom="12.576806"
     inkscape:cx="6.2018928"
     inkscape:cy="13.636213"
     inkscape:window-width="1906"
     inkscape:window-height="1006"
     inkscape:window-x="0"
     inkscape:window-y="0"
     inkscape:window-maximized="1"
     inkscape:current-layer="svg5" />
  <defs
     id="defs5">
    <linearGradient
       id="paint0_linear_8_990"
       x1="21.0248"
       y1="2.78204"
       x2="-3.4319"
       y2="20.0698"
       gradientUnits="userSpaceOnUse">
      <stop
         stop-color="#FE7970"
         id="stop2" />
      <stop
         offset="1"
         stop-color="#DC3282"
         id="stop3" />
    </linearGradient>
    <linearGradient
       id="paint1_linear_8_990"
       x1="29.917"
       y1="2.17751"
       x2="2.13853"
       y2="29.7248"
       gradientUnits="userSpaceOnUse">
      <stop
         stop-color="#FE7970"
         id="stop4" />
      <stop
         offset="1"
         stop-color="#DC3282"
         id="stop5" />
    </linearGradient>
  </defs>
  <path
     d="m 3.9331677,2.4714824 a 1.0389723,1.0389723 0 1 0 -1.468414,1.4684142 l 5.84318,5.8459511 h -3.031029 a 3.1169169,3.1169169 0 0 0 -3.116917,3.1155313 v 6.229678 a 3.1169169,3.1169169 0 0 0 3.116917,3.116917 h 5.0978903 a 1.0389723,1.0389723 0 0 1 0.689879,0.263206 l 6.221366,5.532874 c 1.116548,0.991872 2.882801,0.199482 2.882801,-1.293867 v -5.106202 l 7.923895,7.923895 a 1.0389723,1.0389723 0 0 0 1.468414,-1.4698 z M 18.090896,19.56604 v 6.412537 L 12.445814,20.958263 A 3.1169169,3.1169169 0 0 0 10.374795,20.170029 H 5.2769047 a 1.0389723,1.0389723 0 0 1 -1.038972,-1.038972 v -6.228292 a 1.0389723,1.0389723 0 0 1 1.038972,-1.038972 h 5.1089733 z m 0,-13.5107963 v 7.6343693 l 2.077945,2.077944 V 5.2836337 c 0,-1.4947345 -1.764867,-2.2857387 -2.881417,-1.2938665 l -4.710008,4.1863655 1.47257,1.47257 z m 5.043864,12.6796183 1.576468,1.575082 a 9.6610569,9.6610569 0 0 0 0.998798,-4.290263 9.6596716,9.6596716 0 0 0 -1.163648,-4.610266 1.0394796,1.0394796 0 0 0 -1.828592,0.989102 c 0.581824,1.076374 0.914296,2.307904 0.914296,3.621164 0,0.95724 -0.175933,1.871536 -0.497322,2.715181 z m 3.112761,3.111376 1.514129,1.515514 a 13.790626,13.790626 0 0 0 2.104265,-7.342071 13.796166,13.796166 0 0 0 -2.715181,-8.2369723 1.0389723,1.0389723 0 0 0 -1.669282,1.235684 11.719608,11.719608 0 0 1 2.306519,7.0012883 11.716837,11.716837 0 0 1 -1.54045,5.826557 z"
     fill="#212121"
     id="path1-3"
     style="stroke-width:1.3853;fill:#f03737;fill-opacity:1" />
</svg>
