<?xml version="1.0" encoding="UTF-8" standalone="no"?>
<svg
   width="24"
   height="24"
   viewBox="0 0 24 24"
   fill="none"
   version="1.1"
   id="svg11"
   sodipodi:docname="audio-volume-high-symbolic.svg"
   inkscape:version="1.4 (e7c3feb100, 2024-10-09)"
   xmlns:inkscape="http://www.inkscape.org/namespaces/inkscape"
   xmlns:sodipodi="http://sodipodi.sourceforge.net/DTD/sodipodi-0.dtd"
   xmlns="http://www.w3.org/2000/svg"
   xmlns:svg="http://www.w3.org/2000/svg">
  <sodipodi:namedview
     id="namedview11"
     pagecolor="#ffffff"
     bordercolor="#000000"
     borderopacity="0.25"
     inkscape:showpageshadow="2"
     inkscape:pageopacity="0.0"
     inkscape:pagecheckerboard="0"
     inkscape:deskcolor="#d1d1d1"
     inkscape:zoom="16.102706"
     inkscape:cx="5.7754267"
     inkscape:cy="13.631249"
     inkscape:window-width="1906"
     inkscape:window-height="1006"
     inkscape:window-x="0"
     inkscape:window-y="0"
     inkscape:window-maximized="1"
     inkscape:current-layer="svg11" />
  <defs
     id="defs11">
    <linearGradient
       id="paint0_linear_19_69"
       x1="0.81875"
       y1="3.17712"
       x2="18.4091"
       y2="15.8062"
       gradientUnits="userSpaceOnUse">
      <stop
         stop-color="#F9D423"
         id="stop3" />
      <stop
         offset="0.515624"
         stop-color="#FF4E50"
         id="stop4" />
      <stop
         offset="0.991304"
         stop-color="#8A2387"
         id="stop5" />
    </linearGradient>
    <linearGradient
       id="paint1_linear_19_69"
       x1="15.6891"
       y1="6.2075"
       x2="22.0718"
       y2="8.01224"
       gradientUnits="userSpaceOnUse">
      <stop
         stop-color="#F9D423"
         id="stop6" />
      <stop
         offset="0.515624"
         stop-color="#FF4E50"
         id="stop7" />
      <stop
         offset="0.991304"
         stop-color="#8A2387"
         id="stop8" />
    </linearGradient>
    <linearGradient
       id="paint2_linear_19_69"
       x1="18.8382"
       y1="3.22978"
       x2="27.0984"
       y2="5.18153"
       gradientUnits="userSpaceOnUse">
      <stop
         stop-color="#F9D423"
         id="stop9" />
      <stop
         offset="0.515624"
         stop-color="#FF4E50"
         id="stop10" />
      <stop
         offset="0.991304"
         stop-color="#8A2387"
         id="stop11" />
    </linearGradient>
  </defs>
  <path
     d="m 15.276938,3.5368555 c 0,-1.1786073 -1.391609,-1.8023187 -2.272015,-1.0202217 L 8.0971547,6.878245 A 0.81923575,0.81923575 0 0 1 7.5531821,7.0857847 H 3.5345577 A 2.4577073,2.4577073 0 0 0 1.0768504,9.543492 v 4.912138 a 2.4577073,2.4577073 0 0 0 2.4577073,2.457706 h 4.0197166 a 0.81923575,0.81923575 0 0 1 0.5439727,0.207541 l 4.905584,4.362703 c 0.880406,0.782097 2.273107,0.157293 2.273107,-1.020221 z M 9.1872845,8.1027294 13.638466,4.1452745 V 19.854939 L 9.1872845,15.896392 A 2.4577073,2.4577073 0 0 0 7.5542743,15.274865 H 3.5345577 A 0.81923575,0.81923575 0 0 1 2.7153218,14.45563 V 9.5445843 A 0.81923575,0.81923575 0 0 1 3.5345577,8.7253486 H 7.5542743 A 2.4577073,2.4577073 0 0 0 9.1872845,8.1038216 Z M 19.637457,5.3358971 a 0.81923575,0.81923575 0 0 1 1.145837,0.1714934 10.878359,10.878359 0 0 1 2.139844,6.4949015 10.879451,10.879451 0 0 1 -2.140936,6.494901 0.81923575,0.81923575 0 0 1 -1.316239,-0.974345 9.239887,9.239887 0 0 0 1.818704,-5.520556 9.239887,9.239887 0 0 0 -1.818704,-5.5205571 0.81923575,0.81923575 0 0 1 0.171494,-1.1458378 z"
     fill="#212121"
     id="path1-3"
     style="stroke-width:1.09231;fill:#f03737;fill-opacity:1" />
  <path
     d="m 17.636767,7.5683758 a 0.81923575,0.81923575 0 0 1 1.110884,0.3298789 c 0.585481,1.0813913 0.917544,2.3211683 0.917544,3.6352223 a 7.6167079,7.6167079 0 0 1 -0.917544,3.635222 0.81963561,0.81963561 0 0 1 -1.441855,-0.779913 c 0.458772,-0.848727 0.720928,-1.819795 0.720928,-2.855309 0,-1.035514 -0.262156,-2.0065812 -0.720928,-2.8553098 a 0.81923575,0.81923575 0 0 1 0.330971,-1.1108837 z"
     fill="#212121"
     id="path2-6"
     style="stroke-width:1.09231;fill:#f03737;fill-opacity:1" />
</svg>
