<?xml version="1.0" encoding="UTF-8" standalone="no"?>
<svg
   width="24"
   height="24"
   viewBox="0 0 24 24"
   fill="none"
   version="1.1"
   id="svg8"
   sodipodi:docname="audio-volume-medium.svg"
   inkscape:version="1.4 (e7c3feb100, 2024-10-09)"
   xmlns:inkscape="http://www.inkscape.org/namespaces/inkscape"
   xmlns:sodipodi="http://sodipodi.sourceforge.net/DTD/sodipodi-0.dtd"
   xmlns="http://www.w3.org/2000/svg"
   xmlns:svg="http://www.w3.org/2000/svg">
  <sodipodi:namedview
     id="namedview8"
     pagecolor="#ffffff"
     bordercolor="#000000"
     borderopacity="0.25"
     inkscape:showpageshadow="2"
     inkscape:pageopacity="0.0"
     inkscape:pagecheckerboard="0"
     inkscape:deskcolor="#d1d1d1"
     inkscape:zoom="26.145389"
     inkscape:cx="12.92771"
     inkscape:cy="10.001763"
     inkscape:window-width="1906"
     inkscape:window-height="1006"
     inkscape:window-x="0"
     inkscape:window-y="0"
     inkscape:window-maximized="1"
     inkscape:current-layer="g1" />
  <defs
     id="defs8">
    <linearGradient
       id="paint0_linear_19_69"
       x1="7.26976"
       y1="21"
       x2="7.26976"
       y2="3"
       gradientUnits="userSpaceOnUse">
      <stop
         stop-color="#00B59C"
         id="stop3" />
      <stop
         offset="1"
         stop-color="#9CFFAC"
         id="stop4" />
    </linearGradient>
    <linearGradient
       id="paint1_linear_19_69"
       x1="17.3572"
       y1="17.9091"
       x2="17.3572"
       y2="6.09122"
       gradientUnits="userSpaceOnUse">
      <stop
         stop-color="#00B59C"
         id="stop5" />
      <stop
         offset="1"
         stop-color="#9CFFAC"
         id="stop6" />
    </linearGradient>
    <linearGradient
       id="paint2_linear_19_69"
       x1="20.9488"
       y1="20.9473"
       x2="20.9488"
       y2="3.05371"
       gradientUnits="userSpaceOnUse">
      <stop
         stop-color="#00B59C"
         id="stop7" />
      <stop
         offset="1"
         stop-color="#9CFFAC"
         id="stop8" />
    </linearGradient>
  </defs>
  <g
     id="g1">
    <g
       id="g8"
       transform="translate(1.6289734)">
      <path
         d="m 15.276938,3.5368555 c 0,-1.1786073 -1.391609,-1.8023187 -2.272015,-1.0202217 L 8.0971547,6.878245 C 7.9473589,7.011697 7.7538016,7.0855441 7.5531821,7.0857847 H 3.5345577 c -1.3573543,0 -2.4577073,1.100353 -2.4577073,2.4577073 v 4.912138 c 7e-7,1.357354 1.1003535,2.457706 2.4577073,2.457706 h 4.0197166 c 0.2006197,2.41e-4 0.394177,0.07409 0.5439727,0.207541 l 4.905584,4.362703 c 0.880406,0.782097 2.273107,0.157293 2.273107,-1.020221 z M 9.1872845,8.1027294 13.638466,4.1452745 V 19.854939 L 9.1872845,15.896392 C 8.7374551,15.496182 8.156366,15.275018 7.5542743,15.274865 H 3.5345577 c -0.4524512,0 -0.8192355,-0.366784 -0.8192359,-0.819235 V 9.5445843 c 0,-0.4524515 0.3667844,-0.8192358 0.8192359,-0.8192357 H 7.5542743 C 8.156366,8.7251952 8.7374551,8.5040315 9.1872845,8.1038216 Z"
         fill="#212121"
         id="path1-3"
         style="fill:#38ee69;fill-opacity:1;stroke-width:1.09231"
         sodipodi:nodetypes="scccsssscccsscccccscssccc" />
      <path
         d="m 17.636767,7.5683758 a 0.81923575,0.81923575 0 0 1 1.110884,0.3298789 c 0.585481,1.0813913 0.917544,2.3211683 0.917544,3.6352223 a 7.6167079,7.6167079 0 0 1 -0.917544,3.635222 0.81963561,0.81963561 0 0 1 -1.441855,-0.779913 c 0.458772,-0.848727 0.720928,-1.819795 0.720928,-2.855309 0,-1.035514 -0.262156,-2.0065812 -0.720928,-2.8553098 a 0.81923575,0.81923575 0 0 1 0.330971,-1.1108837 z"
         fill="#212121"
         id="path2-6"
         style="fill:#38ee69;fill-opacity:1;stroke-width:1.09231" />
    </g>
  </g>
</svg>
