<?xml version="1.0" encoding="UTF-8" standalone="no"?>
<svg
   width="32"
   height="32"
   viewBox="0 0 32 32"
   fill="none"
   version="1.1"
   id="svg5"
   sodipodi:docname="audio-volume-off.svg"
   inkscape:version="1.4 (e7c3feb100, 2024-10-09)"
   xmlns:inkscape="http://www.inkscape.org/namespaces/inkscape"
   xmlns:sodipodi="http://sodipodi.sourceforge.net/DTD/sodipodi-0.dtd"
   xmlns="http://www.w3.org/2000/svg"
   xmlns:svg="http://www.w3.org/2000/svg">
  <sodipodi:namedview
     id="namedview5"
     pagecolor="#ffffff"
     bordercolor="#000000"
     borderopacity="0.25"
     inkscape:showpageshadow="2"
     inkscape:pageopacity="0.0"
     inkscape:pagecheckerboard="0"
     inkscape:deskcolor="#d1d1d1"
     inkscape:zoom="12.286921"
     inkscape:cx="22.707071"
     inkscape:cy="14.039318"
     inkscape:window-width="1906"
     inkscape:window-height="1006"
     inkscape:window-x="0"
     inkscape:window-y="0"
     inkscape:window-maximized="1"
     inkscape:current-layer="svg5" />
  <path
     d="m 17.257311,4.0134106 c 1.112824,-0.9899447 2.871805,-0.2001981 2.871805,1.2895514 v 21.394956 c 0,1.48837 -1.758981,2.278116 -2.871805,1.289552 L 11.055314,22.47305 A 1.035507,1.035507 0 0 0 10.367737,22.210721 H 5.2868486 A 3.1065212,3.1065212 0 0 1 2.1803276,19.10558 v -6.2089 A 3.1065212,3.1065212 0 0 1 5.2868486,9.7901598 H 10.367737 A 1.035507,1.035507 0 0 0 11.055314,9.5278312 L 17.25593,4.0147913 Z m 0.800791,2.0572072 -5.626254,5.0035712 a 3.1065212,3.1065212 0 0 1 -2.064111,0.786984 H 5.2868486 a 1.035507,1.035507 0 0 0 -1.035507,1.035507 v 6.2089 c 0,0.572982 0.4639072,1.035508 1.035507,1.035508 h 5.0808884 a 3.1065212,3.1065212 0 0 1 2.064111,0.786985 l 5.626254,5.00219 V 6.0719985 Z m 3.755439,6.0943052 a 1.035507,1.035507 0 0 1 1.463517,0 l 2.374762,2.374762 2.374763,-2.374762 a 1.035507,1.035507 0 1 1 1.463518,1.463516 l -2.374763,2.374763 2.374763,2.374762 a 1.035507,1.035507 0 1 1 -1.463518,1.463518 l -2.374763,-2.374764 -2.374762,2.374764 a 1.035507,1.035507 0 1 1 -1.463517,-1.463518 l 2.374763,-2.374762 -2.374763,-2.374763 a 1.035507,1.035507 0 0 1 0,-1.463516 z"
     fill="#212121"
     id="path1-3"
     style="stroke-width:1.38068;fill:#f03737;fill-opacity:1" />
  <defs
     id="defs5">
    <linearGradient
       id="paint0_linear_8_990"
       x1="21.0248"
       y1="2.78204"
       x2="-3.4319"
       y2="20.0698"
       gradientUnits="userSpaceOnUse">
      <stop
         stop-color="#FE7970"
         id="stop2" />
      <stop
         offset="1"
         stop-color="#DC3282"
         id="stop3" />
    </linearGradient>
    <linearGradient
       id="paint1_linear_8_990"
       x1="29.917"
       y1="2.17751"
       x2="2.13853"
       y2="29.7248"
       gradientUnits="userSpaceOnUse">
      <stop
         stop-color="#FE7970"
         id="stop4" />
      <stop
         offset="1"
         stop-color="#DC3282"
         id="stop5" />
    </linearGradient>
  </defs>
</svg>
