<?xml version="1.0" encoding="UTF-8" standalone="no"?>
<svg
   width="24"
   height="24"
   viewBox="0 0 24 24"
   fill="none"
   version="1.1"
   id="svg5"
   sodipodi:docname="audio-volume-low.svg"
   inkscape:version="1.4 (e7c3feb100, 2024-10-09)"
   xmlns:inkscape="http://www.inkscape.org/namespaces/inkscape"
   xmlns:sodipodi="http://sodipodi.sourceforge.net/DTD/sodipodi-0.dtd"
   xmlns="http://www.w3.org/2000/svg"
   xmlns:svg="http://www.w3.org/2000/svg">
  <sodipodi:namedview
     id="namedview5"
     pagecolor="#ffffff"
     bordercolor="#000000"
     borderopacity="0.25"
     inkscape:showpageshadow="2"
     inkscape:pageopacity="0.0"
     inkscape:pagecheckerboard="0"
     inkscape:deskcolor="#d1d1d1"
     inkscape:zoom="14.92385"
     inkscape:cx="11.86021"
     inkscape:cy="11.424666"
     inkscape:window-width="1906"
     inkscape:window-height="1006"
     inkscape:window-x="0"
     inkscape:window-y="0"
     inkscape:window-maximized="1"
     inkscape:current-layer="g8" />
  <defs
     id="defs5">
    <linearGradient
       id="paint0_linear_19_69"
       x1="9.26976"
       y1="21"
       x2="9.26976"
       y2="3"
       gradientUnits="userSpaceOnUse">
      <stop
         stop-color="#FD5900"
         id="stop2" />
      <stop
         offset="1"
         stop-color="#FFDE00"
         id="stop3" />
    </linearGradient>
    <linearGradient
       id="paint1_linear_19_69"
       x1="19.3572"
       y1="17.9091"
       x2="19.3572"
       y2="6.09122"
       gradientUnits="userSpaceOnUse">
      <stop
         stop-color="#FD5900"
         id="stop4" />
      <stop
         offset="1"
         stop-color="#FFDE00"
         id="stop5" />
    </linearGradient>
  </defs>
  <g
     id="g1"
     transform="translate(0.55577819,-0.40180786)">
    <g
       id="g8"
       transform="translate(1.6289734)">
      <path
         d="m 16.915292,3.9386632 c 0,-1.1786073 -1.391609,-1.8023187 -2.272015,-1.0202217 L 9.7355089,7.2800527 C 9.5857131,7.4135047 9.3921558,7.4873518 9.1915363,7.4875924 H 5.1729119 c -1.3573543,0 -2.4577073,1.100353 -2.4577073,2.4577073 v 4.9121383 c 7e-7,1.357354 1.1003535,2.457706 2.4577073,2.457706 h 4.0197166 c 0.2006197,2.41e-4 0.394177,0.07409 0.5439727,0.207541 l 4.9055838,4.362703 c 0.880406,0.782097 2.273107,0.157293 2.273107,-1.020221 z M 10.825639,8.5045371 15.27682,4.5470822 V 20.256747 L 10.825639,16.2982 C 10.375809,15.89799 9.7947202,15.676826 9.1926285,15.676673 H 5.1729119 c -0.4524512,0 -0.8192355,-0.366784 -0.8192359,-0.819235 V 9.946392 c 0,-0.4524515 0.3667844,-0.8192358 0.8192359,-0.8192357 H 9.1926285 C 9.7947202,9.1270029 10.375809,8.9058392 10.825639,8.5056293 Z"
         fill="#212121"
         id="path1-3"
         style="fill:#eeac38;fill-opacity:1;stroke-width:1.09231"
         sodipodi:nodetypes="scccsssscccsscccccscssccc" />
    </g>
  </g>
</svg>
