<?xml version="1.0" encoding="UTF-8" standalone="no"?>
<svg
   width="32"
   height="32"
   viewBox="0 0 32 32"
   fill="none"
   version="1.1"
   id="svg7"
   sodipodi:docname="edit-cut.svg"
   inkscape:version="1.4 (e7c3feb100, 2024-10-09)"
   xmlns:inkscape="http://www.inkscape.org/namespaces/inkscape"
   xmlns:sodipodi="http://sodipodi.sourceforge.net/DTD/sodipodi-0.dtd"
   xmlns="http://www.w3.org/2000/svg"
   xmlns:svg="http://www.w3.org/2000/svg">
  <sodipodi:namedview
     id="namedview7"
     pagecolor="#ffffff"
     bordercolor="#000000"
     borderopacity="0.25"
     inkscape:showpageshadow="2"
     inkscape:pageopacity="0.0"
     inkscape:pagecheckerboard="0"
     inkscape:deskcolor="#d1d1d1"
     inkscape:zoom="8.109096"
     inkscape:cx="5.3026873"
     inkscape:cy="23.122183"
     inkscape:window-width="1906"
     inkscape:window-height="990"
     inkscape:window-x="0"
     inkscape:window-y="0"
     inkscape:window-maximized="1"
     inkscape:current-layer="svg7" />
  <defs
     id="defs7">
    <linearGradient
       id="paint0_linear_36_169"
       x1="16"
       y1="30"
       x2="16"
       y2="2"
       gradientUnits="userSpaceOnUse">
      <stop
         stop-color="#FD2E00"
         id="stop2" />
      <stop
         offset="1"
         stop-color="#FF9900"
         id="stop3" />
    </linearGradient>
    <linearGradient
       id="paint1_linear_36_169"
       x1="16"
       y1="30"
       x2="16"
       y2="2"
       gradientUnits="userSpaceOnUse">
      <stop
         stop-color="#FD2E00"
         id="stop4" />
      <stop
         offset="1"
         stop-color="#FF9900"
         id="stop5" />
    </linearGradient>
    <linearGradient
       id="paint2_linear_36_169"
       x1="16"
       y1="30"
       x2="16"
       y2="2"
       gradientUnits="userSpaceOnUse">
      <stop
         stop-color="#FD2E00"
         id="stop6" />
      <stop
         offset="1"
         stop-color="#FF9900"
         id="stop7" />
    </linearGradient>
  </defs>
  <path
     d="m 15.94064,11.640501 -0.0014,0.0022 L 8.30752,0.41962312 C 7.9348394,-0.12838398 7.1884763,-0.27054331 6.6404303,0.10212686 6.0924009,0.47479692 5.9502415,1.2211613 6.3228975,1.7692064 l 8.2092695,12.0723076 -3.833292,5.989409 c -0.890892,-0.47046 -1.906167,-0.736698 -2.9836332,-0.736698 -3.5346069,0 -6.399969,2.865426 -6.399969,6.399968 0,3.534702 2.8653621,6.399967 6.399969,6.399967 3.5346052,0 6.3999692,-2.865265 6.3999692,-6.399967 0,-1.585912 -0.576798,-3.037105 -1.532154,-4.15518 L 16,16 l 3.303343,4.857895 c -1.224793,1.165755 -1.988149,2.811986 -1.988149,4.636298 0,3.534702 2.865425,6.399967 6.399969,6.399967 3.534542,0 6.399967,-2.865265 6.399967,-6.399967 0,-3.534542 -2.865425,-6.399968 -6.399967,-6.399968 -0.846396,0 -1.654554,0.164318 -2.394069,0.462876 l -3.913901,-5.75581 0.0021,-0.0032 z M 3.7152616,25.494193 c 0,-2.209109 1.7908551,-3.99998 3.9999802,-3.99998 2.2091242,0 3.9999792,1.790871 3.9999792,3.99998 0,2.209108 -1.790855,3.999981 -3.9999792,3.999981 -2.2091251,0 -3.9999802,-1.790873 -3.9999802,-3.999981 z m 15.9999214,0 c 0,-2.209109 1.790869,-3.99998 3.99998,-3.99998 2.209108,0 3.999979,1.790871 3.999979,3.99998 0,2.209108 -1.790871,3.999981 -3.999979,3.999981 -2.209111,0 -3.99998,-1.790873 -3.99998,-3.999981 z M 18.816146,11.599814 25.125556,1.7411592 C 25.482832,1.1829535 25.319954,0.44082917 24.761717,0.08358284 24.20364,-0.27366328 23.461404,-0.11076815 23.104125,0.4474371 l -5.756613,8.9947706 z"
     fill="#000000"
     id="path1-3"
     style="fill:#fe5a00;fill-opacity:1;stroke-width:0.999998" />
</svg>
