<?xml version="1.0" encoding="UTF-8" standalone="no"?>
<svg
   width="32"
   height="32"
   viewBox="0 0 32 32"
   fill="none"
   version="1.1"
   id="svg7"
   sodipodi:docname="arrow-left.svg"
   inkscape:version="1.4 (e7c3feb100, 2024-10-09)"
   xmlns:inkscape="http://www.inkscape.org/namespaces/inkscape"
   xmlns:sodipodi="http://sodipodi.sourceforge.net/DTD/sodipodi-0.dtd"
   xmlns="http://www.w3.org/2000/svg"
   xmlns:svg="http://www.w3.org/2000/svg">
  <sodipodi:namedview
     id="namedview7"
     pagecolor="#ffffff"
     bordercolor="#000000"
     borderopacity="0.25"
     inkscape:showpageshadow="2"
     inkscape:pageopacity="0.0"
     inkscape:pagecheckerboard="0"
     inkscape:deskcolor="#d1d1d1"
     inkscape:zoom="19.130772"
     inkscape:cx="10.767992"
     inkscape:cy="16.387211"
     inkscape:window-width="1906"
     inkscape:window-height="1006"
     inkscape:window-x="0"
     inkscape:window-y="0"
     inkscape:window-maximized="1"
     inkscape:current-layer="svg7" />
  <defs
     id="defs7">
    <linearGradient
       id="paint0_linear_8_990"
       x1="29.9023"
       y1="19.0954"
       x2="25.9343"
       y2="11.0016"
       gradientUnits="userSpaceOnUse">
      <stop
         stop-color="#F9D423"
         id="stop2" />
      <stop
         offset="0.515624"
         stop-color="#FF4E50"
         id="stop3" />
      <stop
         offset="0.991304"
         stop-color="#8A2387"
         id="stop4" />
    </linearGradient>
    <linearGradient
       id="paint1_linear_8_990"
       x1="17.6566"
       y1="26.2698"
       x2="-1.80945"
       y2="10.27"
       gradientUnits="userSpaceOnUse">
      <stop
         stop-color="#F9D423"
         id="stop5" />
      <stop
         offset="0.515624"
         stop-color="#FF4E50"
         id="stop6" />
      <stop
         offset="0.991304"
         stop-color="#8A2387"
         id="stop7" />
    </linearGradient>
  </defs>
  <path
     d="m 14.028935,28.124506 a 1.1672393,1.1672393 0 0 0 1.609234,-1.690162 L 5.9096186,17.16802 H 28.840424 a 1.1672393,1.1672393 0 0 0 0,-2.334478 H 5.9096186 L 15.638169,5.5656616 A 1.1672393,1.1672393 0 0 0 14.028935,3.8754991 L 2.4810477,14.874006 a 1.5485374,1.5485374 0 0 0 -0.4668957,0.902665 1.1734646,1.1734646 0 0 0 0.00156,0.449776 1.5485374,1.5485374 0 0 0 0.4668958,0.901109 L 14.028935,28.126063 Z"
     fill="#212121"
     id="path1-3"
     style="stroke-width:1.55632;fill:#f03737;fill-opacity:1" />
</svg>
