<?xml version="1.0" encoding="UTF-8" standalone="no"?>
<svg
   width="32"
   height="32"
   viewBox="0 0 32 32"
   fill="none"
   version="1.1"
   id="svg5"
   sodipodi:docname="arrow-up.svg"
   inkscape:version="1.4 (e7c3feb100, 2024-10-09)"
   xmlns:inkscape="http://www.inkscape.org/namespaces/inkscape"
   xmlns:sodipodi="http://sodipodi.sourceforge.net/DTD/sodipodi-0.dtd"
   xmlns="http://www.w3.org/2000/svg"
   xmlns:svg="http://www.w3.org/2000/svg">
  <sodipodi:namedview
     id="namedview5"
     pagecolor="#ffffff"
     bordercolor="#000000"
     borderopacity="0.25"
     inkscape:showpageshadow="2"
     inkscape:pageopacity="0.0"
     inkscape:pagecheckerboard="0"
     inkscape:deskcolor="#d1d1d1"
     inkscape:zoom="17.404906"
     inkscape:cx="19.419812"
     inkscape:cy="12.553932"
     inkscape:window-width="1906"
     inkscape:window-height="1006"
     inkscape:window-x="0"
     inkscape:window-y="0"
     inkscape:window-maximized="1"
     inkscape:current-layer="svg5" />
  <defs
     id="defs5">
    <linearGradient
       id="paint0_linear_8_990"
       x1="17.5073"
       y1="30.6667"
       x2="10.3037"
       y2="26.4828"
       gradientUnits="userSpaceOnUse">
      <stop
         stop-color="#DE00C0"
         id="stop2" />
      <stop
         offset="1"
         stop-color="#8720FF"
         id="stop3" />
    </linearGradient>
    <linearGradient
       id="paint1_linear_8_990"
       x1="21.9552"
       y1="18.4788"
       x2="9.58182"
       y2="0.644095"
       gradientUnits="userSpaceOnUse">
      <stop
         stop-color="#DE00C0"
         id="stop4" />
      <stop
         offset="1"
         stop-color="#8720FF"
         id="stop5" />
    </linearGradient>
  </defs>
  <path
     d="m 3.9140484,14.034861 a 1.1635283,1.1635283 0 0 0 1.6847888,1.604117 L 14.8357,5.9413593 V 28.799259 a 1.1635285,1.1635285 0 0 0 2.327057,0 V 5.9413593 l 9.238414,9.6976187 a 1.1635283,1.1635283 0 0 0 1.684788,-1.604117 L 17.12242,2.5236891 a 1.5436141,1.5436141 0 0 0 -0.899794,-0.4654113 1.1697337,1.1697337 0 0 0 -0.449898,0.00155 1.5436141,1.5436141 0 0 0 -0.896693,0.4654113 z"
     fill="#212121"
     id="path1-3"
     style="stroke-width:1.55137;fill:#ce37f0;fill-opacity:1" />
</svg>
