<?xml version="1.0" encoding="UTF-8" standalone="no"?>
<svg
   width="24"
   height="24"
   viewBox="0 0 24 24"
   fill="none"
   version="1.1"
   id="svg5"
   sodipodi:docname="media-playback-pause.svg"
   inkscape:version="1.4 (e7c3feb100, 2024-10-09)"
   xmlns:inkscape="http://www.inkscape.org/namespaces/inkscape"
   xmlns:sodipodi="http://sodipodi.sourceforge.net/DTD/sodipodi-0.dtd"
   xmlns="http://www.w3.org/2000/svg"
   xmlns:svg="http://www.w3.org/2000/svg">
  <sodipodi:namedview
     id="namedview5"
     pagecolor="#ffffff"
     bordercolor="#000000"
     borderopacity="0.25"
     inkscape:showpageshadow="2"
     inkscape:pageopacity="0.0"
     inkscape:pagecheckerboard="0"
     inkscape:deskcolor="#d1d1d1"
     inkscape:zoom="17.204404"
     inkscape:cx="7.6724541"
     inkscape:cy="16.652713"
     inkscape:window-width="1906"
     inkscape:window-height="1006"
     inkscape:window-x="0"
     inkscape:window-y="0"
     inkscape:window-maximized="1"
     inkscape:current-layer="svg5" />
  <defs
     id="defs5">
    <linearGradient
       id="paint0_linear_348_170"
       x1="5.88129"
       y1="21"
       x2="5.88129"
       y2="3"
       gradientUnits="userSpaceOnUse">
      <stop
         stop-color="#5558FF"
         id="stop2" />
      <stop
         offset="1"
         stop-color="#00C0FF"
         id="stop3" />
    </linearGradient>
    <linearGradient
       id="paint1_linear_348_170"
       x1="18.1188"
       y1="21"
       x2="18.1188"
       y2="3"
       gradientUnits="userSpaceOnUse">
      <stop
         stop-color="#5558FF"
         id="stop4" />
      <stop
         offset="1"
         stop-color="#00C0FF"
         id="stop5" />
    </linearGradient>
  </defs>
  <path
     d="m 5.4875,3 a 1.75,1.75 0 0 0 -1.75,1.75 v 14.5 c 0,0.966 0.784,1.75 1.75,1.75 h 3.5 a 1.75,1.75 0 0 0 1.75,-1.75 V 4.75 A 1.75,1.75 0 0 0 8.9875,3 Z m -0.25,1.75 a 0.25,0.25 0 0 1 0.25,-0.25 h 3.5 a 0.25,0.25 0 0 1 0.25,0.25 v 14.5 a 0.25,0.25 0 0 1 -0.25,0.25 h -3.5 a 0.25,0.25 0 0 1 -0.25,-0.25 z M 14.4875,3 a 1.75,1.75 0 0 0 -1.75,1.75 v 14.5 c 0,0.966 0.784,1.75 1.75,1.75 h 3.5 a 1.75,1.75 0 0 0 1.75,-1.75 V 4.75 A 1.75,1.75 0 0 0 17.9875,3 Z m -0.25,1.75 a 0.25,0.25 0 0 1 0.25,-0.25 h 3.5 a 0.25,0.25 0 0 1 0.25,0.25 v 14.5 a 0.25,0.25 0 0 1 -0.25,0.25 h -3.5 a 0.25,0.25 0 0 1 -0.25,-0.25 z"
     fill="#212121"
     id="path1-3"
     style="fill:#3979eb;fill-opacity:1" />
</svg>
