<?xml version="1.0" encoding="UTF-8" standalone="no"?>
<svg
   width="24"
   height="24"
   viewBox="0 0 24 24"
   fill="none"
   version="1.1"
   id="svg5"
   sodipodi:docname="media-record.svg"
   inkscape:version="1.4 (e7c3feb100, 2024-10-09)"
   xmlns:inkscape="http://www.inkscape.org/namespaces/inkscape"
   xmlns:sodipodi="http://sodipodi.sourceforge.net/DTD/sodipodi-0.dtd"
   xmlns="http://www.w3.org/2000/svg"
   xmlns:svg="http://www.w3.org/2000/svg">
  <sodipodi:namedview
     id="namedview5"
     pagecolor="#ffffff"
     bordercolor="#000000"
     borderopacity="0.25"
     inkscape:showpageshadow="2"
     inkscape:pageopacity="0.0"
     inkscape:pagecheckerboard="0"
     inkscape:deskcolor="#d1d1d1"
     inkscape:zoom="15.74489"
     inkscape:cx="15.624117"
     inkscape:cy="5.3668207"
     inkscape:window-width="1906"
     inkscape:window-height="990"
     inkscape:window-x="0"
     inkscape:window-y="0"
     inkscape:window-maximized="1"
     inkscape:current-layer="svg5" />
  <defs
     id="defs5">
    <linearGradient
       id="paint0_linear_54_536"
       x1="19.6544"
       y1="4.39762"
       x2="4.3762"
       y2="19.5486"
       gradientUnits="userSpaceOnUse">
      <stop
         stop-color="#FE7970"
         id="stop2" />
      <stop
         offset="1"
         stop-color="#DC3282"
         id="stop3" />
    </linearGradient>
    <linearGradient
       id="paint1_linear_54_536"
       x1="22.9348"
       y1="1.13947"
       x2="1.10885"
       y2="22.7838"
       gradientUnits="userSpaceOnUse">
      <stop
         stop-color="#FE7970"
         id="stop4" />
      <stop
         offset="1"
         stop-color="#DC3282"
         id="stop5" />
    </linearGradient>
  </defs>
  <path
     d="m 12,19.2 c 3.97644,0 7.2,-3.22356 7.2,-7.2 0,-3.976452 -3.22356,-7.2 -7.2,-7.2 -3.976452,0 -7.2,3.223548 -7.2,7.2 0,3.97644 3.223548,7.2 7.2,7.2 z M 12,0 C 5.37258,0 0,5.37258 0,12 0,18.62736 5.37258,24 12,24 18.62736,24 24,18.62736 24,12 24,5.37258 18.62736,0 12,0 Z M 1.8,12 C 1.8,6.366696 6.366696,1.8 12,1.8 17.63328,1.8 22.2,6.366696 22.2,12 22.2,17.63328 17.63328,22.2 12,22.2 6.366696,22.2 1.8,17.63328 1.8,12 Z"
     fill="#000000"
     id="path1-3"
     style="fill:#e23f7f;fill-opacity:1;stroke-width:1" />
</svg>
