<?xml version="1.0" encoding="UTF-8" standalone="no"?>
<svg
   width="24"
   height="24"
   viewBox="0 0 24 24"
   fill="none"
   version="1.1"
   id="svg5"
   sodipodi:docname="zoom-fit-best.svg"
   inkscape:version="1.4 (e7c3feb100, 2024-10-09)"
   xmlns:inkscape="http://www.inkscape.org/namespaces/inkscape"
   xmlns:sodipodi="http://sodipodi.sourceforge.net/DTD/sodipodi-0.dtd"
   xmlns="http://www.w3.org/2000/svg"
   xmlns:svg="http://www.w3.org/2000/svg">
  <sodipodi:namedview
     id="namedview5"
     pagecolor="#ffffff"
     bordercolor="#000000"
     borderopacity="0.25"
     inkscape:showpageshadow="2"
     inkscape:pageopacity="0.0"
     inkscape:pagecheckerboard="0"
     inkscape:deskcolor="#d1d1d1"
     inkscape:zoom="13.692109"
     inkscape:cx="10.955215"
     inkscape:cy="21.435704"
     inkscape:window-width="1906"
     inkscape:window-height="990"
     inkscape:window-x="0"
     inkscape:window-y="0"
     inkscape:window-maximized="1"
     inkscape:current-layer="svg5" />
  <defs
     id="defs5">
    <linearGradient
       id="paint0_linear_302_167"
       x1="11.9999"
       y1="4"
       x2="11.9999"
       y2="19.9999"
       gradientUnits="userSpaceOnUse">
      <stop
         stop-color="#DC18FC"
         id="stop2" />
      <stop
         offset="1"
         stop-color="#8E1EFF"
         id="stop3" />
    </linearGradient>
    <linearGradient
       id="paint1_linear_302_167"
       x1="11.9999"
       y1="3.99999"
       x2="11.9999"
       y2="19.9999"
       gradientUnits="userSpaceOnUse">
      <stop
         stop-color="#DC18FC"
         id="stop4" />
      <stop
         offset="1"
         stop-color="#8E1EFF"
         id="stop5" />
    </linearGradient>
  </defs>
  <path
     d="m 1.9999999,3.6666666 c 0,-0.9204799 0.7461868,-1.6666667 1.6666667,-1.6666667 h 2.6666666 c 0.5522801,0 1.0000001,-0.4477199 1.0000001,-0.99999992 C 7.3333333,0.44772 6.8856133,0 6.3333332,0 H 3.6666666 C 1.6416266,0 0,1.6416266 0,3.6666666 v 2.6666666 c 0,0.5522801 0.44772,1.0000001 0.99999998,1.0000001 0.55228002,0 0.99999992,-0.44772 0.99999992,-1.0000001 z m 0,16.6666664 C 1.9999999,21.253866 2.7461867,22 3.6666666,22 h 2.6666666 c 0.5522801,0 1.0000001,0.447733 1.0000001,0.999999 C 7.3333333,23.552267 6.8856133,24 6.3333332,24 H 3.6666666 C 1.6416266,24 0,22.3584 0,20.333333 v -2.666667 c 0,-0.552266 0.44772,-0.999999 0.99999998,-0.999999 0.55228002,0 0.99999992,0.447733 0.99999992,0.999999 z M 20.333333,1.9999999 C 21.253866,1.9999999 22,2.7461867 22,3.6666666 v 2.6666666 c 0,0.5522801 0.447733,1.0000001 0.999999,1.0000001 C 23.552267,7.3333333 24,6.8856133 24,6.3333332 V 3.6666666 C 24,1.6416266 22.3584,0 20.333333,0 h -2.666667 c -0.552266,0 -0.999999,0.44772 -0.999999,0.99999998 0,0.55228002 0.447733,0.99999992 0.999999,0.99999992 z M 22,20.333333 C 22,21.253866 21.253866,22 20.333333,22 H 17.666666 C 17.1144,22 16.666667,22.447733 16.666667,22.999999 16.666667,23.552267 17.1144,24 17.666666,24 h 2.666667 C 22.3584,24 24,22.3584 24,20.333333 V 17.666666 C 24,17.1144 23.552267,16.666667 22.999999,16.666667 22.447733,16.666667 22,17.1144 22,17.666666 Z"
     fill="#000000"
     id="path1-3"
     style="fill:#bf1afd;fill-opacity:1;stroke-width:1" />
</svg>
