<?xml version="1.0" encoding="UTF-8" standalone="no"?>
<svg
   width="24"
   height="24"
   viewBox="0 0 24 24"
   fill="none"
   version="1.1"
   id="svg5"
   sodipodi:docname="color-picker.svg"
   inkscape:version="1.4 (e7c3feb100, 2024-10-09)"
   xmlns:inkscape="http://www.inkscape.org/namespaces/inkscape"
   xmlns:sodipodi="http://sodipodi.sourceforge.net/DTD/sodipodi-0.dtd"
   xmlns="http://www.w3.org/2000/svg"
   xmlns:svg="http://www.w3.org/2000/svg">
  <sodipodi:namedview
     id="namedview5"
     pagecolor="#ffffff"
     bordercolor="#000000"
     borderopacity="0.25"
     inkscape:showpageshadow="2"
     inkscape:pageopacity="0.0"
     inkscape:pagecheckerboard="0"
     inkscape:deskcolor="#d1d1d1"
     inkscape:zoom="20.912125"
     inkscape:cx="9.2290956"
     inkscape:cy="13.939282"
     inkscape:window-width="1906"
     inkscape:window-height="990"
     inkscape:window-x="0"
     inkscape:window-y="0"
     inkscape:window-maximized="1"
     inkscape:current-layer="svg5" />
  <defs
     id="defs5">
    <linearGradient
       id="paint0_linear_8_737"
       x1="1.00244"
       y1="14.4301"
       x2="17.6499"
       y2="14.4301"
       gradientUnits="userSpaceOnUse">
      <stop
         stop-color="#A93AFF"
         id="stop2" />
      <stop
         offset="1"
         stop-color="#FF81FF"
         id="stop3" />
    </linearGradient>
    <linearGradient
       id="paint1_linear_8_737"
       x1="9.55385"
       y1="9.29531"
       x2="23.0022"
       y2="9.29531"
       gradientUnits="userSpaceOnUse">
      <stop
         stop-color="#A93AFF"
         id="stop4" />
      <stop
         offset="1"
         stop-color="#FF81FF"
         id="stop5" />
    </linearGradient>
  </defs>
  <path
     d="m 22.747354,1.25261 c -1.670075,-1.67014666 -4.378001,-1.67014666 -6.048076,0 L 14.34523,3.606646 14.330172,3.5916351 C 13.513419,2.7748593 12.189216,2.7748593 11.372344,3.5916232 l -0.699988,0.7000953 c -0.8168714,0.8167759 -0.8168714,2.1410279 0,2.9578038 l 0.01506,0.015095 L 2.5841232,15.36785 C 2.079839,15.872196 1.7965215,16.556169 1.7965215,17.269302 v 0.821652 l -1.53015205,2.80521 C -0.73278334,22.72794 1.272191,24.733011 3.103979,23.733762 l 2.8052814,-1.530126 h 0.8215683 c 0.713182,0 1.397155,-0.283245 1.9014402,-0.78759 l 8.1033421,-8.103222 0.01481,0.01482 c 0.816872,0.816871 2.141077,0.816871 2.957828,0 L 20.40836,12.62766 c 0.816752,-0.816872 0.816752,-2.141075 0,-2.9578277 L 20.3933,9.6547733 22.747348,7.3007612 c 1.670195,-1.6701466 1.670195,-4.377989 0,-6.0481475 z m -4.780521,1.2676268 c 0.970087,-0.9700513 2.542879,-0.9700513 3.512966,0 0.969968,0.9700633 0.969968,2.5428426 0,3.512894 l -2.987826,2.9878493 c -0.350053,0.3500418 -0.350053,0.9176326 0,1.2675669 l 0.648717,0.648837 c 0.116764,0.116764 0.116764,0.305953 0,0.422597 l -0.699988,0.700108 c -0.116764,0.116644 -0.305952,0.116644 -0.422598,0 L 11.939911,5.9818955 c -0.116644,-0.1166805 -0.116644,-0.3058696 0,-0.4225502 L 12.640019,4.85925 c 0.116644,-0.1166806 0.305833,-0.1166806 0.422597,1.19e-5 l 0.648837,0.6488243 c 0.349934,0.3500416 0.917501,0.3500416 1.267555,0 z m -2.498897,9.5249122 -8.103294,8.103223 c -0.168095,0.168154 -0.396078,0.262569 -0.6338133,0.262569 h -1.050137 c -0.149965,0 -0.2975516,0.03765 -0.4292071,0.109474 l -3.0059437,1.6396 c -0.082619,0.04505 -0.1439892,0.04709 -0.1898345,0.03896 -0.053458,-0.0094 -0.1131549,-0.03861 -0.1645096,-0.08999 -0.051355,-0.05139 -0.08054,-0.111027 -0.089993,-0.164569 -0.00812,-0.04578 -0.00609,-0.107203 0.038961,-0.189787 l 1.6396111,-3.005872 c 0.071815,-0.131703 0.10945,-0.279302 0.10945,-0.42929 v -1.050162 c 0,-0.237711 0.094427,-0.465623 0.2625343,-0.633777 L 11.955089,8.5322436 Z"
     fill="#000000"
     id="path1-3"
     style="fill:#c24fff;fill-opacity:1;stroke-width:1" />
</svg>
