<?xml version="1.0" encoding="UTF-8" standalone="no"?>
<svg
   width="24"
   height="24"
   viewBox="0 0 24 24"
   fill="none"
   version="1.1"
   id="svg5"
   sodipodi:docname="folder.svg"
   inkscape:version="1.4 (e7c3feb100, 2024-10-09)"
   xmlns:inkscape="http://www.inkscape.org/namespaces/inkscape"
   xmlns:sodipodi="http://sodipodi.sourceforge.net/DTD/sodipodi-0.dtd"
   xmlns="http://www.w3.org/2000/svg"
   xmlns:svg="http://www.w3.org/2000/svg">
  <sodipodi:namedview
     id="namedview5"
     pagecolor="#ffffff"
     bordercolor="#000000"
     borderopacity="0.25"
     inkscape:showpageshadow="2"
     inkscape:pageopacity="0.0"
     inkscape:pagecheckerboard="0"
     inkscape:deskcolor="#d1d1d1"
     inkscape:zoom="27.62395"
     inkscape:cx="5.3395695"
     inkscape:cy="13.448475"
     inkscape:window-width="1906"
     inkscape:window-height="1006"
     inkscape:window-x="0"
     inkscape:window-y="0"
     inkscape:window-maximized="1"
     inkscape:current-layer="svg5" />
  <defs
     id="defs5">
    <linearGradient
       id="paint0_linear_8_312"
       x1="11.9985"
       y1="12.3074"
       x2="11.9985"
       y2="1"
       gradientUnits="userSpaceOnUse">
      <stop
         stop-color="#5570FF"
         id="stop2" />
      <stop
         offset="1"
         stop-color="#4DD3FF"
         id="stop3" />
    </linearGradient>
    <linearGradient
       id="paint1_linear_8_312"
       x1="12.0004"
       y1="23"
       x2="12.0004"
       y2="4.40924"
       gradientUnits="userSpaceOnUse">
      <stop
         stop-color="#5570FF"
         id="stop4" />
      <stop
         offset="1"
         stop-color="#4DD3FF"
         id="stop5" />
    </linearGradient>
  </defs>
  <path
     d="m 7.8275318,3.1996439 c 0.5060205,0 0.9988399,0.1551063 1.4124575,0.4422178 L 9.4115955,3.773867 12.024201,5.9497547 h 8.501144 a 2.4751,2.4751 0 0 1 2.451999,2.131887 l 0.0176,0.173807 0.0055,0.169406 v 9.9004003 a 2.4751,2.4751 0 0 1 -2.305694,2.469601 l -0.169406,0.0055 H 3.4746558 A 2.4751,2.4751 0 0 1 1.005056,18.494662 l -0.0055,-0.169407 V 5.6747437 A 2.4751,2.4751 0 0 1 3.305249,3.2051441 l 0.1694068,-0.0055 z M 9.4115955,9.7768097 A 2.4751,2.4751 0 0 1 8.0431406,10.340033 l -0.2156088,0.0099 -5.1779092,-0.0011 v 7.976423 c 0,0.418016 0.3102124,0.763429 0.7128287,0.817332 l 0.1122045,0.0077 H 20.525345 a 0.82503335,0.82503335 0 0 0 0.817333,-0.712828 l 0.0077,-0.112205 V 8.4248547 A 0.82503335,0.82503335 0 0 0 20.63755,7.6075227 l -0.112205,-0.0077 H 12.023101 Z M 7.8275318,4.8497106 H 3.4746558 A 0.82503335,0.82503335 0 0 0 2.6573229,5.5625397 l -0.0077,0.112204 v 3.024022 l 5.1779071,0.0011 a 0.82503335,0.82503335 0 0 0 0.4345176,-0.124304 l 0.093504,-0.066 L 10.435737,6.7736667 8.3566532,5.0410962 A 0.82503335,0.82503335 0 0 0 7.9419364,4.8574109 Z"
     fill="#212121"
     id="path1-6"
     style="stroke-width:1.10005;fill:#eb308f;fill-opacity:1" />
</svg>
