<?xml version="1.0" encoding="UTF-8" standalone="no"?>
<svg
   width="24"
   height="24"
   viewBox="0 0 24 24"
   fill="none"
   version="1.1"
   id="svg5"
   sodipodi:docname="notification-disabled-symbolic.svg"
   inkscape:version="1.4 (e7c3feb100, 2024-10-09)"
   xmlns:inkscape="http://www.inkscape.org/namespaces/inkscape"
   xmlns:sodipodi="http://sodipodi.sourceforge.net/DTD/sodipodi-0.dtd"
   xmlns="http://www.w3.org/2000/svg"
   xmlns:svg="http://www.w3.org/2000/svg">
  <sodipodi:namedview
     id="namedview5"
     pagecolor="#ffffff"
     bordercolor="#000000"
     borderopacity="0.25"
     inkscape:showpageshadow="2"
     inkscape:pageopacity="0.0"
     inkscape:pagecheckerboard="0"
     inkscape:deskcolor="#d1d1d1"
     inkscape:zoom="12.49042"
     inkscape:cx="9.2871175"
     inkscape:cy="19.334818"
     inkscape:window-width="1906"
     inkscape:window-height="990"
     inkscape:window-x="0"
     inkscape:window-y="0"
     inkscape:window-maximized="1"
     inkscape:current-layer="svg5" />
  <defs
     id="defs5">
    <linearGradient
       id="paint0_linear_306_247"
       x1="21.132"
       y1="1.53413"
       x2="14.1487"
       y2="20.1142"
       gradientUnits="userSpaceOnUse">
      <stop
         stop-color="#FE0F7C"
         id="stop2" />
      <stop
         offset="1"
         stop-color="#DF0066"
         id="stop3" />
    </linearGradient>
    <linearGradient
       id="paint1_linear_306_247"
       x1="16.7788"
       y1="19.3088"
       x2="16.168"
       y2="23.5323"
       gradientUnits="userSpaceOnUse">
      <stop
         stop-color="#FE0F7C"
         id="stop4" />
      <stop
         offset="1"
         stop-color="#DF0066"
         id="stop5" />
    </linearGradient>
  </defs>
  <g
     id="g1">
    <path
       d="M 3.8633007,5.1407134 0.26359644,1.5409372 c -0.35147192,-0.3514719 -0.35145992,-0.92133428 2.4e-5,-1.27280621 0.35147193,-0.35147192 0.92133426,-0.35145992 1.27280626,1.2e-5 L 23.736386,22.468583 c 0.351484,0.351484 0.351484,0.92137 0,1.272854 -0.351484,0.351364 -0.92137,0.351364 -1.272854,-1.2e-4 l -3.935564,-3.935684 -2.927673,9.6e-4 c 0,1.988182 -1.611738,3.60004 -3.60004,3.60004 -1.917261,0 -3.4844183,-1.498816 -3.5939196,-3.388597 l -0.00665,-0.214203 -5.6696794,9.6e-4 c -0.2056103,0 -0.4090245,-0.04236 -0.5976186,-0.124201 C 1.3725409,19.350468 1.0241169,18.467018 1.3541687,17.70717 L 3.0001671,13.917647 V 8.9999805 C 3.0003711,7.6171811 3.3098785,6.3091185 3.8633007,5.1407134 Z M 16.727108,18.004773 5.237736,6.5151728 C 4.9547369,7.2889414 4.8003192,8.1257587 4.8001872,9.0001005 v 5.2915915 l -1.612794,3.713081 z m -2.927313,1.79906 -3.59956,0.0028 c 0,0.994091 0.805929,1.80002 1.80002,1.80002 0.935651,0 1.704619,-0.713888 1.79174,-1.626738 z m 5.400541,-5.510941 0.849969,1.943901 2.624909,2.62491 c 0.06888,-0.172202 0.106802,-0.360124 0.106802,-0.556927 0,-0.206882 -0.04272,-0.411484 -0.125642,-0.600966 L 21.000356,13.916567 V 9.0001005 l -0.005,-0.3011314 C 20.828394,3.8337428 16.860189,0 12.000255,0 9.7181901,0 7.6369228,0.84381342 6.0520291,2.238193 l 1.2760583,1.2760822 c 1.256402,-1.0700639 2.8871486,-1.7142551 4.6721676,-1.7142551 3.889964,0 7.062439,3.0650502 7.195761,6.9452696 l 0.0044,0.270243 z"
       fill="#000000"
       id="path1-3"
       style="fill:#ff544e;fill-opacity:1;stroke-width:1" />
  </g>
</svg>
