<?xml version="1.0" encoding="UTF-8" standalone="no"?>
<svg
   width="24"
   height="24"
   viewBox="0 0 24 24"
   fill="none"
   version="1.1"
   id="svg13"
   sodipodi:docname="notification-new-symbolic.svg"
   inkscape:version="1.4 (e7c3feb100, 2024-10-09)"
   xmlns:inkscape="http://www.inkscape.org/namespaces/inkscape"
   xmlns:sodipodi="http://sodipodi.sourceforge.net/DTD/sodipodi-0.dtd"
   xmlns="http://www.w3.org/2000/svg"
   xmlns:svg="http://www.w3.org/2000/svg">
  <sodipodi:namedview
     id="namedview13"
     pagecolor="#ffffff"
     bordercolor="#000000"
     borderopacity="0.25"
     inkscape:showpageshadow="2"
     inkscape:pageopacity="0.0"
     inkscape:pagecheckerboard="0"
     inkscape:deskcolor="#d1d1d1"
     inkscape:zoom="18.420689"
     inkscape:cx="14.548859"
     inkscape:cy="14.738863"
     inkscape:window-width="1906"
     inkscape:window-height="990"
     inkscape:window-x="0"
     inkscape:window-y="0"
     inkscape:window-maximized="1"
     inkscape:current-layer="svg13" />
  <defs
     id="defs13">
    <linearGradient
       id="paint0_linear_306_247"
       x1="20.9039"
       y1="1.32118"
       x2="3.90049"
       y2="20.2621"
       gradientUnits="userSpaceOnUse">
      <stop
         stop-color="#D800BD"
         id="stop2" />
      <stop
         offset="0.408098"
         stop-color="#F92D7A"
         id="stop3" />
      <stop
         offset="0.590073"
         stop-color="#FF4A52"
         id="stop4" />
      <stop
         offset="1"
         stop-color="#FFB243"
         id="stop5" />
    </linearGradient>
    <linearGradient
       id="paint1_linear_306_247"
       x1="16.6582"
       y1="19.2655"
       x2="14.512"
       y2="25.4794"
       gradientUnits="userSpaceOnUse">
      <stop
         stop-color="#D800BD"
         id="stop6" />
      <stop
         offset="0.408098"
         stop-color="#F92D7A"
         id="stop7" />
      <stop
         offset="0.590073"
         stop-color="#FF4A52"
         id="stop8" />
      <stop
         offset="1"
         stop-color="#FFB243"
         id="stop9" />
    </linearGradient>
    <linearGradient
       id="paint2_linear_306_247"
       x1="21.4385"
       y1="1.1375"
       x2="14.1259"
       y2="8.82501"
       gradientUnits="userSpaceOnUse">
      <stop
         stop-color="#D800BD"
         id="stop10" />
      <stop
         offset="0.408098"
         stop-color="#F92D7A"
         id="stop11" />
      <stop
         offset="0.590073"
         stop-color="#FF4A52"
         id="stop12" />
      <stop
         offset="1"
         stop-color="#FFB243"
         id="stop13" />
    </linearGradient>
  </defs>
  <g
     id="g1">
    <path
       d="m 12,2.0398575 c 4.136068,0 7.513226,3.2627234 7.655285,7.4032953 l 0.0043,0.2562792 v 4.184181 l 1.409361,3.223148 c 0.07057,0.161259 0.106928,0.335388 0.106928,0.511455 0,0.704987 -0.571506,1.276596 -1.276596,1.276596 l -4.835438,0.0015 c 0,1.692051 -1.371677,3.06383 -3.06383,3.06383 -1.631694,0 -2.96544,-1.275575 -3.0586315,-2.883881 l -0.00566,-0.182297 -4.8252154,8.17e-4 c -0.1749753,0 -0.3480919,-0.03605 -0.5085957,-0.105702 -0.6466724,-0.280953 -0.9432,-1.032818 -0.6623081,-1.679491 L 4.3404333,13.8845 V 9.6993299 C 4.3410383,5.4561401 7.7638366,2.0398575 12,2.0398575 Z m 1.531404,16.8541375 -3.063319,0.0023 c 0,0.846026 0.68589,1.531916 1.531915,1.531916 0.796289,0 1.450621,-0.607558 1.524868,-1.384443 z M 12,3.5717724 c -3.3908017,0 -6.1271693,2.7311592 -6.1276596,6.1276596 v 4.503431 L 4.4997651,17.362898 H 19.508936 l -1.381276,-3.159013 1.02e-4,-4.4913194 -0.0038,-0.2299915 C 18.010519,6.1802967 15.31057,3.5717724 12,3.5717724 Z m 9.191489,4.8549243 h 2.042554 C 23.657055,8.4266967 24,8.7696311 24,9.1926541 24,9.5804329 23.711796,9.9008992 23.338009,9.9516158 l -0.103966,0.007 h -2.042554 c -0.423012,0 -0.765957,-0.3429345 -0.765957,-0.7659575 0,-0.3877787 0.288204,-0.7082451 0.661991,-0.7589617 z m -20.42553155,0 H 2.8085107 c 0.4230229,0 0.7659574,0.3429344 0.7659574,0.7659574 0,0.3877788 -0.2881532,0.7082451 -0.6620221,0.7589617 l -0.1039353,0.007 H 0.76595745 C 0.34293038,9.9586116 0,9.6156771 0,9.1926541 0,8.8048754 0.28815728,8.484409 0.66202111,8.4336924 Z M 22.825532,2.6054201 c 0.230706,0.3076595 0.195064,0.7324085 -0.06761,0.9977872 l -0.08558,0.074553 -2.042554,1.5319149 C 20.291336,5.4634933 19.811234,5.3949043 19.557447,5.0564839 19.326741,4.7488243 19.362383,4.3240754 19.625055,4.0586967 l 0.08558,-0.074553 2.042554,-1.5319149 c 0.338451,-0.2538179 0.818553,-0.185229 1.07234,0.1531915 z M 2.2468085,2.4522286 4.2893617,3.9841435 c 0.3384204,0.2538178 0.4070094,0.73392 0.1531915,1.0723404 -0.2538179,0.3384204 -0.73392,0.4070094 -1.0723404,0.1531915 L 1.3276596,3.6777605 C 0.98923915,3.4239426 0.92065022,2.9438405 1.1744681,2.6054201 1.428286,2.2669996 1.9083881,2.1984107 2.2468085,2.4522286 Z"
       fill="#000000"
       id="path1-36"
       style="fill:#ff544e;fill-opacity:1;stroke-width:1" />
  </g>
</svg>
