<?xml version="1.0" encoding="UTF-8" standalone="no"?>
<svg
   width="24"
   height="24"
   viewBox="0 0 24 24"
   fill="none"
   version="1.1"
   id="svg7"
   sodipodi:docname="preferences-desktop-notification.svg"
   inkscape:version="1.4 (e7c3feb100, 2024-10-09)"
   xmlns:inkscape="http://www.inkscape.org/namespaces/inkscape"
   xmlns:sodipodi="http://sodipodi.sourceforge.net/DTD/sodipodi-0.dtd"
   xmlns="http://www.w3.org/2000/svg"
   xmlns:svg="http://www.w3.org/2000/svg">
  <sodipodi:namedview
     id="namedview7"
     pagecolor="#ffffff"
     bordercolor="#000000"
     borderopacity="0.25"
     inkscape:showpageshadow="2"
     inkscape:pageopacity="0.0"
     inkscape:pagecheckerboard="0"
     inkscape:deskcolor="#d1d1d1"
     inkscape:zoom="22.569368"
     inkscape:cx="11.409269"
     inkscape:cy="10.345881"
     inkscape:window-width="1906"
     inkscape:window-height="990"
     inkscape:window-x="0"
     inkscape:window-y="0"
     inkscape:window-maximized="1"
     inkscape:current-layer="svg7" />
  <defs
     id="defs7">
    <linearGradient
       id="paint0_linear_8_144"
       x1="1.71379"
       y1="1.18388"
       x2="20.9128"
       y2="22.1497"
       gradientUnits="userSpaceOnUse">
      <stop
         stop-color="#F9D423"
         id="stop2" />
      <stop
         offset="0.515624"
         stop-color="#FF4E50"
         id="stop3" />
      <stop
         offset="0.991304"
         stop-color="#8A2387"
         id="stop4" />
    </linearGradient>
    <linearGradient
       id="paint1_linear_8_144"
       x1="6.51628"
       y1="19.2376"
       x2="8.97286"
       y2="26.2101"
       gradientUnits="userSpaceOnUse">
      <stop
         stop-color="#F9D423"
         id="stop5" />
      <stop
         offset="0.515624"
         stop-color="#FF4E50"
         id="stop6" />
      <stop
         offset="0.991304"
         stop-color="#8A2387"
         id="stop7" />
    </linearGradient>
  </defs>
  <path
     d="m 11.99429,2.25e-5 c 4.983135,0 9.051935,3.9309297 9.223088,8.9194913 l 0.0052,0.3087652 v 5.041101 l 1.697999,3.88325 c 0.08502,0.194286 0.128826,0.404075 0.128826,0.616203 0,0.849367 -0.688551,1.538041 -1.538042,1.538041 l -5.825737,0.0018 c 0,2.038582 -1.652596,3.691302 -3.691302,3.691302 -1.965865,0 -3.5727505,-1.536812 -3.6850276,-3.4745 l -0.00682,-0.219633 -5.8134078,9.85e-4 c -0.2108226,0 -0.4193936,-0.04343 -0.6127687,-0.12735 C 1.0971584,19.841032 0.73990183,18.935186 1.0783204,18.156075 L 2.7660456,14.270487 V 9.228156 C 2.7667839,4.1159602 6.8905718,2.25e-5 11.99429,2.25e-5 Z m 1.845158,20.3058675 -3.69081,0.0028 c 0,1.019292 0.82636,1.845651 1.845652,1.845651 0.959369,0 1.747831,-0.731985 1.837161,-1.667976 z M 11.99429,1.8456738 c -4.0852263,0 -7.3820025,3.290501 -7.3825931,7.3826052 v 5.425735 l -1.6536789,3.80721 h 18.083039 l -1.664163,-3.805979 1.24e-4,-5.4111426 -0.0046,-0.2770938 C 19.235764,4.9884242 15.982865,1.8456738 11.99429,1.8456738 Z"
     fill="#000000"
     id="path1-6"
     style="fill:#ff544e;fill-opacity:1;stroke-width:1" />
</svg>
