<?xml version="1.0" encoding="UTF-8" standalone="no"?>
<svg
   width="128"
   height="128"
   viewBox="0 0 128 128"
   fill="none"
   version="1.1"
   id="svg5"
   sodipodi:docname="preferences-system-brightness-lock.svg"
   inkscape:version="1.4 (e7c3feb100, 2024-10-09)"
   xmlns:inkscape="http://www.inkscape.org/namespaces/inkscape"
   xmlns:sodipodi="http://sodipodi.sourceforge.net/DTD/sodipodi-0.dtd"
   xmlns="http://www.w3.org/2000/svg"
   xmlns:svg="http://www.w3.org/2000/svg">
  <sodipodi:namedview
     id="namedview5"
     pagecolor="#ffffff"
     bordercolor="#000000"
     borderopacity="0.25"
     inkscape:showpageshadow="2"
     inkscape:pageopacity="0.0"
     inkscape:pagecheckerboard="0"
     inkscape:deskcolor="#d1d1d1"
     inkscape:zoom="3.7859046"
     inkscape:cx="69.468206"
     inkscape:cy="82.278883"
     inkscape:window-width="1906"
     inkscape:window-height="990"
     inkscape:window-x="0"
     inkscape:window-y="0"
     inkscape:window-maximized="1"
     inkscape:current-layer="svg5" />
  <defs
     id="defs5">
    <linearGradient
       id="paint0_linear_49_122"
       x1="64"
       y1="120.022"
       x2="64"
       y2="21.6664"
       gradientUnits="userSpaceOnUse">
      <stop
         stop-color="#5570FF"
         id="stop2" />
      <stop
         offset="1"
         stop-color="#4DD3FF"
         id="stop3" />
    </linearGradient>
    <linearGradient
       id="paint1_linear_49_122"
       x1="54.6669"
       y1="28.4905"
       x2="106.348"
       y2="28.4905"
       gradientUnits="userSpaceOnUse">
      <stop
         stop-color="#A93AFF"
         id="stop4" />
      <stop
         offset="1"
         stop-color="#FF81FF"
         id="stop5" />
    </linearGradient>
  </defs>
  <g
     id="g1">
    <path
       d="m 63.999998,1.3898354e-6 c 2.65088,0 4.8,2.1490559101646 4.8,4.8000002101646 v 9.6000004 c 0,2.650943 -2.14912,4.799999 -4.8,4.799999 -2.65088,0 -4.8,-2.149056 -4.8,-4.799999 V 4.8000016 c 0,-2.6509443 2.14912,-4.8000002101646 4.8,-4.8000002101646 z m 0,96.0000016101646 c 17.672959,0 32.000005,-14.327043 32.000005,-32.000002 0,-17.673087 -14.327046,-31.999999 -32.000005,-31.999999 -17.673087,0 -32,14.326912 -32,31.999999 0,17.672959 14.326913,32.000002 32,32.000002 z m 0,-9.600006 c -12.3712,0 -22.4,-10.028796 -22.4,-22.399996 0,-12.3712 10.0288,-22.4 22.4,-22.4 12.3712,0 22.4,10.0288 22.4,22.4 0,12.3712 -10.0288,22.399996 -22.4,22.399996 z M 123.2,68.800001 c 2.65087,0 4.79999,-2.14912 4.79999,-4.8 0,-2.65088 -2.14912,-4.8 -4.79999,-4.8 h -9.6 c -2.65088,0 -4.8,2.14912 -4.8,4.8 0,2.65088 2.14912,4.8 4.8,4.8 z M 63.999998,108.8 c 2.65088,0 4.8,2.14912 4.8,4.80001 V 123.2 c 0,2.65087 -2.14912,4.79999 -4.8,4.79999 -2.65088,0 -4.8,-2.14912 -4.8,-4.79999 v -9.59999 c 0,-2.65089 2.14912,-4.80001 4.8,-4.80001 z m -49.6,-39.999999 c 2.650944,0 4.8,-2.14912 4.8,-4.8 0,-2.65088 -2.149056,-4.8 -4.8,-4.8 H 4.7999987 c -2.6509444,0 -4.80000021727,2.14912 -4.80000021727,4.8 0,2.65088 2.14905581727,4.8 4.80000021727,4.8 z M 14.205886,14.208258 c 1.874496,-1.874561 4.913728,-1.874561 6.788225,0 l 9.599999,9.599999 c 1.874495,1.874496 1.874495,4.913664 0,6.788225 -1.874496,1.874496 -4.913728,1.874496 -6.788224,0 l -9.6,-9.600001 c -1.874496,-1.874559 -1.874496,-4.913727 0,-6.788223 z m 6.788225,99.588232 c -1.874497,1.87454 -4.913729,1.87454 -6.788225,0 -1.874496,-1.87456 -1.874496,-4.91393 0,-6.78849 l 9.6,-9.599999 c 1.874496,-1.87456 4.913728,-1.87456 6.788224,0 1.874495,1.87456 1.874495,4.913929 0,6.788479 z M 113.79392,14.208258 c -1.87456,-1.874561 -4.91329,-1.874561 -6.78785,0 l -9.599987,9.599999 c -1.87456,1.874496 -1.87456,4.913664 0,6.788225 1.874559,1.874496 4.913267,1.874496 6.787827,0 l 9.60001,-9.600001 c 1.87456,-1.874559 1.87456,-4.913727 0,-6.788223 z m -6.78785,99.588232 c 1.87456,1.87454 4.91329,1.87454 6.78785,0 1.87456,-1.87456 1.87456,-4.91393 0,-6.78849 l -9.60001,-9.599999 c -1.87456,-1.87456 -4.913268,-1.87456 -6.787827,0 -1.87456,1.87456 -1.87456,4.913929 0,6.788479 z"
       fill="#000000"
       id="path1-3"
       style="fill:#50aaff;fill-opacity:1;stroke-width:1" />
  </g>
</svg>
