<?xml version="1.0" encoding="UTF-8" standalone="no"?>
<svg
   width="32"
   height="32"
   viewBox="0 0 32 32"
   fill="none"
   version="1.1"
   id="svg5"
   sodipodi:docname="preferences-system.svg"
   inkscape:version="1.4 (e7c3feb100, 2024-10-09)"
   xmlns:inkscape="http://www.inkscape.org/namespaces/inkscape"
   xmlns:sodipodi="http://sodipodi.sourceforge.net/DTD/sodipodi-0.dtd"
   xmlns="http://www.w3.org/2000/svg"
   xmlns:svg="http://www.w3.org/2000/svg">
  <sodipodi:namedview
     id="namedview5"
     pagecolor="#ffffff"
     bordercolor="#000000"
     borderopacity="0.25"
     inkscape:showpageshadow="2"
     inkscape:pageopacity="0.0"
     inkscape:pagecheckerboard="0"
     inkscape:deskcolor="#d1d1d1"
     inkscape:zoom="10.779502"
     inkscape:cx="11.596083"
     inkscape:cy="13.776146"
     inkscape:window-width="1906"
     inkscape:window-height="990"
     inkscape:window-x="0"
     inkscape:window-y="0"
     inkscape:window-maximized="1"
     inkscape:current-layer="svg5" />
  <defs
     id="defs5">
    <linearGradient
       id="paint0_linear_5_77"
       x1="12.8311"
       y1="16.007"
       x2="19.3876"
       y2="15.2665"
       gradientUnits="userSpaceOnUse">
      <stop
         stop-color="#8D01A2"
         id="stop2" />
      <stop
         offset="1"
         stop-color="#FF00D2"
         id="stop3" />
    </linearGradient>
    <linearGradient
       id="paint1_linear_5_77"
       x1="4.9"
       y1="16"
       x2="26.5118"
       y2="13.7312"
       gradientUnits="userSpaceOnUse">
      <stop
         stop-color="#8D01A2"
         id="stop4" />
      <stop
         offset="1"
         stop-color="#FF00D2"
         id="stop5" />
    </linearGradient>
  </defs>
  <path
     d="m 16.017522,3.75e-7 c 1.204517,0.013883115 2.404274,0.153042445 3.579907,0.415246175 0.51315,0.11446183 0.896987,0.54231112 0.955244,1.06489705 l 0.279302,2.5056063 c 0.126524,1.150444 1.09785,2.021798 2.255761,2.0230123 0.311303,4.923e-4 0.61916,-0.064328 0.906832,-0.1915902 l 2.298427,-1.0096764 c 0.478031,-0.2100025 1.036638,-0.095508 1.393398,0.2856376 1.661051,1.773986 2.898059,3.9015976 3.618142,6.2227188 0.155242,0.500514 -0.02347,1.044434 -0.445211,1.35536 l -2.037338,1.501706 c -0.581253,0.426996 -0.924392,1.10507 -0.924392,1.826302 0,0.721068 0.343139,1.399142 0.925705,1.827122 l 2.038979,1.502199 c 0.421909,0.310811 0.600782,0.854812 0.44554,1.35549 -0.719755,2.320745 -1.956108,4.448176 -3.616173,6.222458 -0.356432,0.381047 -0.914546,0.495918 -1.392578,0.286359 L 23.991286,26.18181 c -0.660351,-0.288986 -1.418505,-0.246647 -2.04259,0.114051 -0.623919,0.360535 -1.0391,0.996434 -1.118361,1.712743 l -0.277498,2.50536 c -0.05727,0.516596 -0.43274,0.941624 -0.938505,1.061911 -2.376868,0.565499 -4.853346,0.565499 -7.230329,0 -0.505634,-0.120287 -0.8812,-0.545315 -0.938422,-1.061911 L 11.168542,28.012378 C 11.087163,27.297382 10.671277,26.663452 10.047817,26.304066 9.4243733,25.944681 8.6673498,25.902507 8.0092969,26.189851 L 5.7009752,27.201054 C 5.2228611,27.410613 4.6645992,27.29574 4.3080854,26.914366 2.6471007,25.138114 1.4106997,23.008059 0.69194505,20.684853 0.5371303,20.184503 0.71600255,19.640829 1.1377308,19.330182 L 3.1780723,17.826999 C 3.7592266,17.400003 4.102448,16.72193 4.102448,16.00086 c 0,-0.721232 -0.3432214,-1.399306 -0.925147,-1.826793 L 1.1382395,12.673427 C 0.71590409,12.362616 0.53686774,11.818336 0.69222403,11.317493 1.4122259,8.9963719 2.6492669,6.8687603 4.3103008,5.0947743 4.6671592,4.7136287 5.2256837,4.5991341 5.7037157,4.8091367 L 8.0017809,5.8186325 C 8.6630175,6.1088322 9.4232082,6.0650003 10.050032,5.6987881 10.674149,5.3367769 11.089658,4.7002707 11.169871,3.98383 l 0.27909,-2.5036864 C 11.50725,0.95729511 11.891416,0.52929813 12.40496,0.41508245 13.58207,0.15330539 14.78314,0.01419529 16.017522,3.75e-7 Z M 16.01785,2.461381 c -0.745191,0.00876 -1.488085,0.073075 -2.222938,0.1921974 L 13.616203,4.2571271 C 13.449147,5.7496436 12.584209,7.0745126 11.288436,7.8261207 9.9847193,8.5877882 8.3952014,8.6794562 7.0121744,8.0725049 L 5.5380537,7.4249381 C 4.5994996,8.5640918 3.85247,9.8483945 3.326323,11.2274 l 1.3092135,0.963466 c 1.2124092,0.890767 1.9284562,2.305498 1.9284562,3.809994 0,1.504333 -0.716047,2.919065 -1.9271761,3.808831 l -1.3112649,0.966075 c 0.5256875,1.381418 1.2728319,2.66815 2.2120261,3.809486 l 1.4853453,-0.650669 c 1.3753471,-0.600453 2.9540341,-0.512657 4.2542059,0.236801 1.300155,0.749459 2.167423,2.071472 2.337597,3.566286 l 0.178873,1.614609 c 1.45986,0.248288 2.951392,0.248288 4.411252,0 l 0.178873,-1.614445 c 0.165416,-1.494322 1.031714,-2.82093 2.33338,-3.573178 1.301664,-0.752412 2.883617,-0.8407 4.261426,-0.237621 l 1.484147,0.650175 c 0.938341,-1.13953 1.685174,-2.424129 2.211288,-3.803414 l -1.309542,-0.964762 c -1.212392,-0.89075 -1.928374,-2.305482 -1.928374,-3.809814 0,-1.504496 0.715982,-2.919228 1.926897,-3.808879 l 1.307737,-0.963908 C 28.144569,9.8471802 27.397408,8.5626313 26.458739,7.4232971 L 24.987556,8.069551 C 24.388087,8.3348071 23.739553,8.4713244 23.084617,8.4703069 20.672795,8.4677798 18.648586,6.6519967 18.385364,4.2565527 L 18.206656,2.6530533 C 17.475578,2.5340786 16.740231,2.4699471 16.01785,2.461381 Z m -0.02084,7.3847161 c 3.398738,0 6.153863,2.7551739 6.153863,6.1539429 0,3.398574 -2.755125,6.153862 -6.153863,6.153862 -3.398687,0 -6.1538611,-2.755288 -6.1538611,-6.153862 0,-3.398769 2.7551741,-6.1539429 6.1538611,-6.1539429 z m 0,2.4615449 c -2.039143,0 -3.692317,1.653091 -3.692317,3.692398 0,2.039144 1.653174,3.692317 3.692317,3.692317 2.039144,0 3.692318,-1.653173 3.692318,-3.692317 0,-2.039307 -1.653174,-3.692398 -3.692318,-3.692398 z"
     fill="#000000"
     id="path1-3"
     style="fill:#aa00af;fill-opacity:1;stroke-width:1" />
</svg>
