<?xml version="1.0" encoding="UTF-8" standalone="no"?>
<svg
   width="16"
   height="16"
   viewBox="0 0 16 16"
   fill="none"
   version="1.1"
   id="svg2"
   sodipodi:docname="weather-fog.svg"
   inkscape:version="1.4 (e7c3feb100, 2024-10-09)"
   xmlns:inkscape="http://www.inkscape.org/namespaces/inkscape"
   xmlns:sodipodi="http://sodipodi.sourceforge.net/DTD/sodipodi-0.dtd"
   xmlns="http://www.w3.org/2000/svg"
   xmlns:svg="http://www.w3.org/2000/svg">
  <sodipodi:namedview
     id="namedview2"
     pagecolor="#ffffff"
     bordercolor="#000000"
     borderopacity="0.25"
     inkscape:showpageshadow="2"
     inkscape:pageopacity="0.0"
     inkscape:pagecheckerboard="0"
     inkscape:deskcolor="#d1d1d1"
     inkscape:zoom="24.549848"
     inkscape:cx="7.8411889"
     inkscape:cy="10.162996"
     inkscape:window-width="1906"
     inkscape:window-height="990"
     inkscape:window-x="0"
     inkscape:window-y="0"
     inkscape:window-maximized="1"
     inkscape:current-layer="svg2" />
  <defs
     id="defs2">
    <linearGradient
       id="paint0_linear_596_140"
       x1="0.433594"
       y1="1.7002"
       x2="0.433594"
       y2="14.3003"
       gradientUnits="userSpaceOnUse">
      <stop
         stop-color="white"
         id="stop1" />
      <stop
         offset="1"
         stop-color="#B5B5B5"
         id="stop2" />
    </linearGradient>
  </defs>
  <path
     d="m 4.2174376,14.663306 h 7.5572394 c 0.367845,0 0.666085,0.298418 0.666085,0.666707 0,0.337531 -0.250593,0.616482 -0.575768,0.660573 l -0.09032,0.0061 H 4.2174376 c -0.3678889,0 -0.6661114,-0.298507 -0.6661114,-0.666707 0,-0.337532 0.2505929,-0.616482 0.5757237,-0.660662 l 0.090388,-0.006 H 11.774677 Z M 1.555152,12.013545 h 12.889643 c 0.3682,0 0.666707,0.298507 0.666707,0.666707 0,0.337532 -0.250771,0.616482 -0.576213,0.660574 l -0.09049,0.0061 H 1.555152 c -0.368209,0 -0.66670709,-0.298507 -0.66670709,-0.666707 0,-0.337531 0.25082409,-0.616481 0.57623939,-0.660662 z M 7.99996,0 c 2.816704,0 4.41449,1.8643707 4.646859,4.1159204 h 0.07112 C 14.530578,4.1159204 16,5.581538 16,7.389443 c 0,1.8079317 -1.469422,3.27362 -3.282065,3.27362 H 3.2820476 C 1.4694223,10.663063 0,9.1973747 0,7.389443 0,5.581538 1.4694223,4.1159204 3.2820654,4.1159204 h 0.071062 C 3.5868661,1.8495787 5.183345,0 7.99996,0 Z m 0,1.3312717 c -1.8412582,0 -3.4461465,1.4518568 -3.4461465,3.4572938 0,0.3177615 -0.2835282,0.567101 -0.608179,0.5670922 L 3.3317751,5.355631 c -1.1209568,0 -2.0296607,0.8900983 -2.0296607,1.9880315 0,1.098022 0.9087039,1.9881204 2.0296607,1.9881204 h 9.3364679 c 1.120956,0 2.029634,-0.8900984 2.029634,-1.9881204 0,-1.0979332 -0.908678,-1.9880315 -2.029634,-1.9880315 l -0.613904,2.67e-5 c -0.324642,8.8e-6 -0.608215,-0.2493307 -0.608215,-0.5670922 0,-2.031163 -1.604808,-3.4572938 -3.446164,-3.4572938 z"
     fill="#000000"
     id="path1-3"
     style="fill:#d5d5d5;fill-opacity:1;stroke-width:0.999998" />
</svg>
