<?xml version="1.0" encoding="UTF-8" standalone="no"?>
<svg
   width="16"
   height="16"
   viewBox="0 0 16 16"
   fill="none"
   version="1.1"
   id="svg9"
   sodipodi:docname="weather-few-clouds-night-large.svg"
   inkscape:version="1.4 (e7c3feb100, 2024-10-09)"
   xmlns:inkscape="http://www.inkscape.org/namespaces/inkscape"
   xmlns:sodipodi="http://sodipodi.sourceforge.net/DTD/sodipodi-0.dtd"
   xmlns="http://www.w3.org/2000/svg"
   xmlns:svg="http://www.w3.org/2000/svg">
  <sodipodi:namedview
     id="namedview9"
     pagecolor="#ffffff"
     bordercolor="#000000"
     borderopacity="0.25"
     inkscape:showpageshadow="2"
     inkscape:pageopacity="0.0"
     inkscape:pagecheckerboard="0"
     inkscape:deskcolor="#d1d1d1"
     inkscape:zoom="29.456646"
     inkscape:cx="8.3342821"
     inkscape:cy="8.0626965"
     inkscape:window-width="1906"
     inkscape:window-height="990"
     inkscape:window-x="0"
     inkscape:window-y="0"
     inkscape:window-maximized="1"
     inkscape:current-layer="svg9" />
  <defs
     id="defs9">
    <linearGradient
       id="paint0_linear_697_95"
       x1="9.87679"
       y1="14"
       x2="9.87679"
       y2="-14.086"
       gradientUnits="userSpaceOnUse">
      <stop
         stop-color="#18AEFA"
         id="stop2" />
      <stop
         offset="1"
         stop-color="#83E1FF"
         id="stop3" />
    </linearGradient>
    <linearGradient
       id="paint1_linear_697_95"
       x1="8.11334"
       y1="2.06999"
       x2="15.4495"
       y2="9.39043"
       gradientUnits="userSpaceOnUse">
      <stop
         stop-color="#F9D423"
         id="stop4" />
      <stop
         offset="0.515624"
         stop-color="#FF4E50"
         id="stop5" />
      <stop
         offset="0.991304"
         stop-color="#8A2387"
         id="stop6" />
    </linearGradient>
    <linearGradient
       id="paint2_linear_697_95"
       x1="8.11334"
       y1="2.06999"
       x2="15.4495"
       y2="9.39043"
       gradientUnits="userSpaceOnUse">
      <stop
         stop-color="#F9D423"
         id="stop7" />
      <stop
         offset="0.515624"
         stop-color="#FF4E50"
         id="stop8" />
      <stop
         offset="0.991304"
         stop-color="#8A2387"
         id="stop9" />
    </linearGradient>
  </defs>
  <g
     id="g1"
     transform="translate(0,-0.00195156)">
    <g
       id="g11"
       transform="matrix(0.79992175,0,0,0.79992175,-2.3997625,-3.998438)"
       style="stroke-width:1.25012">
      <path
         d="m 7.58896,7.00112 c 0.79503,0.04265 1.567,0.27177 2.26309,0.67366 1.05456,0.60885 1.80805,1.5389 2.20835,2.59522 -0.5006,0.14087 -0.9631,0.33772 -1.38598,0.584 C 10.39882,10.08892 9.86097,9.41367 9.10132,8.97508 8.90326,8.86073 8.69677,8.76624 8.48406,8.69222 8.64458,10.04385 8.43653,11.20544 7.86158,12.30296 L 7.74363,12.51599 C 7.17272,13.4924 6.3117,14.2237 5.02538,14.8204 c 0.15553,0.1291 0.32267,0.2455 0.50022,0.348 0.18481,0.1067 0.37518,0.195 0.56901,0.2655 C 5.64433,15.7356 5.24981,16.1152 4.9293,16.553 4.87766,16.5269 4.82611,16.4983 4.77485,16.4687 4.11733,16.089 3.55916,15.5736 3.13272,14.9543 2.85323,14.5484 3.03405,13.9878 3.49808,13.8218 5.1405,13.2339 6.02542,12.57237 6.53153,11.60619 7.08427,10.55111 7.18638,9.43213 6.81941,7.92875 6.7001,7.43975 7.08635,6.97415 7.58896,7.00112 Z"
         id="path10"
         style="fill:#ff4e50;fill-opacity:1;stroke-width:1.25012" />
      <path
         d="m 14.001953,11.009766 c -3.16854,0 -4.9655755,2.079406 -5.2285155,4.628906 h -0.078125 c -2.03911,0 -3.6933594,1.649794 -3.6933594,3.683594 0,2.0338 1.6523263,3.68164 3.6914063,3.68164 H 19.308594 c 2.039,0 3.693359,-1.64784 3.693359,-3.68164 0,-2.0338 -1.654359,-3.683594 -3.693359,-3.683594 h -0.08008 c -0.2614,-2.5328 -2.058063,-4.628906 -5.226563,-4.628906 z m 0,1.496093 c 2.0713,0 3.876953,1.605725 3.876953,3.890625 0,0.3575 0.318294,0.636819 0.683594,0.636719 h 0.691406 c 1.261,0 2.283203,1.001128 2.283203,2.236328 0,1.2351 -1.022203,2.236328 -2.283203,2.236328 H 8.75 c -1.26099,0 -2.2832031,-1.001228 -2.2832031,-2.236328 0,-1.2352 1.0222131,-2.236328 2.2832031,-2.236328 h 0.6914063 c 0.3652099,10e-5 0.6835937,-0.279219 0.6835937,-0.636719 0,-2.256 1.805653,-3.890625 3.876953,-3.890625 z"
         style="fill:#2bb6fa;fill-opacity:1;stroke-width:1.25012"
         id="path11" />
    </g>
  </g>
</svg>
