<?xml version="1.0" encoding="UTF-8" standalone="no"?>
<svg
   width="16"
   height="16"
   viewBox="0 0 16 16"
   fill="none"
   version="1.1"
   id="svg7"
   sodipodi:docname="weather-clear.svg"
   inkscape:version="1.4 (e7c3feb100, 2024-10-09)"
   xmlns:inkscape="http://www.inkscape.org/namespaces/inkscape"
   xmlns:sodipodi="http://sodipodi.sourceforge.net/DTD/sodipodi-0.dtd"
   xmlns="http://www.w3.org/2000/svg"
   xmlns:svg="http://www.w3.org/2000/svg">
  <sodipodi:namedview
     id="namedview7"
     pagecolor="#ffffff"
     bordercolor="#000000"
     borderopacity="0.25"
     inkscape:showpageshadow="2"
     inkscape:pageopacity="0.0"
     inkscape:pagecheckerboard="0"
     inkscape:deskcolor="#d1d1d1"
     inkscape:zoom="18.625354"
     inkscape:cx="4.6978973"
     inkscape:cy="15.006426"
     inkscape:window-width="1906"
     inkscape:window-height="990"
     inkscape:window-x="0"
     inkscape:window-y="0"
     inkscape:window-maximized="1"
     inkscape:current-layer="svg7" />
  <defs
     id="defs7">
    <linearGradient
       id="paint0_linear_697_111"
       x1="8.02349"
       y1="13.6297"
       x2="8.02349"
       y2="4.76415"
       gradientUnits="userSpaceOnUse">
      <stop
         stop-color="#FDA700"
         id="stop2" />
      <stop
         offset="1"
         stop-color="#FFDE00"
         id="stop3" />
    </linearGradient>
    <linearGradient
       id="paint1_linear_697_111"
       x1="8.02349"
       y1="13.6297"
       x2="8.02349"
       y2="4.76415"
       gradientUnits="userSpaceOnUse">
      <stop
         stop-color="#FDA700"
         id="stop4" />
      <stop
         offset="1"
         stop-color="#FFDE00"
         id="stop5" />
    </linearGradient>
    <linearGradient
       id="paint2_linear_697_111"
       x1="8.03931"
       y1="17.3829"
       x2="8.03931"
       y2="2.60709"
       gradientUnits="userSpaceOnUse">
      <stop
         stop-color="#FDA700"
         id="stop6" />
      <stop
         offset="1"
         stop-color="#FFDE00"
         id="stop7" />
    </linearGradient>
    <clipPath
       id="clip0_697_111">
      <rect
         width="16"
         height="16"
         fill="white"
         id="rect7" />
    </clipPath>
  </defs>
  <path
     d="M 8,0 C 8.33136,0 8.6,0.268632 8.6,0.6 V 1.8 C 8.6,2.131368 8.33136,2.4 8,2.4 7.66864,2.4 7.4,2.131368 7.4,1.8 V 0.6 C 7.4,0.268632 7.66864,0 8,0 Z m 0,12 c 2.20912,0 4,-1.79088 4,-4 C 12,5.790864 10.20912,4 8,4 5.790864,4 4,5.790864 4,8 c 0,2.20912 1.790864,4 4,4 z M 8,10.8 C 6.4536,10.8 5.2,9.5464 5.2,8 5.2,6.4536 6.4536,5.2 8,5.2 c 1.5464,0 2.8,1.2536 2.8,2.8 0,1.5464 -1.2536,2.8 -2.8,2.8 z M 15.4,8.6 C 15.73136,8.6 16,8.33136 16,8 16,7.66864 15.73136,7.4 15.4,7.4 h -1.2 c -0.33136,0 -0.6,0.26864 -0.6,0.6 0,0.33136 0.26864,0.6 0.6,0.6 z m -7.4,5 c 0.33136,0 0.6,0.26864 0.6,0.6 v 1.2 C 8.6,15.73136 8.33136,16 8,16 7.66864,16 7.4,15.73136 7.4,15.4 V 14.2 C 7.4,13.86864 7.66864,13.6 8,13.6 Z M 1.8,8.6 C 2.131368,8.6 2.4,8.33136 2.4,8 2.4,7.66864 2.131368,7.4 1.8,7.4 H 0.6 C 0.268632,7.4 0,7.66864 0,8 0,8.33136 0.268632,8.6 0.6,8.6 Z M 1.775736,1.776032 c 0.234312,-0.234312 0.614216,-0.234312 0.848528,0 l 1.2,1.2 c 0.234312,0.23432 0.234312,0.614216 0,0.848528 -0.234312,0.23432 -0.614216,0.23432 -0.848528,0 l -1.2,-1.2 c -0.234312,-0.234312 -0.234312,-0.614208 0,-0.848528 z M 2.624264,14.22456 c -0.234312,0.23432 -0.614216,0.23432 -0.848528,0 -0.234312,-0.23432 -0.234312,-0.61424 0,-0.84856 l 1.2,-1.2 c 0.234312,-0.23432 0.614216,-0.23432 0.848528,0 0.234312,0.23432 0.234312,0.61424 0,0.84856 z M 14.22424,1.776032 c -0.23432,-0.234312 -0.61416,-0.234312 -0.84848,0 l -1.2,1.2 c -0.23432,0.23432 -0.23432,0.614216 0,0.848528 0.23432,0.23432 0.61416,0.23432 0.84848,0 l 1.2,-1.2 c 0.23432,-0.234312 0.23432,-0.614208 0,-0.848528 z M 13.37576,14.22456 c 0.23432,0.23432 0.61416,0.23432 0.84848,0 0.23432,-0.23432 0.23432,-0.61424 0,-0.84856 l -1.2,-1.2 c -0.23432,-0.23432 -0.61416,-0.23432 -0.84848,0 -0.23432,0.23432 -0.23432,0.61424 0,0.84856 z"
     fill="#000000"
     id="path1-3"
     style="fill:#fece00;fill-opacity:1;stroke-width:1" />
</svg>
