<?xml version="1.0" encoding="UTF-8" standalone="no"?>
<svg
   width="16"
   height="16"
   viewBox="0 0 16 16"
   fill="none"
   version="1.1"
   id="svg7"
   sodipodi:docname="weather-few-clouds.svg"
   inkscape:version="1.4 (e7c3feb100, 2024-10-09)"
   xmlns:inkscape="http://www.inkscape.org/namespaces/inkscape"
   xmlns:sodipodi="http://sodipodi.sourceforge.net/DTD/sodipodi-0.dtd"
   xmlns="http://www.w3.org/2000/svg"
   xmlns:svg="http://www.w3.org/2000/svg">
  <sodipodi:namedview
     id="namedview7"
     pagecolor="#ffffff"
     bordercolor="#000000"
     borderopacity="0.25"
     inkscape:showpageshadow="2"
     inkscape:pageopacity="0.0"
     inkscape:pagecheckerboard="0"
     inkscape:deskcolor="#d1d1d1"
     inkscape:zoom="27.908701"
     inkscape:cx="1.1107647"
     inkscape:cy="11.627198"
     inkscape:window-width="1906"
     inkscape:window-height="990"
     inkscape:window-x="0"
     inkscape:window-y="0"
     inkscape:window-maximized="1"
     inkscape:current-layer="svg7" />
  <defs
     id="defs7">
    <linearGradient
       id="paint0_linear_697_74"
       x1="9.87679"
       y1="14"
       x2="9.87679"
       y2="-14.086"
       gradientUnits="userSpaceOnUse">
      <stop
         stop-color="#18AEFA"
         id="stop2" />
      <stop
         offset="1"
         stop-color="#83E1FF"
         id="stop3" />
    </linearGradient>
    <linearGradient
       id="paint1_linear_697_74"
       x1="9.35431"
       y1="8.40813"
       x2="14.828"
       y2="3.92951"
       gradientUnits="userSpaceOnUse">
      <stop
         stop-color="#FFC025"
         id="stop4" />
      <stop
         offset="1"
         stop-color="#FFFF7F"
         id="stop5" />
    </linearGradient>
    <linearGradient
       id="paint2_linear_697_74"
       x1="9.35431"
       y1="8.40813"
       x2="14.828"
       y2="3.92951"
       gradientUnits="userSpaceOnUse">
      <stop
         stop-color="#FFC025"
         id="stop6" />
      <stop
         offset="1"
         stop-color="#FFFF7F"
         id="stop7" />
    </linearGradient>
  </defs>
  <path
     id="path11"
     style="fill:#faf532;fill-opacity:1;stroke-width:1"
     d="M 7.0253906 1.5996094 C 6.8025529 1.6121751 6.5950292 1.7506975 6.5039062 1.9707031 L 6.1972656 2.7109375 L 6.1699219 2.7949219 C 6.0988053 3.0785804 6.243201 3.3788791 6.5214844 3.4941406 C 6.8275953 3.6209283 7.1779079 3.4760168 7.3046875 3.1699219 L 7.6132812 2.4296875 L 7.640625 2.34375 C 7.7117336 2.0600915 7.5653847 1.7598007 7.2871094 1.6445312 C 7.2010157 1.6088722 7.112588 1.5946923 7.0253906 1.5996094 z M 3.2460938 1.6035156 C 3.1832785 1.6079536 3.1199721 1.6230123 3.0585938 1.6484375 C 2.7524909 1.7752252 2.6075874 2.1255378 2.734375 2.4316406 L 3.0410156 3.1738281 L 3.0761719 3.2460938 C 3.224932 3.5014128 3.5436319 3.6142682 3.8242188 3.4980469 C 4.1303217 3.3712592 4.2752254 3.0209388 4.1484375 2.7148438 L 3.8417969 1.9726562 L 3.8066406 1.9003906 C 3.690428 1.7009127 3.4704338 1.5876657 3.2460938 1.6035156 z M 5.1992188 3.6191406 C 4.7892389 3.615905 4.3713724 3.6945549 3.96875 3.8613281 C 2.3600801 4.5276612 1.5953857 6.3718229 2.2617188 7.9804688 C 2.3169658 8.1138874 2.3801273 8.2412673 2.4511719 8.3613281 C 2.7818069 8.1346444 3.151209 7.9595118 3.5449219 7.8496094 C 3.4777326 7.7475458 3.4195739 7.6385056 3.3710938 7.5214844 C 2.9583439 6.5250043 3.4312623 5.3814998 4.4277344 4.96875 C 4.8752546 4.7833797 5.3526294 4.7769339 5.7792969 4.9160156 C 6.1292328 4.6648479 6.5200542 4.4614663 6.9472656 4.3105469 L 7.0839844 4.2636719 C 6.5443959 3.8540276 5.8825185 3.6245334 5.1992188 3.6191406 z M 0.59375 4.2714844 C 0.36391943 4.2772907 0.14833747 4.4145327 0.0546875 4.640625 C -0.07210816 4.9467199 0.07281136 5.2989936 0.37890625 5.4257812 L 1.1191406 5.7324219 L 1.2050781 5.7597656 C 1.4887365 5.8308822 1.7890354 5.6864704 1.9042969 5.4082031 C 2.0310846 5.1021002 1.886173 4.749843 1.5800781 4.6230469 L 0.83789062 4.3164062 L 0.75390625 4.2890625 C 0.70072028 4.2757281 0.64678782 4.2701445 0.59375 4.2714844 z M 1.3164062 7.7597656 C 1.2479728 7.7626218 1.1782864 7.7769544 1.1113281 7.8046875 L 0.37109375 8.1113281 L 0.296875 8.1484375 C 0.04155596 8.2972136 -0.071307475 8.6158894 0.044921875 8.8964844 C 0.17170954 9.2025952 0.52398323 9.3474827 0.83007812 9.2207031 L 1.5703125 8.9140625 L 1.6445312 8.8769531 C 1.8998529 8.728257 2.0107606 8.4095012 1.8945312 8.1289062 C 1.7954784 7.8897571 1.5608113 7.7495651 1.3164062 7.7597656 z " />
  <path
     style="fill:#32bbfa;fill-opacity:1;stroke-width:1"
     d="m 8.801555,4.8060139 c 2.534473,0 3.972163,1.6775308 4.181249,3.7035257 h 0.06399 C 14.677812,8.5095396 16,9.8282884 16,11.455067 c 0,1.626779 -1.322188,2.945528 -2.953206,2.945528 H 4.5563724 c -1.6310023,0 -2.9531901,-1.318749 -2.9531901,-2.945528 0,-1.6267786 1.3221878,-2.9455274 2.9532061,-2.9455274 h 0.06395 C 4.8306484,6.4702668 6.2671699,4.8060139 8.801555,4.8060139 Z m 0,1.1978798 c -1.6567739,0 -3.1008382,1.3063984 -3.1008382,3.1109088 0,0.2858742 -0.255119,0.5102385 -0.5472402,0.5102385 H 4.6011173 c -1.0086302,0 -1.826291,0.800911 -1.826291,1.788833 0,0.988001 0.8176608,1.788833 1.826291,1.788833 h 8.4009637 c 1.008638,0 1.826267,-0.800832 1.826267,-1.788833 0,-0.987922 -0.817629,-1.788833 -1.826267,-1.788833 H 12.44969 c -0.292113,0 -0.547273,-0.2243643 -0.547273,-0.5102385 0,-1.8277067 -1.444008,-3.1109088 -3.100862,-3.1109088 z"
     id="path1-3" />
</svg>
