<?xml version="1.0" encoding="UTF-8" standalone="no"?>
<svg
   width="16"
   height="16"
   viewBox="0 0 16 16"
   fill="none"
   version="1.1"
   id="svg9"
   sodipodi:docname="weather-few-clouds-night.svg"
   xmlns:inkscape="http://www.inkscape.org/namespaces/inkscape"
   xmlns:sodipodi="http://sodipodi.sourceforge.net/DTD/sodipodi-0.dtd"
   xmlns="http://www.w3.org/2000/svg"
   xmlns:svg="http://www.w3.org/2000/svg">
  <sodipodi:namedview
     id="namedview9"
     pagecolor="#ffffff"
     bordercolor="#000000"
     borderopacity="0.25"
     inkscape:showpageshadow="2"
     inkscape:pageopacity="0.0"
     inkscape:pagecheckerboard="0"
     inkscape:deskcolor="#d1d1d1" />
  <defs
     id="defs9">
    <linearGradient
       id="paint0_linear_697_95"
       x1="9.87679"
       y1="14"
       x2="9.87679"
       y2="-14.086"
       gradientUnits="userSpaceOnUse">
      <stop
         stop-color="#18AEFA"
         id="stop2" />
      <stop
         offset="1"
         stop-color="#83E1FF"
         id="stop3" />
    </linearGradient>
    <linearGradient
       id="paint1_linear_697_95"
       x1="8.11334"
       y1="2.06999"
       x2="15.4495"
       y2="9.39043"
       gradientUnits="userSpaceOnUse">
      <stop
         stop-color="#F9D423"
         id="stop4" />
      <stop
         offset="0.515624"
         stop-color="#FF4E50"
         id="stop5" />
      <stop
         offset="0.991304"
         stop-color="#8A2387"
         id="stop6" />
    </linearGradient>
    <linearGradient
       id="paint2_linear_697_95"
       x1="8.11334"
       y1="2.06999"
       x2="15.4495"
       y2="9.39043"
       gradientUnits="userSpaceOnUse">
      <stop
         stop-color="#F9D423"
         id="stop7" />
      <stop
         offset="0.515624"
         stop-color="#FF4E50"
         id="stop8" />
      <stop
         offset="0.991304"
         stop-color="#8A2387"
         id="stop9" />
    </linearGradient>
  </defs>
  <path
     style="fill:#ff564d;fill-opacity:1"
     d="M -0.41104,1.00112 C 0.38399,1.04377 1.15596,1.27289 1.85205,1.67478 2.90661,2.28363 3.6601,3.21368 4.0604,4.27 3.5598,4.41087 3.0973,4.60772 2.67442,4.854 2.39882,4.08892 1.86097,3.41367 1.10132,2.97508 0.90326,2.86073 0.69677,2.76624 0.48406,2.69222 0.64458,4.04385 0.43653,5.20544 -0.13842,6.30296 L -0.25637,6.51599 C -0.82728,7.4924 -1.6883,8.2237 -2.97462,8.8204 c 0.15553,0.1291 0.32267,0.2455 0.50022,0.348 0.18481,0.1067 0.37518,0.195 0.56901,0.2655 -0.45028,0.3017 -0.8448,0.6813 -1.16531,1.1191 C -3.12234,10.5269 -3.17389,10.4983 -3.22515,10.4687 -3.88267,10.089 -4.44084,9.5736 -4.86728,8.9543 -5.14677,8.5484 -4.96595,7.9878 -4.50192,7.8218 -2.8595,7.2339 -1.97458,6.57237 -1.46847,5.60619 -0.91573,4.55111 -0.81362,3.43213 -1.18059,1.92875 -1.2999,1.43975 -0.91365,0.97415 -0.41104,1.00112 Z"
     id="path10" />
  <path
     style="fill:#25b4fa;fill-opacity:1"
     d="m 6.0017,6.50649 c -2.0713,0 -3.87672,1.63321 -3.87672,3.88921 0,0.3575 -0.31895,0.638 -0.68416,0.6379 H 0.75026 c -1.26099,0 -2.28323,1.0013 -2.28323,2.2365 0,1.2351 1.02224,2.2364 2.28323,2.2364 H 11.2531 c 1.261,0 2.2832,-1.0013 2.2832,-2.2364 0,-1.2352 -1.0222,-2.2365 -2.2832,-2.2365 H 10.5626 C 10.1973,11.0337 9.8784,10.7532 9.8784,10.3957 9.8784,8.1108 8.073,6.50649 6.0017,6.50649 Z"
     id="path9" />
  <path
     style="fill:#25b4fa;fill-opacity:1"
     d="m 6.0017,5.00891 c 3.1685,0 4.966,2.09729 5.2274,4.63009 h 0.08 c 2.039,0 3.692,1.6488 3.692,3.6826 0,2.0338 -1.653,3.6825 -3.692,3.6825 H 0.69432 c -2.03908,0 -3.69208,-1.6487 -3.69208,-3.6825 0,-2.0338 1.653,-3.6826 3.69211,-3.6826 H 0.77429 C 1.03723,7.0895 2.83316,5.00891 6.0017,5.00891 Z"
     id="path1-3" />
</svg>
