<?xml version="1.0" encoding="UTF-8" standalone="no"?>
<svg
   width="16"
   height="16"
   viewBox="0 0 16 16"
   fill="none"
   version="1.1"
   id="svg10"
   sodipodi:docname="weather-clear-night-small.svg"
   inkscape:version="1.4 (e7c3feb100, 2024-10-09)"
   xmlns:inkscape="http://www.inkscape.org/namespaces/inkscape"
   xmlns:sodipodi="http://sodipodi.sourceforge.net/DTD/sodipodi-0.dtd"
   xmlns="http://www.w3.org/2000/svg"
   xmlns:svg="http://www.w3.org/2000/svg">
  <sodipodi:namedview
     id="namedview10"
     pagecolor="#ffffff"
     bordercolor="#000000"
     borderopacity="0.25"
     inkscape:showpageshadow="2"
     inkscape:pageopacity="0.0"
     inkscape:pagecheckerboard="0"
     inkscape:deskcolor="#d1d1d1"
     inkscape:zoom="37.434822"
     inkscape:cx="8.0005724"
     inkscape:cy="8.2142771"
     inkscape:window-width="1906"
     inkscape:window-height="990"
     inkscape:window-x="0"
     inkscape:window-y="0"
     inkscape:window-maximized="1"
     inkscape:current-layer="svg10" />
  <g
     id="g1">
    <path
       d="M 14.27741,11.996655 C 12.067129,15.824934 7.1720032,17.136585 3.3437251,14.926304 2.3011901,14.324417 1.4235439,13.510137 0.75508977,12.539482 0.53159677,12.214891 0.67616657,11.766736 1.0471663,11.633971 4.0621485,10.554799 5.6769445,9.3043686 6.6139711,7.5156726 7.6004708,5.6326082 7.8553585,3.56993 7.1652809,0.7425565 7.0698881,0.35158988 7.3786344,-0.02066629 7.7805328,8.9312822e-4 9.0265618,0.06774015 10.243861,0.42565539 11.347681,1.0629948 15.175959,3.2732359 16.487611,8.1683774 14.27741,11.996655 Z M 7.6772972,8.0726645 C 6.6759124,9.9842026 5.0272328,11.353074 2.2214506,12.4733 c 0.4867756,0.556911 1.065735,1.034276 1.7224812,1.413446 3.2540804,1.878727 7.4151132,0.763783 9.2938402,-2.490297 C 15.116579,8.1423685 14.001635,3.9813437 10.747474,2.1025848 10.045633,1.6973492 9.2911329,1.4252396 8.513025,1.2898729 9.0308833,3.9979974 8.6968483,6.1264903 7.6772972,8.0726645 Z"
       fill="#000000"
       id="path1-3"
       style="fill:#c1376d;fill-opacity:1;stroke-width:1" />
  </g>
  <defs
     id="defs10">
    <linearGradient
       id="paint0_linear_697_152"
       x1="-2.96758"
       y1="0.682027"
       x2="16.1045"
       y2="20.3376"
       gradientUnits="userSpaceOnUse">
      <stop
         stop-color="#F9D423"
         id="stop2" />
      <stop
         offset="0.515624"
         stop-color="#FF4E50"
         id="stop3" />
      <stop
         offset="0.991304"
         stop-color="#8A2387"
         id="stop4" />
    </linearGradient>
    <linearGradient
       id="paint1_linear_697_152"
       x1="1.14077"
       y1="1.46453"
       x2="14.8863"
       y2="15.6306"
       gradientUnits="userSpaceOnUse">
      <stop
         stop-color="#F9D423"
         id="stop5" />
      <stop
         offset="0.515624"
         stop-color="#FF4E50"
         id="stop6" />
      <stop
         offset="0.991304"
         stop-color="#8A2387"
         id="stop7" />
    </linearGradient>
    <linearGradient
       id="paint2_linear_697_152"
       x1="1.14077"
       y1="1.46453"
       x2="14.8863"
       y2="15.6306"
       gradientUnits="userSpaceOnUse">
      <stop
         stop-color="#F9D423"
         id="stop8" />
      <stop
         offset="0.515624"
         stop-color="#FF4E50"
         id="stop9" />
      <stop
         offset="0.991304"
         stop-color="#8A2387"
         id="stop10" />
    </linearGradient>
    <clipPath
       id="clip0_697_152">
      <rect
         width="16"
         height="16"
         fill="white"
         id="rect10" />
    </clipPath>
  </defs>
</svg>
