<?xml version="1.0" encoding="UTF-8" standalone="no"?>
<svg
   width="16"
   height="16"
   viewBox="0 0 16 16"
   fill="none"
   version="1.1"
   id="svg14"
   sodipodi:docname="weather-freezing-rain.svg"
   inkscape:version="1.4 (e7c3feb100, 2024-10-09)"
   xmlns:inkscape="http://www.inkscape.org/namespaces/inkscape"
   xmlns:sodipodi="http://sodipodi.sourceforge.net/DTD/sodipodi-0.dtd"
   xmlns="http://www.w3.org/2000/svg"
   xmlns:svg="http://www.w3.org/2000/svg">
  <sodipodi:namedview
     id="namedview14"
     pagecolor="#ffffff"
     bordercolor="#000000"
     borderopacity="0.25"
     inkscape:showpageshadow="2"
     inkscape:pageopacity="0.0"
     inkscape:pagecheckerboard="0"
     inkscape:deskcolor="#d1d1d1"
     inkscape:zoom="35.81475"
     inkscape:cx="5.6959773"
     inkscape:cy="7.4131469"
     inkscape:window-width="1906"
     inkscape:window-height="992"
     inkscape:window-x="0"
     inkscape:window-y="0"
     inkscape:window-maximized="1"
     inkscape:current-layer="svg14" />
  <defs
     id="defs14">
    <linearGradient
       id="paint0_linear_697_102"
       x1="9.87679"
       y1="14"
       x2="9.87679"
       y2="-14.086"
       gradientUnits="userSpaceOnUse">
      <stop
         stop-color="#18AEFA"
         id="stop5" />
      <stop
         offset="1"
         stop-color="#83E1FF"
         id="stop6" />
    </linearGradient>
    <linearGradient
       id="paint1_linear_697_102"
       x1="6.90312"
       y1="10.0133"
       x2="10.6718"
       y2="14.4952"
       gradientUnits="userSpaceOnUse">
      <stop
         stop-color="white"
         id="stop7" />
      <stop
         offset="1"
         stop-color="#98E1FD"
         id="stop8" />
    </linearGradient>
    <linearGradient
       id="paint2_linear_697_102"
       x1="6.90312"
       y1="10.0133"
       x2="10.6718"
       y2="14.4952"
       gradientUnits="userSpaceOnUse">
      <stop
         stop-color="white"
         id="stop9" />
      <stop
         offset="1"
         stop-color="#98E1FD"
         id="stop10" />
    </linearGradient>
    <linearGradient
       id="paint3_linear_697_102"
       x1="6.90312"
       y1="10.0133"
       x2="10.6718"
       y2="14.4952"
       gradientUnits="userSpaceOnUse">
      <stop
         stop-color="white"
         id="stop11" />
      <stop
         offset="1"
         stop-color="#98E1FD"
         id="stop12" />
    </linearGradient>
    <linearGradient
       id="paint4_linear_697_102"
       x1="6.90312"
       y1="10.0133"
       x2="10.6718"
       y2="14.4952"
       gradientUnits="userSpaceOnUse">
      <stop
         stop-color="white"
         id="stop13" />
      <stop
         offset="1"
         stop-color="#98E1FD"
         id="stop14" />
    </linearGradient>
  </defs>
  <path
     d="m 10.220539,13.332063 c 0.368289,0 0.666707,0.298507 0.666707,0.666707 0,0.3682 -0.298418,0.666707 -0.666707,0.666707 -0.3682002,0 -0.6667071,-0.298507 -0.6667071,-0.666707 0,-0.3682 0.2985069,-0.666707 0.6667071,-0.666707 z M 7.99996,1.3319409 c 2.816704,0 4.41449,1.8643707 4.646859,4.1159115 h 0.07112 C 14.530578,5.4478524 16,6.9134522 16,8.7213837 16,10.529316 14.530578,11.995005 12.717935,11.995005 l -1.161937,8.89e-4 c -0.08436,0.271483 -0.337621,0.46865 -0.636839,0.46865 -0.299218,0 -0.552478,-0.197167 -0.636839,-0.46865 l -4.9602199,-0.0011 -1.4034895,2.335252 C 3.7345017,14.649032 3.3267526,14.758283 3.007871,14.574183 2.71556,14.405373 2.5994019,14.048729 2.7238716,13.744799 l 0.039967,-0.08143 1.0186128,-1.668545 -0.5004037,1.78e-4 C 1.4694223,11.995005 0,10.529316 0,8.7213837 0,6.9134522 1.4694223,5.4478524 3.2820654,5.4478524 h 0.071062 C 3.5868661,3.1815107 5.183345,1.3319409 7.99996,1.3319409 Z M 7.6246484,12.624909 c 0.2922844,0.168811 0.4084692,0.525454 0.2840172,0.829384 l -0.040002,0.08143 -0.5037639,0.798893 C 7.1807993,14.653477 6.7730413,14.762728 6.4541775,14.578628 6.1618398,14.409906 6.0456728,14.053174 6.1701514,13.749333 l 0.039967,-0.08143 0.5038083,-0.798893 c 0.1841,-0.318953 0.591858,-0.428204 0.9107218,-0.244104 z m 5.0422606,0.262683 c 0.3682,0 0.666707,0.298507 0.666707,0.666707 0,0.3682 -0.298507,0.666707 -0.666707,0.666707 -0.3682,0 -0.666707,-0.298507 -0.666707,-0.666707 0,-0.3682 0.298507,-0.666707 0.666707,-0.666707 z M 7.99996,2.6632126 c -1.8412582,0 -3.4461465,1.4518568 -3.4461465,3.4572849 0,0.3177615 -0.2835282,0.5670744 -0.608179,0.5670744 H 3.3317751 c -1.1209568,0 -2.0296607,0.8900983 -2.0296607,1.9880312 0,1.0980221 0.9087039,1.9881209 2.0296607,1.9881209 h 9.3364679 c 1.120956,0 2.029634,-0.8900988 2.029634,-1.9881209 0,-1.0979329 -0.908678,-1.9880312 -2.029634,-1.9880312 h -0.613904 c -0.324642,0 -0.608215,-0.2493129 -0.608215,-0.5670744 0,-2.0311541 -1.604808,-3.4572849 -3.446164,-3.4572849 z"
     fill="#000000"
     id="path1-3"
     style="fill:#25b4fa;fill-opacity:1;stroke-width:0.999998" />
</svg>
