<?xml version="1.0" encoding="UTF-8" standalone="no"?>
<svg
   width="16"
   height="16"
   viewBox="0 0 16 16"
   fill="none"
   version="1.1"
   id="svg5"
   sodipodi:docname="weather-few-clouds-wind-night.svg"
   inkscape:version="1.4 (e7c3feb100, 2024-10-09)"
   xmlns:inkscape="http://www.inkscape.org/namespaces/inkscape"
   xmlns:sodipodi="http://sodipodi.sourceforge.net/DTD/sodipodi-0.dtd"
   xmlns="http://www.w3.org/2000/svg"
   xmlns:svg="http://www.w3.org/2000/svg">
  <sodipodi:namedview
     id="namedview5"
     pagecolor="#ffffff"
     bordercolor="#000000"
     borderopacity="0.25"
     inkscape:showpageshadow="2"
     inkscape:pageopacity="0.0"
     inkscape:pagecheckerboard="0"
     inkscape:deskcolor="#d1d1d1"
     inkscape:zoom="17.963248"
     inkscape:cx="4.6205453"
     inkscape:cy="11.718371"
     inkscape:window-width="1906"
     inkscape:window-height="990"
     inkscape:window-x="0"
     inkscape:window-y="0"
     inkscape:window-maximized="1"
     inkscape:current-layer="svg5" />
  <defs
     id="defs5">
    <linearGradient
       id="paint0_linear_697_91"
       x1="8.09985"
       y1="14.2866"
       x2="8.09985"
       y2="2.4755"
       gradientUnits="userSpaceOnUse">
      <stop
         stop-color="#18AEFA"
         id="stop2" />
      <stop
         offset="1"
         stop-color="#83E1FF"
         id="stop3" />
    </linearGradient>
    <linearGradient
       id="paint1_linear_697_91"
       x1="9.87679"
       y1="14"
       x2="9.87679"
       y2="-14.086"
       gradientUnits="userSpaceOnUse">
      <stop
         stop-color="#18AEFA"
         id="stop4" />
      <stop
         offset="1"
         stop-color="#83E1FF"
         id="stop5" />
    </linearGradient>
  </defs>
  <path
     d="M 4.8913394,3.9461422 C 5.2994962,2.5856327 6.5670652,1.660808 7.9788827,1.660808 c 1.7442286,0 3.1908323,1.4127603 3.1908323,3.1696039 C 11.169715,6.5809719 9.7506076,8 8.000119,8 H 0.67042806 C 0.34220847,8 0.07612881,7.7339124 0.07612881,7.4057007 c 0,-0.3282116 0.26607966,-0.5942992 0.59429925,-0.5942992 H 8.000119 c 1.0940653,0 1.9809975,-0.8869164 1.9809975,-1.9809896 0,-1.0877578 -0.9017501,-1.9810054 -2.0022338,-1.9810054 -0.8954903,0 -1.6941968,0.588697 -1.9490719,1.4382834 L 5.9940577,4.4068747 C 5.8997464,4.721259 5.5684285,4.8996517 5.2540521,4.8053404 4.9396678,4.7110291 4.7612751,4.3797112 4.8555864,4.0653348 Z m 6.5069826,4.0640005 c 0.31482,-0.9445396 1.202149,-1.5949407 2.204533,-1.5949407 1.281864,0 2.321016,1.039152 2.321016,2.3210159 v 0.056181 c 0,1.3128471 -1.06435,2.3771971 -2.377197,2.3771971 h -1.029801 c 0.151982,0.29715 0.23764,0.63384 0.23764,0.990499 0,1.203495 -0.975602,2.179097 -2.179097,2.179097 H 10.4686 c -0.7665665,0 -1.4674434,-0.432571 -1.8111068,-1.117679 -0.1471485,-0.293346 -0.028606,-0.65048 0.2647405,-0.797708 0.2934253,-0.147148 0.6505596,-0.0286 0.7977081,0.264741 0.1420771,0.283282 0.4317782,0.462047 0.7486582,0.462047 h 0.106816 c 0.547072,0 0.990498,-0.443426 0.990498,-0.990498 0,-0.547073 -0.443426,-0.990499 -0.990498,-0.990499 H 8.1982187 8.1952076 0.67042806 c -0.32821959,0 -0.59429925,-0.266088 -0.59429925,-0.594299 0,-0.328212 0.26607966,-0.5942996 0.59429925,-0.5942996 H 13.546674 c 0.656424,0 1.188599,-0.5321752 1.188599,-1.1885985 v -0.056181 c 0,-0.6254405 -0.506977,-1.1324174 -1.132418,-1.1324174 -0.484076,0 -0.921718,0.3166426 -1.076949,0.7822563 C 12.422102,8.6973904 12.08557,8.8656959 11.774157,8.7618916 11.462823,8.6580874 11.294518,8.3215555 11.398322,8.0101427 Z"
     fill="#000000"
     id="path1-3"
     style="fill:#28b6fa;fill-opacity:1;stroke-width:1" />
</svg>
