<?xml version="1.0" encoding="UTF-8" standalone="no"?>
<svg
   width="16"
   height="16"
   viewBox="0 0 16 16"
   fill="none"
   version="1.1"
   id="svg5"
   sodipodi:docname="bookmarks.svg"
   inkscape:version="1.4 (e7c3feb100, 2024-10-09)"
   xmlns:inkscape="http://www.inkscape.org/namespaces/inkscape"
   xmlns:sodipodi="http://sodipodi.sourceforge.net/DTD/sodipodi-0.dtd"
   xmlns="http://www.w3.org/2000/svg"
   xmlns:svg="http://www.w3.org/2000/svg">
  <sodipodi:namedview
     id="namedview5"
     pagecolor="#ffffff"
     bordercolor="#000000"
     borderopacity="0.25"
     inkscape:showpageshadow="2"
     inkscape:pageopacity="0.0"
     inkscape:pagecheckerboard="0"
     inkscape:deskcolor="#d1d1d1"
     inkscape:zoom="32.178223"
     inkscape:cx="4.1176916"
     inkscape:cy="6.4173835"
     inkscape:window-width="1906"
     inkscape:window-height="1006"
     inkscape:window-x="0"
     inkscape:window-y="0"
     inkscape:window-maximized="1"
     inkscape:current-layer="svg5" />
  <path
     d="m 7.1120168,1.5293914 c 0.3630471,-0.73636208 1.4125831,-0.73636208 1.7756302,0 l 1.729424,3.5035873 3.867368,0.5618061 c 0.811905,0.118082 1.13608,1.116278 0.548605,1.6890856 l -2.798763,2.7283536 0.660818,3.850498 c 0.139352,0.808972 -0.709958,1.425785 -1.436785,1.044402 L 7.9994652,13.088222 4.5413509,14.907124 C 3.8152568,15.288507 2.9659468,14.672427 3.1038312,13.862722 L 3.7646503,10.012224 0.96662099,7.2838704 C 0.37914488,6.7117963 0.70332022,5.7128668 1.5152254,5.5947848 L 5.3825932,5.0329787 Z M 7.9994651,2.2158804 6.3433839,5.5720486 A 0.99012831,0.99012831 0 0 1 5.598221,6.1133187 L 1.8944078,6.6516551 4.5743551,9.264127 c 0.2332302,0.2273626 0.3395773,0.5552052 0.2845702,0.876446 L 4.22671,13.829718 7.5388721,12.087826 a 0.99012831,0.99012831 0 0 1 0.9219196,0 l 3.3121633,1.741159 -0.632216,-3.688412 a 0.99012831,0.99012831 0 0 1 0.28457,-0.876446 L 14.105257,6.6516551 10.401444,6.1133187 A 0.99012831,0.99012831 0 0 1 9.6562797,5.5720486 Z"
     fill="#212121"
     id="path1-3"
     style="stroke-width:0.733429;fill:#eeac38;fill-opacity:1" />
  <defs
     id="defs5">
    <linearGradient
       id="paint0_linear_448_214"
       x1="6.79969"
       y1="15.3332"
       x2="6.79969"
       y2="4.39258"
       gradientUnits="userSpaceOnUse">
      <stop
         stop-color="#FD5900"
         id="stop2" />
      <stop
         offset="1"
         stop-color="#FFDE00"
         id="stop3" />
    </linearGradient>
    <linearGradient
       id="paint1_linear_448_214"
       x1="10.1993"
       y1="11.668"
       x2="10.1993"
       y2="0.666504"
       gradientUnits="userSpaceOnUse">
      <stop
         stop-color="#FD5900"
         id="stop4" />
      <stop
         offset="1"
         stop-color="#FFDE00"
         id="stop5" />
    </linearGradient>
    <clipPath
       id="clip0_448_214">
      <rect
         width="16"
         height="16"
         fill="white"
         id="rect5" />
    </clipPath>
  </defs>
</svg>
