<?xml version="1.0" encoding="UTF-8" standalone="no"?>
<svg
   width="16"
   height="16"
   viewBox="0 0 16 16"
   fill="none"
   version="1.1"
   id="svg5"
   sodipodi:docname="default-folder-open.svg"
   inkscape:version="1.4 (e7c3feb100, 2024-10-09)"
   xmlns:inkscape="http://www.inkscape.org/namespaces/inkscape"
   xmlns:sodipodi="http://sodipodi.sourceforge.net/DTD/sodipodi-0.dtd"
   xmlns="http://www.w3.org/2000/svg"
   xmlns:svg="http://www.w3.org/2000/svg">
  <sodipodi:namedview
     id="namedview5"
     pagecolor="#ffffff"
     bordercolor="#000000"
     borderopacity="0.25"
     inkscape:showpageshadow="2"
     inkscape:pageopacity="0.0"
     inkscape:pagecheckerboard="0"
     inkscape:deskcolor="#d1d1d1"
     inkscape:zoom="33.195611"
     inkscape:cx="4.6391675"
     inkscape:cy="7.0641868"
     inkscape:window-width="1906"
     inkscape:window-height="1006"
     inkscape:window-x="0"
     inkscape:window-y="0"
     inkscape:window-maximized="1"
     inkscape:current-layer="svg5" />
  <defs
     id="defs5">
    <linearGradient
       id="paint0_linear_448_285"
       x1="7.99895"
       y1="8.20526"
       x2="7.99895"
       y2="0.666994"
       gradientUnits="userSpaceOnUse">
      <stop
         stop-color="#02AA93"
         id="stop2" />
      <stop
         offset="1"
         stop-color="#67FF80"
         id="stop3" />
    </linearGradient>
    <linearGradient
       id="paint1_linear_448_285"
       x1="8.00023"
       y1="15.3333"
       x2="8.00023"
       y2="2.93945"
       gradientUnits="userSpaceOnUse">
      <stop
         stop-color="#02AA93"
         id="stop4" />
      <stop
         offset="1"
         stop-color="#67FF80"
         id="stop5" />
    </linearGradient>
    <clipPath
       id="clip0_448_285">
      <rect
         width="16"
         height="16"
         fill="white"
         id="rect5" />
    </clipPath>
  </defs>
  <path
     d="M 13.887619,6.1654447 V 5.6131685 A 1.6524219,1.6524219 0 0 0 12.235198,3.9607468 H 8.0307015 L 6.2828067,2.5066156 A 1.6524219,1.6524219 0 0 0 5.2245223,2.1247225 H 2.3206663 A 1.6524219,1.6524219 0 0 0 0.66824446,3.7771444 l -0.002938,8.4457106 A 1.6524219,1.6524219 0 0 0 2.3177286,13.875278 H 12.763972 A 1.285217,1.285217 0 0 0 14.011,12.902185 L 15.296217,7.7627858 A 1.285217,1.285217 0 0 0 14.04919,6.1654447 Z M 2.3206663,3.226337 H 5.2259911 A 0.55080729,0.55080729 0 0 1 5.5785078,3.35339 l 1.9006521,1.5819185 a 0.55080729,0.55080729 0 0 0 0.352517,0.1270528 h 4.4035211 a 0.55080729,0.55080729 0 0 1 0.550806,0.5508072 V 6.1654447 H 3.917273 A 1.6524219,1.6524219 0 0 0 2.3140566,7.4168788 L 1.7676558,9.603951 1.7698591,3.7771444 A 0.55080729,0.55080729 0 0 1 2.3206663,3.226337 Z M 3.3833571,7.684204 A 0.55080729,0.55080729 0 0 1 3.917273,7.2670592 H 14.04919 a 0.18360243,0.18360243 0 0 1 0.177726,0.227667 L 12.9417,12.634859 a 0.18360243,0.18360243 0 0 1 -0.177728,0.138804 H 2.3463706 A 0.18360243,0.18360243 0 0 1 2.1679091,12.545995 Z"
     fill="#212121"
     id="path1-3"
     style="stroke-width:0.734413;fill:#38ee69;fill-opacity:1" />
</svg>
