<?xml version="1.0" encoding="UTF-8" standalone="no"?>
<svg
   width="16"
   height="16"
   viewBox="0 0 16 16"
   fill="none"
   version="1.1"
   id="svg5"
   sodipodi:docname="folder.svg"
   inkscape:version="1.4 (e7c3feb100, 2024-10-09)"
   xmlns:inkscape="http://www.inkscape.org/namespaces/inkscape"
   xmlns:sodipodi="http://sodipodi.sourceforge.net/DTD/sodipodi-0.dtd"
   xmlns="http://www.w3.org/2000/svg"
   xmlns:svg="http://www.w3.org/2000/svg">
  <sodipodi:namedview
     id="namedview5"
     pagecolor="#ffffff"
     bordercolor="#000000"
     borderopacity="0.25"
     inkscape:showpageshadow="2"
     inkscape:pageopacity="0.0"
     inkscape:pagecheckerboard="0"
     inkscape:deskcolor="#d1d1d1"
     inkscape:zoom="26.854162"
     inkscape:cx="5.8091554"
     inkscape:cy="5.2692018"
     inkscape:window-width="1906"
     inkscape:window-height="1006"
     inkscape:window-x="0"
     inkscape:window-y="0"
     inkscape:window-maximized="1"
     inkscape:current-layer="svg5" />
  <defs
     id="defs5">
    <linearGradient
       id="paint0_linear_448_404"
       x1="7.99895"
       y1="8.20526"
       x2="7.99895"
       y2="0.666994"
       gradientUnits="userSpaceOnUse">
      <stop
         stop-color="#5570FF"
         id="stop2" />
      <stop
         offset="1"
         stop-color="#4DD3FF"
         id="stop3" />
    </linearGradient>
    <linearGradient
       id="paint1_linear_448_404"
       x1="8.00023"
       y1="15.3333"
       x2="8.00023"
       y2="2.93945"
       gradientUnits="userSpaceOnUse">
      <stop
         stop-color="#5570FF"
         id="stop4" />
      <stop
         offset="1"
         stop-color="#4DD3FF"
         id="stop5" />
    </linearGradient>
    <clipPath
       id="clip0_448_404">
      <rect
         width="16"
         height="16"
         fill="white"
         id="rect5" />
    </clipPath>
  </defs>
  <path
     d="m 5.2252102,2.1475857 c 0.3365127,0 0.664247,0.1031485 0.9393091,0.2940828 l 0.114122,0.087786 1.7374289,1.4470045 h 5.6534128 a 1.6459858,1.6459858 0 0 1 1.630623,1.4177424 l 0.01171,0.1155848 0.0037,0.1126586 v 6.5839442 a 1.6459858,1.6459858 0 0 1 -1.533327,1.642328 l -0.112659,0.0037 H 2.3304696 A 1.6459858,1.6459858 0 0 1 0.68814149,12.319048 l -0.003658,-0.112659 V 3.7935716 A 1.6459858,1.6459858 0 0 1 2.217811,2.1512434 l 0.1126586,-0.00366 z M 6.2786413,6.5215188 A 1.6459858,1.6459858 0 0 1 5.3685934,6.896072 l -0.1433832,0.00658 -3.4434025,-7.316e-4 v 5.3044641 c 0,0.277989 0.2062969,0.507695 0.4740439,0.543542 l 0.074618,0.0051 H 13.669483 a 0.54866196,0.54866196 0 0 0 0.543541,-0.474044 l 0.0051,-0.07461 V 5.6224479 A 0.54866196,0.54866196 0 0 0 13.744088,5.0789068 l -0.07462,-0.00512 H 8.0153288 Z M 5.2252102,3.2449096 H 2.3304696 a 0.54866196,0.54866196 0 0 0 -0.5435411,0.474044 l -0.00512,0.074618 V 5.8046005 L 5.2252108,5.805332 A 0.54866196,0.54866196 0 0 0 5.514169,5.7226668 L 5.5763499,5.6787739 6.9597093,4.5243892 5.577081,3.3721991 A 0.54866196,0.54866196 0 0 0 5.301291,3.2500305 Z"
     fill="#212121"
     id="path1-3"
     style="stroke-width:0.731549;fill:#eb308f;fill-opacity:1" />
</svg>
