<?xml version="1.0" encoding="UTF-8" standalone="no"?>
<svg
   width="16"
   height="16"
   viewBox="0 0 16 16"
   fill="none"
   version="1.1"
   id="svg2"
   sodipodi:docname="akonadi-phone-home.svg"
   inkscape:version="1.4 (e7c3feb100, 2024-10-09)"
   xmlns:inkscape="http://www.inkscape.org/namespaces/inkscape"
   xmlns:sodipodi="http://sodipodi.sourceforge.net/DTD/sodipodi-0.dtd"
   xmlns="http://www.w3.org/2000/svg"
   xmlns:svg="http://www.w3.org/2000/svg">
  <sodipodi:namedview
     id="namedview2"
     pagecolor="#ffffff"
     bordercolor="#000000"
     borderopacity="0.25"
     inkscape:showpageshadow="2"
     inkscape:pageopacity="0.0"
     inkscape:pagecheckerboard="0"
     inkscape:deskcolor="#d1d1d1"
     inkscape:zoom="26.98647"
     inkscape:cx="9.8938466"
     inkscape:cy="6.0956471"
     inkscape:window-width="1906"
     inkscape:window-height="1006"
     inkscape:window-x="0"
     inkscape:window-y="0"
     inkscape:window-maximized="1"
     inkscape:current-layer="svg2" />
  <defs
     id="defs2">
    <linearGradient
       id="paint0_linear_448_447"
       x1="8.29998"
       y1="15.3337"
       x2="8.29998"
       y2="0.666992"
       gradientUnits="userSpaceOnUse">
      <stop
         stop-color="#02AA93"
         id="stop1" />
      <stop
         offset="1"
         stop-color="#67FF80"
         id="stop2" />
    </linearGradient>
  </defs>
  <path
     d="m 6.8775959,0.86481444 a 1.7416612,1.7416612 0 0 1 2.2448076,0 L 14.347387,5.2708304 c 0.392456,0.3313026 0.619258,0.8181937 0.619258,1.3314032 V 14.190458 A 1.3546254,1.3546254 0 0 1 13.61202,15.545083 H 10.902769 A 1.3546254,1.3546254 0 0 1 9.5481438,14.190458 V 9.9330635 A 0.19351791,0.19351791 0 0 0 9.3546244,9.7395455 H 6.6453743 A 0.19351791,0.19351791 0 0 0 6.4518564,9.9330635 V 14.190458 A 1.3546254,1.3546254 0 0 1 5.0972311,15.545083 H 2.3879803 A 1.3546254,1.3546254 0 0 1 1.0333548,14.190458 V 6.6022336 c 0,-0.5132095 0.2268031,-1.0001006 0.6192573,-1.3314032 z M 8.3738764,1.7526747 a 0.58055375,0.58055375 0 0 0 -0.7477532,0 L 2.4011396,6.1579165 A 0.58055375,0.58055375 0 0 0 2.1944624,6.6014596 v 7.5882244 c 0,0.106822 0.086696,0.193518 0.1935179,0.193518 H 5.097231 A 0.19351791,0.19351791 0 0 0 5.290749,14.189684 V 9.9322895 c 0,-0.7485269 0.6068721,-1.3546249 1.3546253,-1.3546249 h 2.7092501 c 0.7477536,0 1.3546266,0.606098 1.3546266,1.3546249 v 4.2573945 c 0,0.106822 0.08669,0.193518 0.193518,0.193518 h 2.709251 a 0.19351791,0.19351791 0 0 0 0.193517,-0.193518 V 6.6022336 A 0.58055375,0.58055375 0 0 0 13.59886,6.1586906 Z"
     fill="#212121"
     id="path1-3"
     style="stroke-width:0.774072;fill:#38ee69;fill-opacity:1" />
</svg>
