<?xml version="1.0" encoding="UTF-8" standalone="no"?>
<svg
   width="48"
   height="48"
   viewBox="0 0 48 48"
   fill="none"
   version="1.1"
   id="svg5"
   sodipodi:docname="folder.svg"
   inkscape:version="1.4 (e7c3feb100, 2024-10-09)"
   xmlns:inkscape="http://www.inkscape.org/namespaces/inkscape"
   xmlns:sodipodi="http://sodipodi.sourceforge.net/DTD/sodipodi-0.dtd"
   xmlns="http://www.w3.org/2000/svg"
   xmlns:svg="http://www.w3.org/2000/svg">
  <sodipodi:namedview
     id="namedview5"
     pagecolor="#ffffff"
     bordercolor="#000000"
     borderopacity="0.25"
     inkscape:showpageshadow="2"
     inkscape:pageopacity="0.0"
     inkscape:pagecheckerboard="0"
     inkscape:deskcolor="#d1d1d1"
     inkscape:zoom="8.1458333"
     inkscape:cx="23.938619"
     inkscape:cy="23.877238"
     inkscape:window-width="1906"
     inkscape:window-height="1006"
     inkscape:window-x="0"
     inkscape:window-y="0"
     inkscape:window-maximized="1"
     inkscape:current-layer="svg5" />
  <defs
     id="defs5">
    <linearGradient
       id="paint0_linear_415_401"
       x1="23.997"
       y1="24.6148"
       x2="23.997"
       y2="2.00001"
       gradientUnits="userSpaceOnUse">
      <stop
         stop-color="#5570FF"
         id="stop2" />
      <stop
         offset="1"
         stop-color="#4DD3FF"
         id="stop3" />
    </linearGradient>
    <linearGradient
       id="paint1_linear_415_401"
       x1="24.0008"
       y1="45.9999"
       x2="24.0008"
       y2="8.81836"
       gradientUnits="userSpaceOnUse">
      <stop
         stop-color="#5570FF"
         id="stop4" />
      <stop
         offset="1"
         stop-color="#4DD3FF"
         id="stop5" />
    </linearGradient>
  </defs>
  <path
     d="m 15.6554,6.3999986 c 1.012,0 1.9976,0.3102 2.8248,0.8844 l 0.3432,0.264 5.225,4.3516004 h 17.001602 a 4.9500004,4.9500004 0 0 1 4.9038,4.2636 l 0.0352,0.3476 0.011,0.3388 v 19.800002 a 4.9500004,4.9500004 0 0 1 -4.6112,4.939 l -0.3388,0.011 H 6.9499986 a 4.9500004,4.9500004 0 0 1 -4.9390004,-4.6112 l -0.011,-0.3388 V 11.349999 A 4.9500004,4.9500004 0 0 1 6.6111986,6.4109986 l 0.3388,-0.011 z m 3.168,13.1538004 A 4.9500004,4.9500004 0 0 1 16.0866,20.6802 L 15.6554,20.7 5.2999986,20.6978 v 15.952201 c 0,0.836 0.6204,1.5268 1.4256,1.6346 l 0.2244,0.0154 H 41.050002 a 1.6500002,1.6500002 0 0 0 1.6346,-1.4256 l 0.0154,-0.2244 V 16.849999 a 1.6500002,1.6500002 0 0 0 -1.4256,-1.6346 l -0.2244,-0.0154 H 24.0462 Z M 15.6554,9.6999988 H 6.9499986 a 1.6500002,1.6500002 0 0 0 -1.6346,1.4256002 l -0.0154,0.2244 v 6.0478 l 10.3554014,0.0022 a 1.6500002,1.6500002 0 0 0 0.869,-0.2486 l 0.187,-0.132 4.1602,-3.4716 -4.158,-3.465 A 1.6500002,1.6500002 0 0 0 15.8842,9.7153988 Z"
     fill="#212121"
     id="path1-3"
     style="stroke-width:2.2;fill:#eb308f;fill-opacity:1" />
</svg>
