<?xml version="1.0" encoding="UTF-8" standalone="no"?>
<svg
   width="128"
   height="128"
   viewBox="0 0 128 128"
   fill="none"
   version="1.1"
   id="svg8"
   sodipodi:docname="text.svg"
   inkscape:version="1.4 (e7c3feb100, 2024-10-09)"
   xmlns:inkscape="http://www.inkscape.org/namespaces/inkscape"
   xmlns:sodipodi="http://sodipodi.sourceforge.net/DTD/sodipodi-0.dtd"
   xmlns="http://www.w3.org/2000/svg"
   xmlns:svg="http://www.w3.org/2000/svg">
  <sodipodi:namedview
     id="namedview8"
     pagecolor="#ffffff"
     bordercolor="#000000"
     borderopacity="0.25"
     inkscape:showpageshadow="2"
     inkscape:pageopacity="0.0"
     inkscape:pagecheckerboard="0"
     inkscape:deskcolor="#d1d1d1"
     inkscape:zoom="4.1458949"
     inkscape:cx="47.758084"
     inkscape:cy="93.465948"
     inkscape:window-width="1906"
     inkscape:window-height="1006"
     inkscape:window-x="0"
     inkscape:window-y="0"
     inkscape:window-maximized="1"
     inkscape:current-layer="svg8" />
  <defs
     id="defs8">
    <linearGradient
       id="paint0_linear_59_317"
       x1="64"
       y1="118"
       x2="64"
       y2="10"
       gradientUnits="userSpaceOnUse">
      <stop
         stop-color="#5570FF"
         id="stop3" />
      <stop
         offset="1"
         stop-color="#4DD3FF"
         id="stop4" />
    </linearGradient>
    <linearGradient
       id="paint1_linear_59_317"
       x1="95.8122"
       y1="52"
       x2="95.8122"
       y2="10.4048"
       gradientUnits="userSpaceOnUse">
      <stop
         stop-color="#5570FF"
         id="stop5" />
      <stop
         offset="1"
         stop-color="#4DD3FF"
         id="stop6" />
    </linearGradient>
    <linearGradient
       id="paint2_linear_59_317"
       x1="58.8333"
       y1="97.9999"
       x2="58.8333"
       y2="55.9998"
       gradientUnits="userSpaceOnUse">
      <stop
         stop-color="#5558FF"
         id="stop7" />
      <stop
         offset="1"
         stop-color="#00C0FF"
         id="stop8" />
    </linearGradient>
  </defs>
  <path
     d="m 46.277342,64 a 4.089844,4.089844 0 0 0 0,8.179688 h 35.445315 a 4.089844,4.089844 0 0 0 0,-8.179688 z m 0,14.996094 a 4.089845,4.089845 0 0 0 0,8.17969 h 35.445315 a 4.089845,4.089845 0 0 0 0,-8.17969 z m 0,14.996087 a 4.089848,4.089848 0 0 0 0,8.179699 h 35.445315 a 4.089848,4.089848 0 0 0 0,-8.179699 z m 26.365862,-78.601336 31.786266,31.78081 a 10.90625,10.90625 0 0 1 3.19553,7.71072 V 110.35155 A 10.90625,10.90625 0 0 1 96.718755,121.25781 H 31.281251 A 10.90625,10.90625 0 0 1 20.375001,110.35155 V 23.101562 a 10.90625,10.90625 0 0 1 10.90625,-10.90625 h 33.656688 c 0.152695,0 0.29992,0.02181 0.447155,0.03816 0.10908,0.01628 0.218127,0.03271 0.321734,0.03816 1.172421,0.0818 2.328486,0.305377 3.402754,0.752531 0.310826,0.130868 0.610748,0.305377 0.905219,0.474423 l 0.272653,0.158137 0.256298,0.130866 a 3.5554377,3.5554377 0 0 1 0.441703,0.239935 c 0.425342,0.289017 0.807064,0.632564 1.194234,0.981563 a 3.4354689,3.4354689 0 0 0 0.196319,0.163598 2.6774843,2.6774843 0 0 1 0.267202,0.218125 z m 24.075551,97.687285 a 2.7265623,2.7265623 0 0 0 2.726559,-2.72658 V 55.820313 H 74.90625 A 10.90625,10.90625 0 0 1 64.000001,44.914063 V 20.375001 h -32.71875 a 2.7265623,2.7265623 0 0 0 -2.726562,2.726561 v 87.249988 a 2.7265623,2.7265623 0 0 0 2.726562,2.72658 z M 93.326903,47.640626 72.179688,26.487953 v 18.42611 a 2.7265623,2.7265623 0 0 0 2.726562,2.726563 z"
     fill="#212121"
     id="path1-3"
     style="stroke-width:5.45313;fill:#3979eb;fill-opacity:1" />
</svg>
