<?xml version="1.0" encoding="UTF-8" standalone="no"?>
<svg
   width="24"
   height="24"
   viewBox="0 0 24 24"
   fill="none"
   version="1.1"
   id="svg8"
   sodipodi:docname="audio.svg"
   inkscape:version="1.4 (e7c3feb100, 2024-10-09)"
   xmlns:inkscape="http://www.inkscape.org/namespaces/inkscape"
   xmlns:sodipodi="http://sodipodi.sourceforge.net/DTD/sodipodi-0.dtd"
   xmlns="http://www.w3.org/2000/svg"
   xmlns:svg="http://www.w3.org/2000/svg">
  <sodipodi:namedview
     id="namedview8"
     pagecolor="#ffffff"
     bordercolor="#000000"
     borderopacity="0.25"
     inkscape:showpageshadow="2"
     inkscape:pageopacity="0.0"
     inkscape:pagecheckerboard="0"
     inkscape:deskcolor="#d1d1d1"
     inkscape:zoom="20.794408"
     inkscape:cx="8.9447124"
     inkscape:cy="11.37325"
     inkscape:window-width="1906"
     inkscape:window-height="1006"
     inkscape:window-x="0"
     inkscape:window-y="0"
     inkscape:window-maximized="1"
     inkscape:current-layer="svg8" />
  <defs
     id="defs8">
    <linearGradient
       id="paint0_linear_8_855"
       x1="7.26978"
       y1="3"
       x2="7.26978"
       y2="21"
       gradientUnits="userSpaceOnUse">
      <stop
         stop-color="#DC18FC"
         id="stop3" />
      <stop
         offset="1"
         stop-color="#8E1EFF"
         id="stop4" />
    </linearGradient>
    <linearGradient
       id="paint1_linear_8_855"
       x1="17.3572"
       y1="6.09122"
       x2="17.3572"
       y2="17.9091"
       gradientUnits="userSpaceOnUse">
      <stop
         stop-color="#DC18FC"
         id="stop5" />
      <stop
         offset="1"
         stop-color="#8E1EFF"
         id="stop6" />
    </linearGradient>
    <linearGradient
       id="paint2_linear_8_855"
       x1="20.9488"
       y1="3.05371"
       x2="20.9488"
       y2="20.9473"
       gradientUnits="userSpaceOnUse">
      <stop
         stop-color="#DC18FC"
         id="stop7" />
      <stop
         offset="1"
         stop-color="#8E1EFF"
         id="stop8" />
    </linearGradient>
  </defs>
  <g
     id="g1"
     transform="translate(0,-1.6276814e-5)">
    <path
       d="m 15.299996,3.4773193 c 0,-1.1869006 -1.401402,-1.8150009 -2.288002,-1.0274005 L 8.0696921,6.8422212 A 0.82500044,0.82500044 0 0 1 7.5218918,7.0512213 H 3.4749896 A 2.4750013,2.4750013 0 0 0 0.99998827,9.5262227 v 4.9467023 a 2.4750013,2.4750013 0 0 0 2.47500133,2.475001 h 4.0480022 a 0.82500044,0.82500044 0 0 1 0.5478003,0.209001 l 4.9401019,4.393402 c 0.8866,0.7876 2.289102,0.1584 2.289102,-1.027401 z M 9.1674927,8.0753218 13.649994,4.0900197 V 19.910228 L 9.1674927,15.923826 a 2.4750013,2.4750013 0 0 0 -1.6445009,-0.6259 H 3.4749896 A 0.82500044,0.82500044 0 0 1 2.6499892,14.472925 V 9.5273227 A 0.82500044,0.82500044 0 0 1 3.4749896,8.7023222 H 7.5229918 A 2.4750013,2.4750013 0 0 0 9.1674927,8.0764218 Z M 19.691198,5.2890203 A 0.82500044,0.82500044 0 0 1 20.845099,5.4617204 10.954906,10.954906 0 0 1 23,12.002324 a 10.956006,10.956006 0 0 1 -2.156001,6.540603 0.82500044,0.82500044 0 0 1 -1.325501,-0.9812 9.3049051,9.3049051 0 0 0 1.831501,-5.559403 9.3049051,9.3049051 0 0 0 -1.831501,-5.559403 0.82500044,0.82500044 0 0 1 0.1727,-1.1539007 z"
       fill="#212121"
       id="path1-3"
       style="fill:#ce37f0;fill-opacity:1;stroke-width:1.1" />
    <path
       d="m 17.657297,8.0093218 a 0.82500044,0.82500044 0 0 1 1.118701,0.3322002 c 0.5896,1.0890006 0.924,2.337501 0.924,3.660802 a 7.6703042,7.6703042 0 0 1 -0.924,3.660802 0.82540318,0.82540318 0 0 1 -1.452001,-0.785401 c 0.462,-0.8547 0.726001,-1.8326 0.726001,-2.875401 0,-1.042801 -0.264001,-2.0207013 -0.726001,-2.8754015 a 0.82500044,0.82500044 0 0 1 0.3333,-1.1187007 z"
       fill="#212121"
       id="path2-6"
       style="fill:#ce37f0;fill-opacity:1;stroke-width:1.1" />
  </g>
</svg>
