<?xml version="1.0" encoding="UTF-8" standalone="no"?>
<svg
   width="24"
   height="24"
   viewBox="0 0 24 24"
   fill="none"
   version="1.1"
   id="svg5"
   sodipodi:docname="battery-full.svg"
   inkscape:version="1.4 (e7c3feb100, 2024-10-09)"
   xmlns:inkscape="http://www.inkscape.org/namespaces/inkscape"
   xmlns:sodipodi="http://sodipodi.sourceforge.net/DTD/sodipodi-0.dtd"
   xmlns="http://www.w3.org/2000/svg"
   xmlns:svg="http://www.w3.org/2000/svg">
  <sodipodi:namedview
     id="namedview5"
     pagecolor="#ffffff"
     bordercolor="#000000"
     borderopacity="0.25"
     inkscape:showpageshadow="2"
     inkscape:pageopacity="0.0"
     inkscape:pagecheckerboard="0"
     inkscape:deskcolor="#d1d1d1"
     inkscape:zoom="25.172475"
     inkscape:cx="5.700671"
     inkscape:cy="15.27462"
     inkscape:window-width="1906"
     inkscape:window-height="990"
     inkscape:window-x="0"
     inkscape:window-y="0"
     inkscape:window-maximized="1"
     inkscape:current-layer="svg5" />
  <defs
     id="defs5">
    <linearGradient
       id="paint0_linear_36_127"
       x1="10.2771"
       y1="20.9639"
       x2="10.2771"
       y2="4"
       gradientUnits="userSpaceOnUse">
      <stop
         stop-color="#02AA93"
         id="stop2" />
      <stop
         offset="1"
         stop-color="#67FF80"
         id="stop3" />
    </linearGradient>
    <linearGradient
       id="paint1_linear_36_127"
       x1="15.3134"
       y1="16.4432"
       x2="15.3134"
       y2="8.52069"
       gradientUnits="userSpaceOnUse">
      <stop
         stop-color="#00B59C"
         id="stop4" />
      <stop
         offset="1"
         stop-color="#9CFFAC"
         id="stop5" />
    </linearGradient>
  </defs>
  <path
     d="m 0.99999955,8.7001103 c 0,-1.8224741 1.47741565,-3.2998896 3.29988965,-3.2998896 H 17.499854 c 1.822529,0 3.29989,1.4774155 3.29989,3.2998896 v 1.099963 h 1.100293 c 0.200303,0 0.388177,0.05357 0.549981,0.147175 C 22.778798,10.137432 23,10.49294 23,10.900036 v 2.199927 c 0,0.407096 -0.221202,0.762604 -0.549982,0.952788 -0.161804,0.09361 -0.349678,0.147175 -0.549981,0.147175 h -1.100293 v 1.099963 c 0,1.822529 -1.477361,3.29989 -3.29989,3.29989 H 4.2998891 c -1.8224739,0 -3.29988955,-1.477361 -3.29988955,-3.29989 z"
     fill="#000000"
     id="path1-3"
     style="fill:#10b590;fill-opacity:1;stroke-width:1" />
</svg>
