<?xml version="1.0" encoding="UTF-8" standalone="no"?>
<svg
   width="24"
   height="24"
   viewBox="0 0 24 24"
   fill="none"
   version="1.1"
   id="svg5"
   sodipodi:docname="bluetooth.svg"
   inkscape:version="1.4 (e7c3feb100, 2024-10-09)"
   xmlns:inkscape="http://www.inkscape.org/namespaces/inkscape"
   xmlns:sodipodi="http://sodipodi.sourceforge.net/DTD/sodipodi-0.dtd"
   xmlns="http://www.w3.org/2000/svg"
   xmlns:svg="http://www.w3.org/2000/svg">
  <sodipodi:namedview
     id="namedview5"
     pagecolor="#ffffff"
     bordercolor="#000000"
     borderopacity="0.25"
     inkscape:showpageshadow="2"
     inkscape:pageopacity="0.0"
     inkscape:pagecheckerboard="0"
     inkscape:deskcolor="#d1d1d1"
     inkscape:zoom="22.809838"
     inkscape:cx="11.858918"
     inkscape:cy="12.209644"
     inkscape:window-width="1906"
     inkscape:window-height="990"
     inkscape:window-x="0"
     inkscape:window-y="0"
     inkscape:window-maximized="1"
     inkscape:current-layer="svg5" />
  <defs
     id="defs5">
    <linearGradient
       id="paint0_linear_8_153"
       x1="12"
       y1="23"
       x2="12"
       y2="1"
       gradientUnits="userSpaceOnUse">
      <stop
         stop-color="#5558FF"
         id="stop2" />
      <stop
         offset="1"
         stop-color="#00C0FF"
         id="stop3" />
    </linearGradient>
    <linearGradient
       id="paint1_linear_8_153"
       x1="12.3337"
       y1="20"
       x2="12.3337"
       y2="4"
       gradientUnits="userSpaceOnUse">
      <stop
         stop-color="#5558FF"
         id="stop4" />
      <stop
         offset="1"
         stop-color="#00C0FF"
         id="stop5" />
    </linearGradient>
  </defs>
  <path
     d="m 11.463,2.0570905 c 0.2803,-0.11608 0.6028,-0.05192 0.8173,0.16258 l 5,5.0000001 c 0.1481,0.1481 0.2276,0.35139 0.2191,0.56066 -0.0085,0.20928 -0.1041,0.40548 -0.2636,0.54113 l -4.3277,3.6785194 4.3277,3.6786 c 0.1595,0.1356 0.2551,0.3318 0.2636,0.5411 0.0085,0.2093 -0.071,0.4125 -0.2191,0.5606 l -5,5.0001 c -0.2145,0.2145 -0.537,0.2786 -0.8173,0.1625 C 11.1827,21.82678 11,21.55338 11,21.24998 v -7.6281 l -3.7642501,3.1996 c -0.3156,0.2682 -0.78892,0.2299 -1.05719,-0.0857 -0.26826,-0.3156 -0.22989,-0.789 0.08572,-1.0572 L 10.592,11.99998 6.2642799,8.3214606 c -0.31561,-0.26827 -0.35398,-0.74159 -0.08572,-1.05719 0.26827,-0.3156101 0.74159,-0.3539901 1.05719,-0.08572 L 11,10.378181 V 2.7500005 c 0,-0.30334 0.1827,-0.57682 0.463,-0.69291 z M 12.5,13.62188 v 5.8175 l 3.1446,-3.1446 z m 0,-3.243699 L 15.6446,7.7052606 12.5,4.5606605 Z M 20,11.99998 c 0,0.5523 -0.4477,1 -1,1 -0.5523,0 -1,-0.4477 -1,-1 0,-0.5523 0.4477,-1 1,-1 0.5523,0 1,0.4477 1,1 z m -15.0000001,1 c 0.55228,0 1,-0.4477 1,-1 0,-0.5523 -0.44772,-1 -1,-1 -0.55228,0 -1,0.4477 -1,1 0,0.5523 0.44772,1 1,1 z"
     fill="#000000"
     id="path1-3"
     style="fill:#2a8cff;fill-opacity:1" />
</svg>
