<?xml version="1.0" encoding="UTF-8" standalone="no"?>
<svg
   width="24"
   height="24"
   viewBox="0 0 24 24"
   fill="none"
   version="1.1"
   id="svg5"
   sodipodi:docname="gpm-battery-020.svg"
   inkscape:version="1.4 (e7c3feb100, 2024-10-09)"
   xmlns:inkscape="http://www.inkscape.org/namespaces/inkscape"
   xmlns:sodipodi="http://sodipodi.sourceforge.net/DTD/sodipodi-0.dtd"
   xmlns="http://www.w3.org/2000/svg"
   xmlns:svg="http://www.w3.org/2000/svg">
  <sodipodi:namedview
     id="namedview5"
     pagecolor="#ffffff"
     bordercolor="#000000"
     borderopacity="0.25"
     inkscape:showpageshadow="2"
     inkscape:pageopacity="0.0"
     inkscape:pagecheckerboard="0"
     inkscape:deskcolor="#d1d1d1"
     inkscape:zoom="21.698152"
     inkscape:cx="10.669111"
     inkscape:cy="13.019542"
     inkscape:window-width="1906"
     inkscape:window-height="990"
     inkscape:window-x="0"
     inkscape:window-y="0"
     inkscape:window-maximized="1"
     inkscape:current-layer="svg5" />
  <defs
     id="defs5">
    <linearGradient
       id="paint0_linear_69_593"
       x1="10.2771"
       y1="20.9639"
       x2="10.2771"
       y2="4.00005"
       gradientUnits="userSpaceOnUse">
      <stop
         stop-color="#FFA336"
         id="stop2" />
      <stop
         offset="1"
         stop-color="#FF4D1C"
         id="stop3" />
    </linearGradient>
    <linearGradient
       id="paint1_linear_69_593"
       x1="15.3134"
       y1="16.4431"
       x2="15.3134"
       y2="8.52065"
       gradientUnits="userSpaceOnUse">
      <stop
         stop-color="#FFA336"
         id="stop4" />
      <stop
         offset="1"
         stop-color="#FF4D1C"
         id="stop5" />
    </linearGradient>
  </defs>
  <path
     d="m 17.499846,5.8820611 c 1.822532,0 3.299894,1.4774178 3.299894,3.2998944 V 10.28192 h 1.100295 c 0.200304,0 0.388178,0.05357 0.549983,0.147176 C 22.778797,10.61928 23,10.974788 23,11.381885 v 2.19993 c 0,0.407097 -0.221203,0.762605 -0.549982,0.952789 -0.161805,0.09361 -0.349679,0.147176 -0.549983,0.147176 H 20.79974 v 1.099964 c 0,1.822532 -1.477362,3.299895 -3.299894,3.299895 H 4.2998944 C 2.4774177,19.081639 1,17.604276 1,15.781744 V 9.1819555 C 1,7.3594789 2.4774177,5.8820611 4.2998944,5.8820611 Z M 12.000022,9.1819555 H 5.3998592 c -0.6074885,0 -1.0999648,0.4924763 -1.0999648,1.0999645 v 4.39986 c 0,0.60751 0.4924763,1.099964 1.0999648,1.099964 h 6.6001628 c 0.607511,0 1.099965,-0.492454 1.099965,-1.099964 v -4.39986 c 0,-0.6074882 -0.492454,-1.0999645 -1.099965,-1.0999645 z"
     fill="#000000"
     id="path1-3"
     style="stroke-width:1;fill:#ff7327;fill-opacity:1" />
</svg>
