<?xml version="1.0" encoding="UTF-8" standalone="no"?>
<svg
   width="24"
   height="24"
   viewBox="0 0 24 24"
   fill="none"
   version="1.1"
   id="svg5"
   sodipodi:docname="gpm-battery-000-charging.svg"
   inkscape:version="1.4 (e7c3feb100, 2024-10-09)"
   xmlns:inkscape="http://www.inkscape.org/namespaces/inkscape"
   xmlns:sodipodi="http://sodipodi.sourceforge.net/DTD/sodipodi-0.dtd"
   xmlns="http://www.w3.org/2000/svg"
   xmlns:svg="http://www.w3.org/2000/svg">
  <sodipodi:namedview
     id="namedview5"
     pagecolor="#ffffff"
     bordercolor="#000000"
     borderopacity="0.25"
     inkscape:showpageshadow="2"
     inkscape:pageopacity="0.0"
     inkscape:pagecheckerboard="0"
     inkscape:deskcolor="#d1d1d1"
     inkscape:zoom="18.669406"
     inkscape:cx="12.346403"
     inkscape:cy="9.186152"
     inkscape:window-width="1906"
     inkscape:window-height="990"
     inkscape:window-x="0"
     inkscape:window-y="0"
     inkscape:window-maximized="1"
     inkscape:current-layer="svg5" />
  <defs
     id="defs5">
    <linearGradient
       id="paint0_linear_69_608"
       x1="9.74997"
       y1="20"
       x2="9.74997"
       y2="4"
       gradientUnits="userSpaceOnUse">
      <stop
         stop-color="#FD3A84"
         id="stop2" />
      <stop
         offset="1"
         stop-color="#FFA68D"
         id="stop3" />
    </linearGradient>
    <linearGradient
       id="paint1_linear_69_608"
       x1="12.7952"
       y1="15.6"
       x2="12.7952"
       y2="8.40002"
       gradientUnits="userSpaceOnUse">
      <stop
         stop-color="#FD3A84"
         id="stop4" />
      <stop
         offset="1"
         stop-color="#FFA68D"
         id="stop5" />
    </linearGradient>
  </defs>
  <path
     d="m 10.71282,6.8525383 h 6.434275 c 1.644807,0 2.989313,1.2857433 3.083202,2.9069852 l 0.0053,0.1814671 v 1.0294844 l 1.030102,0.01832 c 0.187469,0 0.363305,0.05014 0.514742,0.137745 0.273534,0.158231 0.467591,0.438766 0.507226,0.766656 l 0.0075,0.125083 v 2.058968 c 0,0.381012 -0.20703,0.713741 -0.514742,0.891739 -0.113552,0.06578 -0.240797,0.110361 -0.376483,0.128583 l -0.138259,0.0092 -1.030102,-0.01833 v 1.029484 c 0,1.644807 -1.285723,2.989313 -2.906954,3.083202 l -0.181499,0.0053 H 7.8768693 c -0.3908848,0 -0.7139369,-0.290521 -0.7650611,-0.667312 l -0.00705,-0.104884 v -4.632678 c 0,-0.390895 0.2904793,-0.713947 0.6673425,-0.765113 l 0.1047706,-0.007 h 0.6458675 c 0.7370591,0 1.3427664,-0.562407 1.4114844,-1.281399 l 0.00649,-0.136612 V 7.6246514 c 0,-0.3908951 0.2905208,-0.7139369 0.6673118,-0.7650611 l 0.104801,-0.00705 h 6.434275 z M 6.4869217,4.8006221 6.5916922,4.7935701 c 0.3908952,0 0.713937,0.290469 0.7650612,0.6673425 l 0.00705,0.1047706 -9.265e-4,1.2868551 h 0.7798857 c 0.4264329,0 0.772113,0.3456905 0.772113,0.7721131 v 2.5725156 c 0,0.994956 -0.8066008,1.801556 -1.8015971,1.801556 l -1.0321093,-8.23e-4 8.03e-4,6.429334 c 0,0.390895 -0.2904793,0.713947 -0.6673425,0.76501 l -0.1047706,0.0071 c -0.3908951,0 -0.7139369,-0.29052 -0.7650714,-0.667312 l -0.007,-0.104801 v -6.429334 l -1.0313578,8.23e-4 c -0.9949963,0 -1.8015971,-0.8066 -1.8015971,-1.801556 V 7.6246514 c 0,-0.4264226 0.3456904,-0.7721131 0.772113,-0.7721131 h 0.7731426 l 8.24e-5,-1.2868551 c 0,-0.3908951 0.2904792,-0.7139369 0.6673424,-0.7650611 l 0.1047706,-0.00705 c 0.3908952,0 0.713937,0.290469 0.7650612,0.6673425 l 0.00705,0.1047706 -8.23e-5,1.2868551 h 1.0243399 l 9.266e-4,-1.2868571 c 0,-0.3908951 0.2904792,-0.7139369 0.6673425,-0.7650611 l 0.1047705,-0.00705 z"
     fill="#000000"
     id="path1-3"
     style="fill:#f56575;fill-opacity:1;stroke-width:1" />
</svg>
