<?xml version="1.0" encoding="UTF-8" standalone="no"?>
<svg
   width="24"
   height="24"
   viewBox="0 0 24 24"
   fill="none"
   version="1.1"
   id="svg5"
   sodipodi:docname="gpm-battery-020-charging.svg"
   inkscape:version="1.4 (e7c3feb100, 2024-10-09)"
   xmlns:inkscape="http://www.inkscape.org/namespaces/inkscape"
   xmlns:sodipodi="http://sodipodi.sourceforge.net/DTD/sodipodi-0.dtd"
   xmlns="http://www.w3.org/2000/svg"
   xmlns:svg="http://www.w3.org/2000/svg">
  <sodipodi:namedview
     id="namedview5"
     pagecolor="#ffffff"
     bordercolor="#000000"
     borderopacity="0.25"
     inkscape:showpageshadow="2"
     inkscape:pageopacity="0.0"
     inkscape:pagecheckerboard="0"
     inkscape:deskcolor="#d1d1d1"
     inkscape:zoom="23.924153"
     inkscape:cx="9.760011"
     inkscape:cy="14.274277"
     inkscape:window-width="1906"
     inkscape:window-height="990"
     inkscape:window-x="0"
     inkscape:window-y="0"
     inkscape:window-maximized="1"
     inkscape:current-layer="svg5" />
  <defs
     id="defs5">
    <linearGradient
       id="paint0_linear_69_605"
       x1="9.74997"
       y1="20"
       x2="9.74997"
       y2="4.00005"
       gradientUnits="userSpaceOnUse">
      <stop
         stop-color="#FFA336"
         id="stop2" />
      <stop
         offset="1"
         stop-color="#FF4D1C"
         id="stop3" />
    </linearGradient>
    <linearGradient
       id="paint1_linear_69_605"
       x1="12.7951"
       y1="15.6"
       x2="12.7951"
       y2="8.40005"
       gradientUnits="userSpaceOnUse">
      <stop
         stop-color="#FFA336"
         id="stop4" />
      <stop
         offset="1"
         stop-color="#FF4D1C"
         id="stop5" />
    </linearGradient>
  </defs>
  <g
     id="g1"
     style="fill:#ff7327;fill-opacity:1">
    <g
       id="g2"
       transform="matrix(1.0015148,0,0,1.0015148,-0.0181778,-0.01817895)"
       style="fill:#ff7327;fill-opacity:1;stroke-width:0.998488">
      <path
         d="m 10.714805,6.8604003 h 6.424558 c 1.642322,0 2.984798,1.2838015 3.078545,2.9025948 l 0.0052,0.1811931 v 1.0279298 l 1.028546,0.0183 c 0.187186,0 0.362756,0.05006 0.513964,0.137536 0.273121,0.157993 0.466886,0.438104 0.506461,0.765499 l 0.0075,0.124894 v 2.055858 c 0,0.380437 -0.206717,0.712664 -0.513965,0.890393 -0.11338,0.06568 -0.240432,0.110194 -0.375913,0.128388 l -0.138051,0.0091 -1.028546,-0.0183 v 1.02793 c 0,1.642322 -1.283781,2.984798 -2.902564,3.078545 l -0.181224,0.0052 H 7.8831365 c -0.3902945,0 -0.7128587,-0.290082 -0.7639057,-0.666304 l -0.00704,-0.104643 v -4.625682 c 0,-0.390305 0.2900406,-0.712869 0.6663346,-0.763957 l 0.1046124,-0.007 h 0.644892 c 0.7359461,0 1.3407386,-0.561558 1.4093529,-1.279464 l 0.00648,-0.136406 V 7.6313473 c 0,-0.3903047 0.2900813,-0.7128587 0.6663033,-0.7639057 l 0.104644,-0.00704 h 6.424558 z M 6.495288,4.811583 6.5999004,4.8045417 c 0.3903048,0 0.7128587,0.2900303 0.7639057,0.6663346 l 0.00704,0.1046124 -9.252e-4,1.2849116 h 0.7787079 c 0.4257889,0 0.770947,0.3451684 0.770947,0.770947 v 2.5686307 c 0,0.993452 -0.8053826,1.798835 -1.7988763,1.798835 l -1.0305505,-8.22e-4 8.017e-4,6.419624 c 0,0.390304 -0.2900405,0.712869 -0.6663346,0.763854 l -0.1046123,0.0071 c -0.3903048,0 -0.7128587,-0.290082 -0.763916,-0.666304 l -0.00699,-0.104643 v -6.419624 l -1.0298001,8.22e-4 c -0.9934937,0 -1.7988763,-0.805383 -1.7988763,-1.798835 V 7.6313473 c 0,-0.4257786 0.3451684,-0.770947 0.770947,-0.770947 h 0.7719749 l 8.22e-5,-1.2849116 c 0,-0.3903047 0.2900406,-0.7128587 0.6663346,-0.7639057 l 0.1046124,-0.00704 c 0.3903048,0 0.7128587,0.2900303 0.7639057,0.6663346 l 0.00704,0.1046124 -8.23e-5,1.2849116 H 5.8280256 L 5.8289507,5.57549 c 0,-0.3903047 0.2900406,-0.7128587 0.6663346,-0.7639057 l 0.1046124,-0.00704 z"
         fill="#000000"
         id="path1-3"
         style="fill:#ff7327;fill-opacity:1;stroke-width:0.998488" />
    </g>
  </g>
</svg>
