<?xml version="1.0" encoding="UTF-8" standalone="no"?>
<svg
   width="128"
   height="128"
   viewBox="0 0 128 128"
   fill="none"
   version="1.1"
   id="svg5"
   sodipodi:docname="mic-off.svg"
   inkscape:version="1.4 (e7c3feb100, 2024-10-09)"
   xmlns:inkscape="http://www.inkscape.org/namespaces/inkscape"
   xmlns:sodipodi="http://sodipodi.sourceforge.net/DTD/sodipodi-0.dtd"
   xmlns="http://www.w3.org/2000/svg"
   xmlns:svg="http://www.w3.org/2000/svg">
  <sodipodi:namedview
     id="namedview5"
     pagecolor="#ffffff"
     bordercolor="#000000"
     borderopacity="0.25"
     inkscape:showpageshadow="2"
     inkscape:pageopacity="0.0"
     inkscape:pagecheckerboard="0"
     inkscape:deskcolor="#d1d1d1"
     inkscape:zoom="5.7053351"
     inkscape:cx="63.624659"
     inkscape:cy="63.712296"
     inkscape:window-width="1906"
     inkscape:window-height="1006"
     inkscape:window-x="0"
     inkscape:window-y="0"
     inkscape:window-maximized="1"
     inkscape:current-layer="svg5" />
  <defs
     id="defs5">
    <linearGradient
       id="paint0_linear"
       x1="64"
       y1="98"
       x2="64"
       y2="0"
       gradientUnits="userSpaceOnUse">
      <stop
         stop-color="#FD3A84"
         id="stop2" />
      <stop
         offset="1"
         stop-color="#FFA68D"
         id="stop3" />
    </linearGradient>
    <linearGradient
       id="paint1_linear"
       x1="102.463"
       y1="69.715"
       x2="84.2694"
       y2="132.53"
       gradientUnits="userSpaceOnUse">
      <stop
         stop-color="#FE0F7C"
         id="stop4" />
      <stop
         offset="1"
         stop-color="#DF0066"
         id="stop5" />
    </linearGradient>
  </defs>
  <path
     d="M 8.3174997,1.5072688 A 4.7970321,4.7970321 0 1 0 1.5376942,8.2870733 L 38.50682,45.2562 v 18.804367 a 25.584171,25.584171 0 0 0 39.962475,21.164508 l 7.329864,7.329863 A 33.432116,33.432116 0 0 1 65.690003,99.238802 H 62.49198 l -1.381542,-0.02555 A 33.579223,33.579223 0 0 1 28.912758,65.659583 v -3.198032 l -0.04478,-0.652392 a 4.7970321,4.7970321 0 0 0 -9.549293,0.652392 v 3.198032 l 0.02558,1.509459 a 43.173288,43.173288 0 0 0 39.949682,41.548678 v 14.50622 l 0.04474,0.6524 a 4.7970321,4.7970321 0 0 0 9.549294,-0.6524 l 0.0059,-14.50622 a 42.968614,42.968614 0 0 0 23.742085,-9.325418 l 27.221554,27.221558 a 4.7970321,4.7970321 0 0 0 6.78621,-6.77982 z M 71.484813,78.240592 A 15.990106,15.990106 0 0 1 48.100885,64.060567 v -9.210303 z m 8.596285,-52.556284 v 34.014158 l 9.146343,9.146343 c 0.294214,-1.54784 0.447724,-3.146856 0.447724,-4.784242 V 25.684308 A 25.584171,25.584171 0 0 0 39.389476,19.006841 l 8.711409,8.71141 v -2.033943 a 15.990108,15.990108 0 0 1 31.980213,0 z m 17.243728,51.257885 7.329874,7.329863 a 43.013386,43.013386 0 0 0 4.2086,-18.612483 v -3.198022 l -0.0447,-0.652392 a 4.7970321,4.7970321 0 0 0 -9.549295,0.652392 v 3.198022 l -0.0255,1.381552 a 33.470491,33.470491 0 0 1 -1.918811,9.901068 z"
     fill="#212121"
     id="path1-3"
     style="stroke-width:6.39604;fill:#f03737;fill-opacity:1" />
</svg>
