<?xml version="1.0" encoding="UTF-8" standalone="no"?>
<svg
   width="32"
   height="32"
   viewBox="0 0 32 32"
   fill="none"
   version="1.1"
   id="svg5"
   sodipodi:docname="mic-on.svg"
   inkscape:version="1.4 (e7c3feb100, 2024-10-09)"
   xmlns:inkscape="http://www.inkscape.org/namespaces/inkscape"
   xmlns:sodipodi="http://sodipodi.sourceforge.net/DTD/sodipodi-0.dtd"
   xmlns="http://www.w3.org/2000/svg"
   xmlns:svg="http://www.w3.org/2000/svg">
  <sodipodi:namedview
     id="namedview5"
     pagecolor="#ffffff"
     bordercolor="#000000"
     borderopacity="0.25"
     inkscape:showpageshadow="2"
     inkscape:pageopacity="0.0"
     inkscape:pagecheckerboard="0"
     inkscape:deskcolor="#d1d1d1"
     inkscape:zoom="12.877612"
     inkscape:cx="12.812935"
     inkscape:cy="6.0181967"
     inkscape:window-width="1906"
     inkscape:window-height="1006"
     inkscape:window-x="0"
     inkscape:window-y="0"
     inkscape:window-maximized="1"
     inkscape:current-layer="svg5" />
  <defs
     id="defs5">
    <linearGradient
       id="paint0_linear_69_677"
       x1="15.8998"
       y1="20.504"
       x2="15.8998"
       y2="2"
       gradientUnits="userSpaceOnUse">
      <stop
         stop-color="#02AA93"
         id="stop2" />
      <stop
         offset="1"
         stop-color="#67FF80"
         id="stop3" />
    </linearGradient>
    <linearGradient
       id="paint1_linear_69_677"
       x1="15.9"
       y1="30"
       x2="15.9"
       y2="12.9559"
       gradientUnits="userSpaceOnUse">
      <stop
         stop-color="#00B59C"
         id="stop4" />
      <stop
         offset="1"
         stop-color="#9CFFAC"
         id="stop5" />
    </linearGradient>
  </defs>
  <path
     d="m 24.780146,14.595342 a 1.0536156,1.0536156 0 0 1 1.043782,0.910324 l 0.0098,0.143293 v 0.70241 a 9.4825396,9.4825396 0 0 1 -8.778724,9.457252 l -0.0014,3.186134 a 1.0536156,1.0536156 0 0 1 -2.097397,0.143291 l -0.0098,-0.143291 V 25.808621 A 9.4825396,9.4825396 0 0 1 6.1718917,16.682906 l -0.00562,-0.331537 v -0.70241 A 1.0536156,1.0536156 0 0 1 8.263669,15.505666 l 0.00983,0.143293 v 0.70241 a 7.3753086,7.3753086 0 0 0 7.071866,7.369689 l 0.303442,0.0056 h 0.70241 a 7.3753086,7.3753086 0 0 0 7.369689,-7.071868 l 0.0056,-0.303441 v -0.70241 a 1.0536156,1.0536156 0 0 1 1.053615,-1.053616 z M 16.000017,1.9519567 A 5.6192828,5.6192828 0 0 1 21.6193,7.5712389 v 8.4289251 a 5.619283,5.619283 0 0 1 -11.238566,0 V 7.5712389 a 5.6192828,5.6192828 0 0 1 5.619283,-5.6192822 z m 0,2.1072305 a 3.5120517,3.5120517 0 0 0 -3.512052,3.5120517 v 8.4289251 a 3.5120522,3.5120522 0 0 0 7.024104,0 V 7.5712389 A 3.5120517,3.5120517 0 0 0 16.000017,4.0591872 Z"
     fill="#212121"
     id="path1-3"
     style="stroke-width:1.40482;fill:#38ee69;fill-opacity:1" />
</svg>
