<?xml version="1.0" encoding="UTF-8" standalone="no"?>
<svg
   width="64"
   height="64"
   viewBox="0 0 64 64"
   fill="none"
   version="1.1"
   id="svg14"
   sodipodi:docname="network-wireless-acquiring.svg"
   inkscape:version="1.4 (e7c3feb100, 2024-10-09)"
   xmlns:inkscape="http://www.inkscape.org/namespaces/inkscape"
   xmlns:sodipodi="http://sodipodi.sourceforge.net/DTD/sodipodi-0.dtd"
   xmlns="http://www.w3.org/2000/svg"
   xmlns:svg="http://www.w3.org/2000/svg">
  <sodipodi:namedview
     id="namedview14"
     pagecolor="#ffffff"
     bordercolor="#000000"
     borderopacity="0.25"
     inkscape:showpageshadow="2"
     inkscape:pageopacity="0.0"
     inkscape:pagecheckerboard="0"
     inkscape:deskcolor="#d1d1d1"
     inkscape:zoom="8.59375"
     inkscape:cx="57.250909"
     inkscape:cy="31.941818"
     inkscape:window-width="1906"
     inkscape:window-height="990"
     inkscape:window-x="0"
     inkscape:window-y="0"
     inkscape:window-maximized="1"
     inkscape:current-layer="svg14" />
  <path
     d="m 53.593974,16.96016 c 1.39919,1.399155 2.72149,2.998961 3.8722,4.666605 0.53624,0.776731 0.34109,1.840955 -0.43575,2.377016 -0.77648,0.536094 -1.84075,0.341013 -2.37697,-0.435719 -1.03589,-1.501205 -2.22661,-2.941679 -3.47611,-4.191243 -11.49392,-11.4938195 -30.128898,-11.4938195 -41.6226821,0 -1.190164,1.190165 -2.367857,2.630195 -3.441648,4.178016 -0.53794,0.775434 -1.602643,0.96795 -2.378074,0.430012 -0.775435,-0.537973 -0.967949,-1.602677 -0.430011,-2.378108 1.184115,-1.706848 2.489386,-3.302892 3.833073,-4.646579 12.8284851,-12.8284834 33.6274521,-12.8284834 46.4559721,0 z m -38.815219,6.744541 c 8.203267,-8.203264 21.263509,-8.589529 29.924189,-1.158722 -1.2765,0.170071 -2.51129,0.693922 -3.53079,1.571542 -7.27482,-5.193987 -17.446861,-4.526039 -23.976739,2.00384 -1.412792,1.412859 -2.560952,3.002069 -3.444794,4.749517 -0.425976,0.842112 -1.454008,1.179435 -2.296152,0.753252 -0.842179,-0.42584 -1.17957,-1.45387 -0.753595,-2.295981 1.046624,-2.069049 2.408152,-3.953717 4.077881,-5.623448 z m 14.713429,22.62219 3.83474,-7.677768 c -1.743,-1.535209 -4.40259,-1.470274 -6.06784,0.195151 -1.732993,1.732752 -1.732993,4.542748 0,6.275498 0.63506,0.635344 1.4148,1.037598 2.2331,1.207119 z m 6.51351,-13.041438 1.53452,-3.072815 c -5.3066,-3.239939 -12.329983,-2.564268 -16.920785,2.02633 -1.208587,1.208824 -2.173459,2.656203 -2.87114,4.25054 -0.378301,0.864667 0.01601,1.872191 0.880527,2.250526 0.864597,0.378334 1.872192,-0.01563 2.250525,-0.880388 0.531617,-1.214978 1.258929,-2.305895 2.156748,-3.203712 3.523365,-3.523605 8.952135,-3.980204 12.969605,-1.370481 z m 6.54891,-5.49115 -11.94847,23.918133 c -1.1361,2.274107 0.51777,4.948766 3.06017,4.948766 h 23.90856 c 2.54308,0 4.19688,-2.675686 3.05949,-4.949792 l -11.9601,-23.918474 c -1.26077,-2.521411 -4.85956,-2.520726 -6.11965,0.0014 z m 4.769,6.635383 v 10.260827 c 0,0.944645 -0.76556,1.710196 -1.7102,1.710196 -0.94464,0 -1.71019,-0.765555 -1.71019,-1.710196 V 34.429686 c 0,-0.944641 0.76555,-1.710196 1.71019,-1.710196 0.94464,0 1.7102,0.765555 1.7102,1.710196 z m -1.7102,18.811469 c -0.94464,0 -1.71019,-0.765557 -1.71019,-1.709857 0,-0.944639 0.76555,-1.710193 1.71019,-1.710193 0.94464,0 1.7102,0.765554 1.7102,1.710192 0,0.944297 -0.76556,1.709854 -1.7102,1.709858 z"
     fill="#212121"
     id="path1-3"
     style="fill:#13b890;fill-opacity:1;stroke-width:0.999999" />
  <defs
     id="defs14">
    <linearGradient
       id="paint0_linear_216_361"
       x1="32"
       y1="37.2031"
       x2="32"
       y2="10"
       gradientUnits="userSpaceOnUse">
      <stop
         stop-color="#02AA93"
         id="stop5" />
      <stop
         offset="1"
         stop-color="#67FF80"
         id="stop6" />
    </linearGradient>
    <linearGradient
       id="paint1_linear_216_361"
       x1="32.0479"
       y1="45.3031"
       x2="32.0479"
       y2="33.1997"
       gradientUnits="userSpaceOnUse">
      <stop
         stop-color="#02AA93"
         id="stop7" />
      <stop
         offset="1"
         stop-color="#67FF80"
         id="stop8" />
    </linearGradient>
    <linearGradient
       id="paint2_linear_216_361"
       x1="32.0433"
       y1="53.4998"
       x2="32.0433"
       y2="44.7998"
       gradientUnits="userSpaceOnUse">
      <stop
         stop-color="#02AA93"
         id="stop9" />
      <stop
         offset="1"
         stop-color="#67FF80"
         id="stop10" />
    </linearGradient>
    <linearGradient
       id="paint3_linear_216_361"
       x1="54.1868"
       y1="52.9999"
       x2="54.1868"
       y2="35.4731"
       gradientUnits="userSpaceOnUse">
      <stop
         stop-color="#02AA93"
         id="stop11" />
      <stop
         offset="1"
         stop-color="#67FF80"
         id="stop12" />
    </linearGradient>
    <linearGradient
       id="paint4_linear_216_361"
       x1="54.1875"
       y1="31.3734"
       x2="54.1875"
       y2="25"
       gradientUnits="userSpaceOnUse">
      <stop
         stop-color="#02AA93"
         id="stop13" />
      <stop
         offset="1"
         stop-color="#67FF80"
         id="stop14" />
    </linearGradient>
  </defs>
</svg>
