<?xml version="1.0" encoding="UTF-8" standalone="no"?>
<svg
   width="24"
   height="24"
   viewBox="0 0 24 24"
   fill="none"
   version="1.1"
   id="svg9"
   sodipodi:docname="network-wireless-disconnected.svg"
   inkscape:version="1.4 (e7c3feb100, 2024-10-09)"
   xmlns:inkscape="http://www.inkscape.org/namespaces/inkscape"
   xmlns:sodipodi="http://sodipodi.sourceforge.net/DTD/sodipodi-0.dtd"
   xmlns="http://www.w3.org/2000/svg"
   xmlns:svg="http://www.w3.org/2000/svg">
  <sodipodi:namedview
     id="namedview9"
     pagecolor="#ffffff"
     bordercolor="#000000"
     borderopacity="0.25"
     inkscape:showpageshadow="2"
     inkscape:pageopacity="0.0"
     inkscape:pagecheckerboard="0"
     inkscape:deskcolor="#d1d1d1"
     inkscape:zoom="20.244273"
     inkscape:cx="15.782241"
     inkscape:cy="12.81844"
     inkscape:window-width="1906"
     inkscape:window-height="990"
     inkscape:window-x="0"
     inkscape:window-y="0"
     inkscape:window-maximized="1"
     inkscape:current-layer="svg9" />
  <defs
     id="defs9">
    <linearGradient
       id="paint0_linear_38_67"
       x1="21.1372"
       y1="2.92557"
       x2="1.52839"
       y2="23.7461"
       gradientUnits="userSpaceOnUse">
      <stop
         stop-color="#FE7970"
         id="stop4" />
      <stop
         offset="1"
         stop-color="#DC3282"
         id="stop5" />
    </linearGradient>
    <linearGradient
       id="paint1_linear_38_67"
       x1="23.951"
       y1="4.07005"
       x2="13.7932"
       y2="19.157"
       gradientUnits="userSpaceOnUse">
      <stop
         stop-color="#FE7970"
         id="stop6" />
      <stop
         offset="1"
         stop-color="#DC3282"
         id="stop7" />
    </linearGradient>
    <linearGradient
       id="paint2_linear_38_67"
       x1="23.951"
       y1="4.07005"
       x2="13.7932"
       y2="19.157"
       gradientUnits="userSpaceOnUse">
      <stop
         stop-color="#FE7970"
         id="stop8" />
      <stop
         offset="1"
         stop-color="#DC3282"
         id="stop9" />
    </linearGradient>
    <clipPath
       id="clip0_38_67">
      <rect
         width="24"
         height="24"
         fill="white"
         id="rect9" />
    </clipPath>
  </defs>
  <g
     id="g1"
     transform="matrix(1.1837632,0,0,1.1837632,-2.2050245,-2.2052612)"
     style="fill:#ed5679;fill-opacity:1;stroke-width:0.844764">
    <path
       d="M 3.28034,2.21968 C 2.98745,1.92678 2.51257,1.92677 2.21968,2.21966 1.92678,2.51255 1.92677,2.98743 2.21966,3.28032 L 5.58402,6.64475 C 4.8631,7.10444 4.18071,7.64908 3.5511,8.27869 3.06185,8.76794 2.58743,9.34804 2.15727,9.9681 1.92117,10.3084 2.00567,10.7757 2.346,11.0118 2.68634,11.2479 3.15363,11.1634 3.38974,10.8231 3.77147,10.2728 4.18989,9.76122 4.61177,9.33935 5.24464,8.70647 5.93852,8.17176 6.67447,7.73522 L 8.26593,9.32671 C 7.57451,9.69363 6.92526,10.1682 6.34294,10.7506 5.73234,11.3612 5.2343,12.0505 4.8515,12.8073 c -0.18696,0.3696 -0.03889,0.8208 0.33074,1.0078 0.36962,0.187 0.82081,0.0389 1.00777,-0.3307 0.31136,-0.6156 0.71577,-1.1753 1.21359,-1.6732 0.59,-0.59 1.2644,-1.0441 1.98434,-1.3625 l 1.93056,1.9307 c -1.0526,0.1503 -2.06724,0.6303 -2.87699,1.44 -0.44691,0.4469 -0.8033,0.9815 -1.06075,1.5699 -0.16604,0.3795 0.00698,0.8217 0.38646,0.9878 0.37947,0.166 0.8217,-0.007 0.98775,-0.3865 0.18458,-0.4218 0.43668,-0.8 0.7472,-1.1105 0.91123,-0.9112 2.19023,-1.2305 3.35913,-0.9579 l 7.8581,7.8583 c 0.2929,0.2929 0.7678,0.2929 1.0607,0 0.2929,-0.2929 0.2929,-0.7678 0,-1.0607 z m 8.30386,6.18259 1.5834,1.58338 c 1.2878,0.22275 2.5218,0.83125 3.5162,1.82555 0.4765,0.4766 0.8968,1.0654 1.2171,1.6917 0.1887,0.3688 0.6405,0.5148 1.0093,0.3262 0.3688,-0.1886 0.5148,-0.6404 0.3262,-1.0092 C 18.8467,12.058 18.3352,11.3414 17.7445,10.7506 16.0533,9.05945 13.7978,8.27668 11.5842,8.40227 Z M 8.48684,5.30481 9.71316,6.53115 c 3.37374,-0.75314 7.04854,0.18293 9.67374,2.8082 0.4434,0.44339 0.8663,0.95505 1.2343,1.48825 0.2353,0.3409 0.7024,0.4265 1.0433,0.1912 0.3409,-0.2352 0.4265,-0.7023 0.1912,-1.04323 C 21.4373,9.36931 20.9567,8.78773 20.4476,8.27869 17.2106,5.04172 12.5784,4.05043 8.48684,5.30481 Z M 13.0601,16.4391 c 0.5859,0.5858 0.5859,1.5357 0,2.1216 -0.5858,0.5858 -1.5357,0.5858 -2.1215,0 -0.5859,-0.5859 -0.5859,-1.5358 0,-2.1216 0.5858,-0.5859 1.5357,-0.5859 2.1215,0 z"
       fill="#212121"
       id="path1-3"
       style="fill:#ed5679;fill-opacity:1;stroke-width:0.844764" />
  </g>
</svg>
