<?xml version="1.0" encoding="UTF-8" standalone="no"?>
<svg
   width="64"
   height="64"
   viewBox="0 0 64 64"
   fill="none"
   version="1.1"
   id="svg8"
   sodipodi:docname="nm-signal-25.svg"
   inkscape:version="1.4 (e7c3feb100, 2024-10-09)"
   xmlns:inkscape="http://www.inkscape.org/namespaces/inkscape"
   xmlns:sodipodi="http://sodipodi.sourceforge.net/DTD/sodipodi-0.dtd"
   xmlns="http://www.w3.org/2000/svg"
   xmlns:svg="http://www.w3.org/2000/svg">
  <sodipodi:namedview
     id="namedview8"
     pagecolor="#ffffff"
     bordercolor="#000000"
     borderopacity="0.25"
     inkscape:showpageshadow="2"
     inkscape:pageopacity="0.0"
     inkscape:pagecheckerboard="0"
     inkscape:deskcolor="#d1d1d1"
     inkscape:zoom="7.3457378"
     inkscape:cx="32.740074"
     inkscape:cy="19.399004"
     inkscape:window-width="1906"
     inkscape:window-height="990"
     inkscape:window-x="0"
     inkscape:window-y="0"
     inkscape:window-maximized="1"
     inkscape:current-layer="svg8" />
  <defs
     id="defs8">
    <linearGradient
       id="paint0_linear_216_361"
       x1="13.5125"
       y1="33.9916"
       x2="34.1636"
       y2="-4.42579"
       gradientUnits="userSpaceOnUse">
      <stop
         stop-color="#FE0844"
         id="stop3" />
      <stop
         offset="1"
         stop-color="#FEB302"
         id="stop4" />
    </linearGradient>
    <linearGradient
       id="paint1_linear_216_361"
       x1="24.0434"
       y1="51.1031"
       x2="42.4658"
       y2="31.2187"
       gradientUnits="userSpaceOnUse">
      <stop
         stop-color="#FE0844"
         id="stop5" />
      <stop
         offset="1"
         stop-color="#FEB302"
         id="stop6" />
    </linearGradient>
    <linearGradient
       id="paint2_linear_216_361"
       x1="24.0434"
       y1="51.1031"
       x2="42.4658"
       y2="31.2187"
       gradientUnits="userSpaceOnUse">
      <stop
         stop-color="#FE0844"
         id="stop7" />
      <stop
         offset="1"
         stop-color="#FEB302"
         id="stop8" />
    </linearGradient>
  </defs>
  <path
     d="m 29.055438,45.98831 c 1.695113,-1.695112 4.443343,-1.695112 6.138168,0 1.695113,1.694826 1.695113,4.443055 0,6.138169 -1.694825,1.694823 -4.443055,1.694823 -6.138168,0 -1.694824,-1.695114 -1.694824,-4.443343 0,-6.138169 z m -7.224296,-7.579259 c 5.753115,-5.753086 15.081011,-5.753086 20.834098,0 1.294988,1.294987 2.360256,2.885367 3.101774,4.577588 0.480847,1.097671 -0.0188,2.377325 -1.116474,2.858171 -1.097676,0.481135 -2.377325,-0.0188 -2.858461,-1.116478 -0.52974,-1.20877 -1.292383,-2.347236 -2.195633,-3.250485 -4.058263,-4.058551 -10.638219,-4.058551 -14.696625,0 -0.898361,0.898331 -1.62776,1.992531 -2.161782,3.212873 -0.480384,1.097962 -1.759834,1.598481 -2.857739,1.118216 -1.097903,-0.48056 -1.598482,-1.759922 -1.118068,-2.857884 0.744849,-1.702345 1.775919,-3.249039 3.06891,-4.542001 z"
     fill="#212121"
     id="path1-3"
     style="display:inline;fill:#fe3732;fill-opacity:1;stroke-width:1" />
</svg>
