<?xml version="1.0" encoding="UTF-8" standalone="no"?>
<svg
   width="64"
   height="64"
   viewBox="0 0 64 64"
   fill="none"
   version="1.1"
   id="svg8"
   sodipodi:docname="notification-network-wireless.svg"
   inkscape:version="1.4 (e7c3feb100, 2024-10-09)"
   xmlns:inkscape="http://www.inkscape.org/namespaces/inkscape"
   xmlns:sodipodi="http://sodipodi.sourceforge.net/DTD/sodipodi-0.dtd"
   xmlns="http://www.w3.org/2000/svg"
   xmlns:svg="http://www.w3.org/2000/svg">
  <sodipodi:namedview
     id="namedview8"
     pagecolor="#ffffff"
     bordercolor="#000000"
     borderopacity="0.25"
     inkscape:showpageshadow="2"
     inkscape:pageopacity="0.0"
     inkscape:pagecheckerboard="0"
     inkscape:deskcolor="#d1d1d1"
     inkscape:zoom="7.8954065"
     inkscape:cx="29.130862"
     inkscape:cy="23.114706"
     inkscape:window-width="1906"
     inkscape:window-height="990"
     inkscape:window-x="0"
     inkscape:window-y="0"
     inkscape:window-maximized="1"
     inkscape:current-layer="svg8" />
  <defs
     id="defs8">
    <radialGradient
       id="paint0_radial_216_361"
       cx="0"
       cy="0"
       r="1"
       gradientUnits="userSpaceOnUse"
       gradientTransform="translate(32 36.3582) rotate(-95.2386) scale(26.4686 91.2343)">
      <stop
         offset="0.393422"
         stop-color="#02AA93"
         id="stop3" />
      <stop
         offset="1"
         stop-color="#67FF80"
         id="stop4" />
    </radialGradient>
    <radialGradient
       id="paint1_radial_216_361"
       cx="0"
       cy="0"
       r="1"
       gradientUnits="userSpaceOnUse"
       gradientTransform="translate(32.0479 52.8691) rotate(-93.0451) scale(19.6971 39.6112)">
      <stop
         offset="0.393422"
         stop-color="#02AA93"
         id="stop5" />
      <stop
         offset="1"
         stop-color="#67FF80"
         id="stop6" />
    </radialGradient>
    <radialGradient
       id="paint2_radial_216_361"
       cx="0"
       cy="0"
       r="1"
       gradientUnits="userSpaceOnUse"
       gradientTransform="translate(32.0479 52.8691) rotate(-93.0451) scale(19.6971 39.6112)">
      <stop
         offset="0.393422"
         stop-color="#02AA93"
         id="stop7" />
      <stop
         offset="1"
         stop-color="#67FF80"
         id="stop8" />
    </radialGradient>
  </defs>
  <path
     d="m 48.670512,28.690909 c 1.716315,1.716315 3.202258,3.798087 4.334363,6.011459 0.547896,1.071098 0.123756,2.383899 -0.947634,2.931795 -1.071389,0.547896 -2.384189,0.123756 -2.932085,-0.947633 -0.930494,-1.819445 -2.151494,-3.529949 -3.53576,-4.914505 -7.444819,-7.444616 -19.514973,-7.444616 -26.959647,0 -1.446201,1.446143 -2.62104,3.0724 -3.525563,4.860761 -0.543131,1.073713 -1.853898,1.503954 -2.92767,0.960706 -1.073771,-0.543248 -1.503925,-1.854015 -0.960822,-2.927728 1.112089,-2.198556 2.55893,-4.20102 4.332765,-5.974855 9.146434,-9.146551 23.975735,-9.146551 33.122053,0 z m -6.105873,8.915075 c 1.300309,1.300309 2.369955,2.897225 3.114524,4.596399 0.482822,1.102184 -0.01888,2.387095 -1.121066,2.869918 -1.102183,0.483113 -2.387095,-0.01888 -2.870208,-1.121066 -0.531918,-1.213738 -1.297694,-2.357173 -2.204656,-3.263845 -4.07494,-4.07523 -10.681938,-4.07523 -14.756994,0 -0.902082,0.902024 -1.63445,2.000721 -2.170667,3.226079 -0.482387,1.102473 -1.767096,1.60505 -2.869482,1.122809 -1.102416,-0.482532 -1.605051,-1.767153 -1.122693,-2.869627 0.74791,-1.709342 1.783247,-3.262392 3.081552,-4.560667 5.776729,-5.776729 15.142961,-5.776729 20.91969,0 z M 56.523494,21.509812 c 1.47868,1.478825 2.875147,3.168326 4.090627,4.929552 0.683563,0.990455 0.434889,2.347412 -0.555449,3.030684 -0.990338,0.683563 -2.347295,0.434889 -3.030858,-0.555449 -1.069065,-1.548982 -2.297619,-3.035419 -3.585726,-4.323497 -11.852681,-11.852855 -31.069972,-11.852855 -42.922826,0 -1.2255624,1.225561 -2.4411004,2.711765 -3.5500811,4.310424 -0.685887,0.988595 -2.043397,1.234074 -3.032108,0.548187 -0.988711,-0.685887 -1.23416,-2.043425 -0.548273,-3.03202 1.249644,-1.801346 2.627838,-3.486548 4.0491717,-4.907881 13.5545854,-13.5545859 35.5310524,-13.5545859 49.0855224,0 z m -21.461195,23.70658 c 1.70208,1.701789 1.70208,4.461314 0,6.163394 -1.701789,1.701789 -4.461314,1.701789 -6.163103,0 -1.70208,-1.70208 -1.70208,-4.461605 0,-6.163394 1.701789,-1.70208 4.461314,-1.70208 6.163103,0 z"
     fill="#212121"
     id="path1-3"
     style="fill:#02aa93;fill-opacity:1;stroke-width:1" />
</svg>
