<?xml version="1.0" encoding="UTF-8" standalone="no"?>
<svg
   width="24"
   height="24"
   viewBox="0 0 24 24"
   fill="none"
   version="1.1"
   id="svg5"
   sodipodi:docname="notification-battery-low.svg"
   inkscape:version="1.4 (e7c3feb100, 2024-10-09)"
   xmlns:inkscape="http://www.inkscape.org/namespaces/inkscape"
   xmlns:sodipodi="http://sodipodi.sourceforge.net/DTD/sodipodi-0.dtd"
   xmlns="http://www.w3.org/2000/svg"
   xmlns:svg="http://www.w3.org/2000/svg">
  <sodipodi:namedview
     id="namedview5"
     pagecolor="#ffffff"
     bordercolor="#000000"
     borderopacity="0.25"
     inkscape:showpageshadow="2"
     inkscape:pageopacity="0.0"
     inkscape:pagecheckerboard="0"
     inkscape:deskcolor="#d1d1d1"
     inkscape:zoom="13.176167"
     inkscape:cx="5.1608334"
     inkscape:cy="21.8197"
     inkscape:window-width="1906"
     inkscape:window-height="990"
     inkscape:window-x="0"
     inkscape:window-y="0"
     inkscape:window-maximized="1"
     inkscape:current-layer="svg5" />
  <defs
     id="defs5">
    <linearGradient
       id="paint0_linear_36_127"
       x1="19.4992"
       y1="4.10754"
       x2="2.72433"
       y2="22.3023"
       gradientUnits="userSpaceOnUse">
      <stop
         stop-color="#FE7970"
         id="stop2" />
      <stop
         offset="1"
         stop-color="#DC3282"
         id="stop3" />
    </linearGradient>
    <linearGradient
       id="paint1_linear_36_127"
       x1="22.9544"
       y1="8.57092"
       x2="16.5222"
       y2="20.9484"
       gradientUnits="userSpaceOnUse">
      <stop
         stop-color="#FE7970"
         id="stop4" />
      <stop
         offset="1"
         stop-color="#DC3282"
         id="stop5" />
    </linearGradient>
  </defs>
  <path
     d="m 17.499846,5.4002106 c 1.822532,0 3.299895,1.4774177 3.299895,3.2998945 v 1.0999652 h 1.100294 c 0.200304,0 0.388178,0.05357 0.549983,0.147175 C 22.778798,10.137429 23,10.492938 23,10.900035 v 2.199929 c 0,0.407098 -0.221202,0.762606 -0.549982,0.95279 -0.161805,0.09361 -0.349679,0.147175 -0.549983,0.147175 h -1.100294 v 1.099965 c 0,1.822532 -1.477363,3.299895 -3.299895,3.299895 H 4.2998944 C 2.4774177,18.599789 1,17.122426 1,15.299894 V 8.7001051 C 1,6.8776283 2.4774177,5.4002106 4.2998944,5.4002106 Z M 16.399881,8.7001051 H 5.4008382 c -0.6074886,0 -1.0999649,0.4924762 -1.0999649,1.0999652 v 4.3998587 c 0,0.607511 0.4924763,1.099965 1.0999649,1.099965 H 16.399881 c 0.607511,0 1.099965,-0.492454 1.099965,-1.099965 V 9.8000703 c 0,-0.607489 -0.492454,-1.0999652 -1.099965,-1.0999652 z"
     fill="#000000"
     id="path1-3"
     style="fill:#f56575;fill-opacity:1;stroke-width:1" />
</svg>
